<svg xmlns="http://www.w3.org/2000/svg" viewBox="0 0 500 500"><g id="freepik--background-complete--inject-141"><path d="M95.6,324.51c0-1.92-.11-3.82-.13-5.7l.28.28c-4.54.05-9.09.16-13.63.17l-13.63.06.51-.51,0,11.52-.46-.46c2.24,0,4.48,0,6.74.06L82,330l13.75.29Zm-13.36,6.1-6.86.12c-2.29,0-4.59,0-6.89.06H68v-.46L68,318.81v-.52h.52l13.63.07c4.54,0,9.09.11,13.63.17H96v.28c0,1.95-.09,3.9-.13,5.82l-.15,5.7Z" style="fill:#ebebeb"></path><path d="M80.4,339c-.05-1.92-.12-3.81-.14-5.7l.28.28c-4.54.06-9.08.17-13.63.17l-13.63.07.52-.52-.06,11.52-.46-.46c2.25,0,4.49,0,6.74.06l6.77.12,13.75.28ZM67,345.14l-6.86.11c-2.29.05-4.59,0-6.89.06h-.46v-.47l0-11.52v-.51h.52l13.63.06c4.55,0,9.09.12,13.63.17h.29v.27c0,2-.09,3.9-.13,5.82l-.15,5.7Z" style="fill:#ebebeb"></path><path d="M110.81,339c0-1.92-.12-3.81-.14-5.7l.29.28c-4.55.06-9.09.17-13.63.17l-13.63.07.51-.52-.06,11.52-.45-.46c2.24,0,4.48,0,6.73.06l6.78.12,13.75.28Zm-13.37,6.11-6.85.11c-2.29.05-4.6,0-6.89.06h-.46v-.47l-.06-11.52v-.51h.52l13.63.06c4.54,0,9.08.12,13.63.17h.28v.27c0,2-.09,3.9-.14,5.82l-.14,5.7Z" style="fill:#ebebeb"></path><path d="M431.6,339c-.05-1.92-.12-3.81-.14-5.7l.28.28c-4.54.06-9.08.17-13.63.17l-13.63.07.52-.52-.06,11.52-.46-.46c2.25,0,4.49,0,6.74.06l6.78.12,13.74.28Zm-13.37,6.11-6.85.11c-2.3.05-4.6,0-6.9.06H404v-.47L404,333.33v-.51h.51l13.63.06c4.55,0,9.09.12,13.63.17H432v.27c0,2-.09,3.9-.14,5.82l-.15,5.7Z" style="fill:#ebebeb"></path><path d="M431.6,55c-.05-1.92-.12-3.81-.14-5.7l.28.28c-4.54.05-9.08.16-13.63.17l-13.63.06.52-.51-.06,11.52-.46-.46c2.25,0,4.49,0,6.74.06l6.78.11,13.74.29Zm-13.37,6.11-6.85.11c-2.3.05-4.6,0-6.9.06H404v-.46L404,49.34v-.52h.51l13.63.06c4.55,0,9.09.12,13.63.17H432v.28c0,1.95-.09,3.9-.14,5.82l-.15,5.7Z" style="fill:#ebebeb"></path><path d="M446.81,69.56c-.05-1.91-.12-3.81-.14-5.69l.28.28c-4.54,0-9.09.16-13.63.16l-13.63.07.51-.51-.05,11.51-.46-.45c2.25,0,4.49,0,6.74,0l6.77.12,13.75.28Zm-13.37,6.11-6.86.12c-2.29,0-4.59,0-6.89,0h-.46v-.47l-.05-11.51v-.52h.52l13.63.07c4.54,0,9.09.11,13.63.16h.29v.28c0,1.95-.09,3.89-.13,5.82L447,75.38Z" style="fill:#ebebeb"></path><path d="M80.4,55.05c-.05-1.92-.12-3.81-.14-5.7l.28.28c-4.54.06-9.08.17-13.63.17l-13.63.07.52-.52-.06,11.52-.46-.46c2.25,0,4.49,0,6.74.06l6.77.11,13.75.29ZM67,61.16l-6.86.11c-2.29,0-4.59,0-6.89.06h-.46v-.46l0-11.52v-.51h.52l13.63.06c4.55,0,9.09.12,13.63.17h.29v.28c0,2-.09,3.9-.13,5.82l-.15,5.7Z" style="fill:#ebebeb"></path><path d="M219,175.34c.05,1.92.12,3.82.14,5.7l-.28-.28c4.54,0,9.08-.16,13.63-.17l13.63-.06-.52.51.06-11.52.46.46c-2.25,0-4.49,0-6.74,0l-6.78-.12-13.74-.29Zm13.37-6.1,6.85-.12c2.3-.05,4.6,0,6.9-.05h.45v.46l.06,11.52v.52h-.51l-13.63-.07c-4.55,0-9.09-.11-13.63-.17h-.29V181c0-1.95.09-3.89.14-5.82l.15-5.7Z" style="fill:#ebebeb"></path><path d="M234.16,160.82c0,1.92.11,3.81.13,5.7l-.28-.28c4.55-.06,9.09-.17,13.63-.17l13.63-.07-.51.52.05-11.52.46.46c-2.24,0-4.48,0-6.74-.06l-6.77-.11L234,155Zm13.36-6.11,6.86-.11c2.29,0,4.6,0,6.89-.06h.46V155l.06,11.52V167h-.52L247.64,167c-4.54,0-9.08-.12-13.63-.17h-.28v-.28c0-2,.09-3.9.14-5.82L234,155Z" style="fill:#ebebeb"></path><path d="M86.9,157.62v29.47L106,209.5A29.47,29.47,0,0,0,86.9,157.62Z" style="fill:#ebebeb"></path><path d="M51.44,190.09A29.46,29.46,0,0,0,100,212.5L80.9,190.09V160.62a29.42,29.42,0,0,0-29.46,29.47Z" style="fill:#ebebeb"></path><path d="M51.44,190.09A29.46,29.46,0,0,0,100,212.5L80.9,190.09V160.62a29.42,29.42,0,0,0-29.46,29.47Z" style="fill:#dbdbdb"></path><line x1="100.02" y1="172.73" x2="100.02" y2="134.71" style="fill:none;stroke:#c7c7c7;stroke-miterlimit:10"></line><path d="M97.36,132.05a2.67,2.67,0,1,0,2.66-2.66A2.66,2.66,0,0,0,97.36,132.05Z" style="fill:none;stroke:#c7c7c7;stroke-miterlimit:10"></path><rect x="62.43" y="129.39" width="29.53" height="1.33" transform="translate(154.38 260.1) rotate(180)" style="fill:#c7c7c7"></rect><rect x="75.24" y="132.05" width="16.71" height="1.33" transform="translate(167.19 265.43) rotate(180)" style="fill:#c7c7c7"></rect><path d="M386.26,97.41a31.32,31.32,0,1,0,31-35.91V92.81Z" style="fill:#dbdbdb"></path><path d="M379.54,86.44a31.59,31.59,0,0,0,.34,4.59l31-4.59V55.12a31.3,31.3,0,0,0-31.32,31.32Z" style="fill:#ebebeb"></path><line x1="413.85" y1="104.37" x2="380.54" y2="104.37" style="fill:none;stroke:#c7c7c7;stroke-miterlimit:10"></line><circle cx="378.21" cy="104.37" r="2.33" style="fill:none;stroke:#c7c7c7;stroke-miterlimit:10"></circle><rect x="343.87" y="102.62" width="25.87" height="1.17" transform="translate(713.62 206.4) rotate(180)" style="fill:#c7c7c7"></rect><rect x="355.1" y="104.95" width="14.64" height="1.17" transform="translate(724.84 211.07) rotate(180)" style="fill:#c7c7c7"></rect><rect x="312.64" width="1.25" height="66.65" style="fill:#ebebeb"></rect><rect x="309.8" y="61.09" width="6.93" height="4.69" style="fill:#dbdbdb"></rect><rect x="309.8" y="62.65" width="6.93" height="3.13" style="fill:#c7c7c7"></rect><path d="M318.61,96.79a5.34,5.34,0,1,1-5.34-5.33A5.34,5.34,0,0,1,318.61,96.79Z" style="fill:#ebebeb"></path><polygon points="330.64 96.79 295.9 96.79 302.19 85.64 307.32 64.95 319.21 64.95 324.35 85.64 330.64 96.79" style="fill:#dbdbdb"></polygon><rect x="248.06" width="1.25" height="55.68" style="fill:#ebebeb"></rect><rect x="245.22" y="50.13" width="6.93" height="4.69" style="fill:#dbdbdb"></rect><rect x="245.22" y="51.69" width="6.93" height="3.13" style="fill:#c7c7c7"></rect><path d="M254,85.83a5.34,5.34,0,1,1-5.34-5.33A5.34,5.34,0,0,1,254,85.83Z" style="fill:#ebebeb"></path><polygon points="266.05 85.83 231.32 85.83 237.61 74.68 242.74 53.98 254.63 53.98 259.76 74.68 266.05 85.83" style="fill:#dbdbdb"></polygon><rect x="186.1" width="1.25" height="44.23" style="fill:#ebebeb"></rect><rect x="183.26" y="38.67" width="6.93" height="4.69" style="fill:#dbdbdb"></rect><rect x="183.26" y="40.23" width="6.93" height="3.13" style="fill:#c7c7c7"></rect><path d="M192.07,74.38A5.34,5.34,0,1,1,186.73,69,5.34,5.34,0,0,1,192.07,74.38Z" style="fill:#ebebeb"></path><polygon points="204.1 74.38 169.36 74.38 175.65 63.23 180.78 42.53 192.68 42.53 197.81 63.23 204.1 74.38" style="fill:#dbdbdb"></polygon></g><g id="freepik--Table--inject-141"><polygon points="38.37 383.54 91.28 383.3 144.18 383.21 250 383.04 355.82 383.21 408.73 383.3 461.63 383.54 408.73 383.79 355.82 383.87 250 384.04 144.18 383.87 91.28 383.78 38.37 383.54" style="fill:#263238"></polygon></g><g id="freepik--Shadow--inject-141"><ellipse cx="291.01" cy="418.38" rx="87.7" ry="28.94" style="fill:#ebebeb"></ellipse><ellipse cx="230.31" cy="439.61" rx="54.06" ry="17.84" style="fill:#ebebeb"></ellipse></g><g id="freepik--Plant--inject-141"><path d="M458.6,301.54c-11.21,15.18-22.9,32.8-25.74,51.83a.25.25,0,0,0,.49.1,113,113,0,0,1,5-15.24c7.37-2,14.6-3.7,18.47-11,3.94-7.52,3.44-17.32,2.69-25.51C459.42,301.27,458.82,301.25,458.6,301.54Z" style="fill:#FFC727"></path><path d="M438.42,338.08c5-11.29,11.5-22.64,19.71-31.93.06-.06.14,0,.09.09-5.38,6.62-9.46,13.83-13.46,21.16,3.72-3.77,7.78-7.14,11.3-11.14.07-.08.17,0,.11.11-3.49,4.19-7.3,8.74-11.85,11.84-1.22,2.25-2.45,4.51-3.7,6.76.31-.17.63-.32.94-.47.05,0,.1.05.05.08-.35.18-.69.36-1.05.51-.59,1.07-1.18,2.14-1.78,3.2C438.64,338.53,438.31,338.32,438.42,338.08Z" style="fill:#263238"></path><path d="M442.16,334.14a66.1,66.1,0,0,0,8.61-5.74c.07-.06.18,0,.1.11a45.57,45.57,0,0,1-8.58,5.84A.12.12,0,0,1,442.16,334.14Z" style="fill:#263238"></path><path d="M431.56,350.54c0,.23.42.23.41,0,.06-6.27,0-12.56.1-18.86,1.61-3.24,5.05-5,7.45-7.63a33.16,33.16,0,0,0,4.47-6.22,44.88,44.88,0,0,0,5.19-17.3c.66-6.7-1.89-28.82-4.71-28.06-1.47.4-6.21,11.36-7.47,15a104.49,104.49,0,0,0-4.46,18.37C430.25,320.55,430.44,335.7,431.56,350.54Z" style="fill:#FFC727"></path><path d="M431.52,323.5l0,0c.35-7.93,2.13-15.94,3.81-23.64,1.8-8.28,3.91-16.08,8.17-23.48.08-.13.28,0,.21.13a86.91,86.91,0,0,0-6.56,18c.28-.45.63-.87.93-1.29.11-.17.39,0,.27.16a11.82,11.82,0,0,1-1.33,1.88l-.06,0c-1.46,5.92-2.52,12-3.42,18,.07-.07.13-.16.2-.23a.06.06,0,0,1,.09.07q-.17.3-.36.6c-.45,3.07-.87,6.13-1.3,9.16,5.47-4.67,10.13-10.17,12.76-17,0,0,.07,0,.05,0-2.57,7-6.64,13.28-12.89,17.55-.12.81-.23,1.63-.35,2.45,0,.16-.29.12-.29,0,0-.73,0-1.45.07-2.17A.17.17,0,0,1,431.52,323.5Z" style="fill:#263238"></path><path d="M434.09,312a127.47,127.47,0,0,0,11.13-19.16c0-.08.16,0,.13,0-2.57,6.84-6.18,13.78-11.05,19.27C434.2,312.28,434,312.14,434.09,312Z" style="fill:#263238"></path><path d="M439.64,291.31c1.73-3.06,3.55-6,5.18-9.16,0-.09.16,0,.12.08a47.23,47.23,0,0,1-5,9.23C439.79,291.62,439.54,291.48,439.64,291.31Z" style="fill:#263238"></path><path d="M439,292.64a0,0,0,0,1,0,.05A0,0,0,0,1,439,292.64Z" style="fill:#263238"></path><path d="M427.32,332.41a63.92,63.92,0,0,1-1.47,12.35c.07.45.13.9.2,1.36a59.14,59.14,0,0,0,2.21-13.77.44.44,0,0,0,0-.43h0a91.26,91.26,0,0,0-1.39-18.65c-1.94-11.52-6.18-22.57-14.21-31.21a.57.57,0,0,0-.89.19c-3.24,8.24-2.11,18.07.65,26.3A48.14,48.14,0,0,0,418.81,321C421.57,324.9,425.08,328.18,427.32,332.41Z" style="fill:#FFC727"></path><path d="M413.63,285.91c7.61,12.36,12.91,27,13.56,41.6,0,.26-.43.33-.46.07-.18-1.32-.39-2.62-.6-3.91h0c-3.15-3-6.38-6.2-8.64-10,0-.07.06-.15.11-.09a105.16,105.16,0,0,0,8.39,9.13q-.81-4.83-2-9.53c-.21-.23-.41-.47-.61-.71s.09-.38.23-.22l.18.2a109.62,109.62,0,0,0-4-12.64c-1.94-2.31-4.1-4.31-5.51-7.09,0-.07.05-.12.1-.06,1.13,1.59,2.23,3.19,3.52,4.67.51.59,1.07,1.14,1.61,1.72a97.84,97.84,0,0,0-6.24-13A.17.17,0,0,1,413.63,285.91Z" style="fill:#263238"></path><path d="M415.17,301.15c2.46,3.31,5.26,6.47,7.55,9.9a.1.1,0,0,1-.16.12,50.43,50.43,0,0,1-7.56-9.92C414.93,301.14,415.09,301.06,415.17,301.15Z" style="fill:#263238"></path><path d="M423.06,311.81l.11.11c.07.07,0,.19-.11.11l-.11-.1C422.88,311.85,423,311.74,423.06,311.81Z" style="fill:#263238"></path><path d="M401.7,309.66a37.84,37.84,0,0,0,8,18.85,20,20,0,0,0,6.52,5.09c2.82,1.39,5.77,3,8.69,4.15A56.66,56.66,0,0,1,428,348.68c.1-.31.19-.65.28-1-1.87-16.1-12.29-29.86-25.61-38.69A.64.64,0,0,0,401.7,309.66Z" style="fill:#FFC727"></path><path d="M406.3,314.42c-.09-.08,0-.25.14-.18a54.45,54.45,0,0,1,17,20.93.19.19,0,0,1-.33.19c-.62-1.09-1.25-2.14-1.89-3.18h0c-3-.57-5.92-2.71-8.18-4.74a.06.06,0,1,1,.09-.09,18.4,18.4,0,0,0,3.85,2.7,41.29,41.29,0,0,0,3.86,1.53c-1.12-1.79-2.3-3.5-3.52-5.17a35.26,35.26,0,0,1-9.14-5.13c-.09-.07,0-.21.08-.15a91.43,91.43,0,0,0,8.5,4.54,76.11,76.11,0,0,0-6-7c-1-.55-2.08-1.1-3.08-1.68-.09-.05,0-.19.06-.16a11.34,11.34,0,0,1,2.37,1.17C408.87,316.79,407.63,315.59,406.3,314.42Z" style="fill:#263238"></path><path d="M406.58,320a3.71,3.71,0,0,1,.52.36c0,.05,0,.11-.07.09a4.07,4.07,0,0,1-.53-.31C406.41,320.07,406.49,319.92,406.58,320Z" style="fill:#263238"></path><polygon points="449.1 383.54 412.59 383.54 415.54 350.3 416.18 342.96 445.5 342.96 446.15 350.3 449.1 383.54" style="fill:#455a64"></polygon><polygon points="446.15 350.3 415.54 350.3 416.18 342.96 445.5 342.96 446.15 350.3" style="fill:#263238"></polygon><rect x="414.44" y="337.84" width="32.81" height="7.26" style="fill:#455a64"></rect></g><g id="freepik--chart-2--inject-141"><polygon points="291.01 392.47 291.01 409.13 220.99 416.91 220.99 400.26 291.01 392.47" style="fill:#c7c7c7"></polygon><path d="M291,367.29v25.18l-70,7.79c-12.56-13.23,8.6-27.44,47.28-31.74A196.63,196.63,0,0,1,291,367.29Z" style="fill:#dbdbdb"></path><path d="M217.37,409.12V392.47c0,2.58,1.16,5.2,3.62,7.79v16.65C218.53,414.32,217.37,411.7,217.37,409.12Z" style="fill:#a6a6a6"></path><path d="M289.17,377.67a67.88,67.88,0,0,1-9.2,2.69c-.6-2.84-3.05-5.26-6.48-6.77a15.91,15.91,0,0,0-12.85-.21c-2.44,1.15-3.06,3.07-1.62,4.89,2.14,2.67,8.93,4.94,20.08,2.75.4,2.66-.87,5.65-4.56,8.59a32.26,32.26,0,0,1-6.06,3.73,28.07,28.07,0,0,0-7.5-.41c-5.53.29-12.35,1.71-13.67,3.38-.32.4-.33.75,0,1l1.34-.15c-.56-.22-.73-.52-.44-.89.84-1.06,6.46-2.53,12.45-2.83a29.07,29.07,0,0,1,6.8.36,41.53,41.53,0,0,1-4.9,1.81l2.18-.24c1.16-.41,2.31-.88,3.47-1.4a7.65,7.65,0,0,1,2,.79l1.3-.14a6.33,6.33,0,0,0-2.26-1.12,34,34,0,0,0,6.07-3.78c3.83-3.06,5.19-6.17,4.81-8.92a69.71,69.71,0,0,0,9.33-2.75c.55-.2,1.1-.41,1.62-.62V377C290.42,377.2,289.8,377.44,289.17,377.67Zm-29.23.22c-1.26-1.59-.82-3.26,1.08-4.17,3.24-1.54,7.71-1.4,11.68.35,3.31,1.46,5.69,3.77,6.31,6.49C268.41,382.59,262,380.43,259.94,377.89Zm-8.22,4c-2-2.77-8.66-5.39-19.91-3.76a5.46,5.46,0,0,1,0-.57c-.32.14-.62.29-.93.44a1.29,1.29,0,0,0,0,.28l-.88.15c-.48.25-1,.5-1.41.75.8-.17,1.58-.31,2.34-.43.46,2.87,2.79,5.4,6.14,7.08a15.88,15.88,0,0,0,12.82.86C252.33,385.62,253.08,383.73,251.72,381.85Zm-2.23,4.44c-3.3,1.38-7.76,1-11.65-.93-3.22-1.62-5.48-4.06-6-6.8,10.68-1.5,17,1,18.91,3.63C252,383.83,251.45,385.48,249.49,386.29Z" style="fill:#c7c7c7"></path><path d="M255.86,410.93l-22.74,23.95c-23.21-2.58-39.73-8.24-47.28-16.17Z" style="fill:#455a64"></path><path d="M246,417.82a36.17,36.17,0,0,0-9.58-4.73l-1.09.12a35.59,35.59,0,0,1,9.92,4.76c1.32,1,1.69,1.79,1,2-1.27.43-6.79-1.39-12-4.38a33.16,33.16,0,0,1-3-1.95l-.89.1c.93.66,2,1.37,3.31,2.1,4.69,2.71,11,5.16,13.17,4.62a.32.32,0,0,0,.14,0c.45-.15.66-.41.61-.76S247,418.58,246,417.82Zm-34-1.8a2.26,2.26,0,0,1,.11-.22l-1.55.17.35.13c-1,2.71-.29,6.07,1.76,9.2a15.89,15.89,0,0,0,10.66,7.16c2.68.36,4.25-.91,4-3.22C227,425.84,222.5,420.24,211.94,416Zm11.2,16c-3.54-.46-7.23-3-9.62-6.65-2-3-2.71-6.25-1.76-8.86,10,4.05,14.24,9.37,14.56,12.6C226.52,431.08,225.24,432.25,223.14,432Z" style="fill:#37474f"></path><polygon points="255.86 410.93 255.86 427.58 233.12 451.53 233.12 434.88 255.86 410.93" style="fill:#263238"></polygon><path d="M233.12,434.88v16.65c-23.21-2.58-39.73-8.23-47.28-16.17V418.71C193.39,426.64,209.91,432.3,233.12,434.88Z" style="fill:#37474f"></path><path d="M291,392.47v25.18a196.63,196.63,0,0,1-22.74-1.23Z" style="fill:#ebebeb"></path><path d="M287.77,403.16A29.42,29.42,0,0,1,291,403v-.51a29.37,29.37,0,0,0-3.75.12c-4.88.48-7.7,2.36-8.88,4.88-.4-.15-.82-.31-1.24-.45l-.34.36,1.4.52c-1,2.71-.29,6.07,1.75,9.21l.17.22.93.05-.17-.25c-2-3-2.72-6.25-1.77-8.87,5.77,2.34,9.63,5.1,11.9,7.64V415a35.48,35.48,0,0,0-11.72-7.14C280.4,405.44,283.08,403.61,287.77,403.16Z" style="fill:#dbdbdb"></path><path d="M291,417.65v16.66a196.63,196.63,0,0,1-22.74-1.23V416.42A196.63,196.63,0,0,0,291,417.65Z" style="fill:#dbdbdb"></path><path d="M291,367.29c32.54,0,60,6.82,70,17.4l-70,7.78Z" style="fill:#37474f"></path><path d="M312.92,390a36.11,36.11,0,0,1-4.15-.62,27.49,27.49,0,0,0-5.69-4.89c-4.06-2.78-9.45-5.47-12.07-5.67v.54c1.55-.14,6.69,2.06,11.44,5.33a28.83,28.83,0,0,1,5.19,4.43c-7.2-1.73-13.5-5.38-16-7.64q-.39-.36-.66-.66v.85c2.73,2.42,9.48,6.28,17.12,8a8.89,8.89,0,0,1,.54.76l.84-.09c-.09-.14-.18-.28-.29-.43.53.11,1,.2,1.59.28Zm12.88-3.94c1.25-2.62.77-6-1-9.32a15.92,15.92,0,0,0-10.07-8c-2.63-.56-4.3.58-4.25,2.9.06,3.41,4.07,9.35,14.26,14.39a7,7,0,0,1-3.5,3l2.13-.24a6.82,6.82,0,0,0,2.25-2.36q1.83.86,3.9,1.68l1-.11Q327.95,387.13,325.8,386.1Zm-.89-.43c-9.65-4.83-13.46-10.47-13.51-13.72,0-2,1.32-3.09,3.4-2.64,3.49.74,7,3.57,9.06,7.38C325.58,379.85,326.07,383.13,324.91,385.67Zm32.21-4.32-.87-.6a12.74,12.74,0,0,0-.27,4.5l.9-.1A12.11,12.11,0,0,1,357.12,381.35Z" style="fill:#455a64"></path><polygon points="361.03 384.69 361.03 401.34 291.01 409.13 291.01 392.47 361.03 384.69" style="fill:#263238"></polygon><path d="M364.66,392.48v16.65c0,10.62-19.79,20.49-50.89,23.95A196.86,196.86,0,0,1,291,434.31V417.65a196.86,196.86,0,0,0,22.76-1.23C344.87,413,364.66,403.1,364.66,392.48Z" style="fill:#FFC727"></path><g style="opacity:0.1"><path d="M364.66,392.48v16.65c0,10.62-19.79,20.49-50.89,23.95A196.86,196.86,0,0,1,291,434.31V417.65a196.86,196.86,0,0,0,22.76-1.23C344.87,413,364.66,403.1,364.66,392.48Z"></path></g><path d="M361,384.69c12.58,13.23-8.6,27.44-47.26,31.73A196.86,196.86,0,0,1,291,417.65V392.47Z" style="fill:#FFC727"></path><path d="M349,389.3a44.12,44.12,0,0,1,15.63,2.77c0-.2,0-.39,0-.58a47.06,47.06,0,0,0-16.2-2.65,5.72,5.72,0,0,1-2-2.52l-.93.1a5.62,5.62,0,0,0,1.85,2.46,32.47,32.47,0,0,0-7.07,1.05c-4.74,1.27-7.22,3.59-8,6.27a67,67,0,0,0-9.65-1.2c-9.91-.57-17.72.89-23.46,3.26a26.67,26.67,0,0,0-7.54-5.86l-.6.07v.25a25.34,25.34,0,0,1,7.44,5.84,25.63,25.63,0,0,0-7.44,4.79v1.2a23.2,23.2,0,0,1,7.85-5.49c3.54,4.37,4.84,9.31,3.57,12.86-.66,1.83-2.6,4.79-8.32,4a9.11,9.11,0,0,1-3.1-1v.62a11.38,11.38,0,0,0,2.94.79l.79.09c4.4.4,7.53-1.18,8.68-4.39,1.3-3.67-.1-8.8-3.85-13.31,5.6-2.38,13.3-3.85,23.07-3.29a66.23,66.23,0,0,1,9.51,1.19c-.57,2.85.71,6,3.25,8.79a16.94,16.94,0,0,0,7.77,4.82l.8-.28a15.75,15.75,0,0,1-7.66-4.66c-2.45-2.65-3.71-5.72-3.19-8.46,10.52,2.35,15.58,6.91,16.42,10.05a2.81,2.81,0,0,1,.12.79l.95-.43c0-.11-.05-.23-.09-.35-.88-3.3-6.2-8.09-17.3-10.52.69-2.6,3-4.84,7.6-6.06a31.16,31.16,0,0,1,7.05-1,27.75,27.75,0,0,0,6.71,3.36,47.26,47.26,0,0,0,9.65,2.5c0-.14.09-.29.12-.44a44.25,44.25,0,0,1-9.22-2.4A30.17,30.17,0,0,1,349,389.3Z" style="opacity:0.1"></path></g><g id="freepik--chart-1--inject-141"><rect x="341.81" y="127.57" width="9.02" height="96.31"></rect><path d="M341.81,127.57c-31.41,0-58.24,13.88-76.71,39.69l76.71,56.62Z" style="fill:#263238"></path><path d="M334.82,127.8c-.32,0-.62,0-.94.07,2.72,4.69,4.41,9.91,3.55,15.2-.73,4.57-5.16,6.91-8.74,8.07a41.21,41.21,0,0,1-11.34,1.7,39.57,39.57,0,0,0-5.28-8.81,48.46,48.46,0,0,0-8.71-8.58c-.29.12-.59.26-.88.41a44.54,44.54,0,0,1,13.87,17c-10.63.09-22.84-2.55-30.79-6.85l-.77.58c8.21,4.61,20.89,7.37,31.95,7.17a28.56,28.56,0,0,1,1.57,18,32.93,32.93,0,0,1-3.23,8.27,36.24,36.24,0,0,0-11.62-1.53c-7.07.23-12.56,2.5-15.07,6l.68.5c2.34-3.26,7.61-5.39,14.43-5.62a35.63,35.63,0,0,1,11.21,1.32,25.7,25.7,0,0,1-15.24,12l.85.63a26.78,26.78,0,0,0,15.23-12.35c10.39,3.37,16.1,11.55,17.16,19.43a22.38,22.38,0,0,1-3,14.6l.67.49a23.39,23.39,0,0,0-8-32.18,30.54,30.54,0,0,0-6.47-3,34.26,34.26,0,0,0,3.23-8.33,29.61,29.61,0,0,0-1.43-18.24A42.09,42.09,0,0,0,329,152c5.47-1.76,8.69-4.78,9.33-8.74C339.13,137.93,337.58,132.67,334.82,127.8Z" style="fill:#37474f"></path><path d="M341.9,330.17h9a93.41,93.41,0,0,0,55.66-18.4h-9A93.41,93.41,0,0,1,341.9,330.17Z" style="fill:#dbdbdb"></path><path d="M341.81,233.88,265.1,290.47a93.84,93.84,0,0,0,132.46,21.3Z" style="fill:#ebebeb"></path><path d="M352.53,248.85l-.75-1A23.62,23.62,0,0,0,336,251.16a32.36,32.36,0,0,0-5.73,4.45,35,35,0,0,0-6-6.82c-.41-.37-.83-.72-1.27-1l-.74.54c.48.37,1,.76,1.43,1.17a33.58,33.58,0,0,1,6,6.79,37.07,37.07,0,0,0-6.82,9.79c-4.19,8.77-3.7,16.67,1.23,19.67,2.5,1.51,5.35.56,7.64-2.55,4-5.44,5.51-16.57-1-26.91C337.37,249.67,345.56,247.68,352.53,248.85ZM331,282.63c-2,2.71-4.41,3.58-6.48,2.32-4.53-2.75-4.89-10.21-.9-18.54a36,36,0,0,1,6.44-9.53C336.26,266.83,334.85,277.41,331,282.63Zm40.46-7.32v0a5.8,5.8,0,0,1-.61,1.43,1.48,1.48,0,0,1-1.56.83c-.74-.16-1.59-2.25-1.22-5.63,0-.28.09-.67.17-1.14l-.69-1a17.41,17.41,0,0,0-.35,2c-.39,3.5.41,6.26,1.91,6.57,1.29.26,2.35-.56,3-2.25Zm-14.91-5.88c-3.57-.35-6.58,1.33-8.91,5-5.34,8.37-6.14,25.78-2.8,39.56a29.13,29.13,0,0,1-17.57,5.55,34,34,0,0,1-8.94-1.39,36.53,36.53,0,0,0-1-11.89c-2.41-9.41-7.86-15.16-13.56-14.29-2.89.44-4.48,3-4.23,6.86.43,6.74,6.4,16.25,18.05,20a27.91,27.91,0,0,1-1.83,7.66l.8.23.21-.58a31.67,31.67,0,0,0,1.53-7.09,34.45,34.45,0,0,0,9,1.38A30.14,30.14,0,0,0,345.09,315a42.83,42.83,0,0,0,4.24,10.78,19.56,19.56,0,0,0,2.88,3.88l1.1-.14a19.24,19.24,0,0,1-3.23-4.18,41.57,41.57,0,0,1-4.19-10.9,40.62,40.62,0,0,0,7.59-7.19c6-7.31,10-16.87,10.54-25C364.49,274.71,361.69,269.93,356.56,269.43ZM317.63,317.9c-11.13-3.65-16.84-12.67-17.25-19.14-.21-3.36,1.09-5.58,3.48-5.95,5.24-.79,10.3,4.69,12.6,13.64A36.41,36.41,0,0,1,317.63,317.9Zm45.53-35.73c-.64,10.33-7.2,23.6-17.51,31.23-3.12-13.5-2.35-30.56,2.74-38.52,2.14-3.35,4.86-4.89,8.08-4.58C361.15,270.75,363.59,275.08,363.16,282.17Zm26.89,19.12A89.77,89.77,0,0,1,383,314.83a58.93,58.93,0,0,1-7,8.88c.65-.25,1.3-.52,1.94-.78,6-6.7,10.36-15.21,12.72-20.76Z" style="fill:#dbdbdb"></path><polygon points="397.56 311.77 406.58 311.77 350.83 233.88 341.81 233.88 397.56 311.77" style="fill:#c7c7c7"></polygon><path d="M397.56,301.77h9c42.38-31.26,51.77-91.49,21-134.51a89.53,89.53,0,0,0-21-21.3h-9a89.76,89.76,0,0,1,21,21.3C449.34,210.28,440,270.51,397.56,301.77Z" style="fill:#37474f"></path><path d="M397.56,146l-55.75,77.92,55.75,77.89c42.39-31.26,51.78-91.49,21-134.51A89.76,89.76,0,0,0,397.56,146Z" style="fill:#455a64"></path><path d="M431.06,256.51c.12-.34.24-.68.34-1-10.1-6.33-28.68-9.17-44.18-7.44a35,35,0,0,1-4-21.82,41.21,41.21,0,0,1,3-10.47,44.34,44.34,0,0,0,14.37.55c11.61-1.46,19.3-7.09,19.13-14-.08-3.51-2.91-5.79-7.55-6.09-8.12-.52-20.38,5.19-26.62,18.53-12.35-2.78-20.09-11.28-22.74-20.23l-.78,1.07A28.29,28.29,0,0,0,377,212.62a38.54,38.54,0,0,0,8.23,2.9,41.93,41.93,0,0,0-3,10.53,36.27,36.27,0,0,0,3.8,22.13,51.59,51.59,0,0,0-13.54,3.43,20.94,20.94,0,0,0-7.33,4.88l.63.87a20.14,20.14,0,0,1,7.11-4.79,50.41,50.41,0,0,1,13.68-3.35A49.27,49.27,0,0,0,394,259.39c7.69,8.15,18.29,14.36,27.79,16.29l.58-.95c-12.23-2.34-27.05-12.18-34.59-25.64C403,247.54,421.41,250.38,431.06,256.51Zm-18.91-59.29c4,.26,6.5,2.15,6.57,5.07.16,6.37-7.16,11.59-18.21,13a43.66,43.66,0,0,1-13.86-.34C392.71,202.18,404.36,196.72,412.15,197.22Z" style="fill:#37474f"></path><path d="M338.52,110.15v96.31l55.75-77.92C377.33,116,359.48,110.15,338.52,110.15Z" style="fill:#dbdbdb"></path><path d="M394.27,128.54h9c-16.94-12.5-34.8-18.39-55.76-18.39h-9C359.48,110.15,377.33,116,394.27,128.54Z" style="fill:#c7c7c7"></path><path d="M387.13,123.7l-.9-.54a17.78,17.78,0,0,1-.22,4.71c-.84,4.59-5.33,6.85-8.95,7.94a41.29,41.29,0,0,1-11.45,1.48,39.84,39.84,0,0,0-5.13-9c-5.61-7.46-13.84-13.57-21.51-15.94l-.45-.13v.91l.2,0c9.76,3,21,12.41,25.88,24.07a73.59,73.59,0,0,1-26.08-5.21v1A73.33,73.33,0,0,0,365,138.2a28.71,28.71,0,0,1,1.23,18.14,33.52,33.52,0,0,1-3.41,8.25,36.84,36.84,0,0,0-11.66-1.77c-5.22.07-9.62,1.26-12.61,3.24v1c2.84-2.09,7.26-3.35,12.62-3.42a35.82,35.82,0,0,1,11.26,1.55c-6.09,9.82-16.09,13.2-22.39,12.09a9,9,0,0,1-1.49-.38v.9a9.05,9.05,0,0,0,1.34.33c6.57,1.16,17.08-2.36,23.38-12.66a27.8,27.8,0,0,1,3.51,1.48l.45-.6a30.87,30.87,0,0,0-3.59-1.51,34.09,34.09,0,0,0,3.42-8.31A29.81,29.81,0,0,0,366,138.19a42.4,42.4,0,0,0,11.34-1.55c5.53-1.67,8.83-4.64,9.55-8.61A18.56,18.56,0,0,0,387.13,123.7Z" style="fill:#c7c7c7"></path><polygon points="338.52 206.46 347.53 206.46 403.29 128.54 394.27 128.54 338.52 206.46" style="fill:#a6a6a6"></polygon></g><g id="freepik--Character--inject-141"><path d="M111.79,275.14l0,.18L118.61,305l.81,3.52,17.11,74.86h11.68c0,.19,0,.4,0,.59,0-.21,0-.4,0-.59h65.43L186.57,277l-.17-.65-.29-1.19Z" style="fill:#37474f"></path><polygon points="139.85 275.15 167.07 383.38 136.53 383.38 111.84 275.32 139.85 275.15" style="fill:#263238"></polygon><path d="M74,383.38h74.2c0,.19,0,.4,0,.59,0-.21,0-.4,0-.59.05-1.15.09-2.27.13-3.37.05-1.44.11-2.91.17-4.36,0-.55,0-1.08.07-1.62,0-.34,0-.68,0-1s0-.91.06-1.37,0-1.1.07-1.62,0-1.09.05-1.62c0-.23,0-.46,0-.68.05-.95.09-1.84.12-2.69,0-.41,0-.8.05-1.18,0-.17,0-.33,0-.5v-.14c0-.18,0-.36,0-.52s0-.2,0-.3c0-.44,0-.85.05-1.24a2.81,2.81,0,0,1,0-.3c0-.16,0-.31,0-.46,0-.51,0-1,.06-1.4s0-.53,0-.76,0-.7,0-1a2.81,2.81,0,0,1,0-.3,2.53,2.53,0,0,1,0-.29c0-.28,0-.43,0-.43a6.74,6.74,0,0,1,.63-.36v0l.84-.48s0,0,.06,0l.06,0,.78-.48,3.38-1.9,1.07-.58c.7-.38,1.38-.73,2-1.06,1.32-.69,2.55-1.31,3.69-1.87l1.64-.78.76-.36.16-.08.8-.37h0c.6-.28,1.17-.52,1.68-.75l.93-.39c.93-.39,1.65-.67,2.15-.86.09-.05.19-.07.27-.11l.26-.09a1.07,1.07,0,0,1,.24-.09l.11,0c.09-.24.17-.49.26-.74s.19-.51.27-.77c.27-.79.53-1.58.79-2.39s.6-1.91.88-2.88c.2-.66.39-1.32.58-2s.36-1.24.53-1.86c.79-2.83,1.51-5.73,2.18-8.63.14-.58.27-1.17.39-1.75s.31-1.37.45-2.06c.29-1.34.56-2.67.82-4,.11-.5.21-1,.31-1.48.63-3.33,1.2-6.6,1.71-9.76.05-.31.09-.63.14-.94l.39-2.56c.11-.75.23-1.49.33-2.24.24-1.73.48-3.42.69-5.06.05-.39.1-.77.14-1.15.15-1.17.29-2.32.42-3.44.07-.56.13-1.11.19-1.65s.11-.89.15-1.33.08-.65.11-1a1.79,1.79,0,0,1,0-.24c.06-.54.12-1.08.17-1.59.15-1.53.29-2.93.4-4.17.08-.75.13-1.44.18-2.07a.19.19,0,0,1,0-.08c.11-1.21.18-2.22.24-3v0c0-.51.07-.9.08-1.18s0-.33,0-.38v0h0l-56.58,0H82.45s-.28,3.56-.79,9.82c0,.63-.09,1.29-.14,2-.29,3.68-.64,8.1-1,13.15-.06.68-.12,1.4-.18,2.11q-.28,3.82-.64,8.09c-.12,1.67-.26,3.38-.39,5.12-.06.65-.11,1.29-.16,1.94q-.45,5.75-.93,12c-.86,10.95-1.78,22.91-2.74,35.28,0,.19,0,.38,0,.57-.23,3.16-.48,6.36-.72,9.56C74.45,377.64,74.24,380.51,74,383.38Z" style="fill:#d3766a"></path><path d="M70.58,383.38h77.63c0-1.1.09-2.23.14-3.37.05-1.44.11-2.91.17-4.36.09-2.51.19-5,.28-7.26,0-.23,0-.46,0-.68.06-1.57.12-3,.18-4.37v-.14c0-.74.06-1.42.09-2.06a2.81,2.81,0,0,1,0-.3c0-1,.07-1.91.1-2.62,0-.37,0-.7,0-1a2.81,2.81,0,0,1,0-.3,2.53,2.53,0,0,1,0-.29c0-.28,0-.43,0-.43h0a6.74,6.74,0,0,1,.63-.36v0l.84-.48h0l.9-.53,3.38-1.9c1.08-.58,2.11-1.13,3.1-1.64,1.32-.69,2.55-1.31,3.69-1.87l1.64-.78.76-.36a.59.59,0,0,0,.16-.07h0l.8-.36h0l1.68-.75.93-.39c.93-.39,1.65-.67,2.15-.86.09-.05.19-.07.27-.11l.26-.09a1.07,1.07,0,0,1,.24-.09l.11,0c.09-.24.17-.49.26-.74s.2-.52.28-.79c.27-.78.54-1.57.78-2.37s.6-1.91.88-2.88c.2-.66.39-1.32.58-2s.36-1.24.53-1.86c.79-2.83,1.51-5.73,2.18-8.63.14-.58.27-1.17.39-1.75s.31-1.37.45-2.06v0c.28-1.33.55-2.65.81-4,.83-4.15,1.54-8.25,2.16-12.18l.39-2.56c.11-.75.23-1.49.33-2.24.24-1.73.48-3.42.69-5.06.05-.39.1-.77.14-1.15.15-1.17.29-2.32.42-3.44.07-.56.13-1.11.19-1.65s.11-.89.15-1.33.08-.65.11-1a1.79,1.79,0,0,1,0-.24c.06-.54.11-1.08.17-1.59.15-1.53.29-2.93.4-4.17.06-.75.13-1.44.18-2.07a.19.19,0,0,1,0-.08c.1-1.22.18-2.22.24-3v0c0-.51.06-.9.08-1.18s0-.33,0-.38v0H82.45s-17.91,27.19-9,62.93C73.43,338.07,71.72,366.43,70.58,383.38Z" style="fill:#37474f"></path><path d="M139.9,360.12c3.41-2.37,7.09-4.36,10.7-6.4s7.45-4.09,11.3-5.88a185.23,185.23,0,0,1,23.34-8.47c.2-.06.34.26.14.35-7.61,3.27-15,7-22.56,10.37-3.81,1.69-7.65,3.31-11.47,5s-7.53,3.59-11.37,5.19A.09.09,0,0,1,139.9,360.12Z" style="fill:#263238"></path><path d="M160.73,322.86c.09-3.73.35-7.46.54-11.19.43-8.81.77-17.66,1.59-26.44a.28.28,0,0,1,.55,0c.11,6.81-.15,13.64-.29,20.45-.07,3.4-.17,6.81-.26,10.22a96.31,96.31,0,0,0-.07,9.76c.18,2.46.72,7.23,3.93,7.53,3,.27,4.67-3,5.42-5.37,1.92-6.06,2.6-12.61,3.22-18.92.36-3.73.73-7.45,1-11.2a105.38,105.38,0,0,0,.37-11.51c0-.24.36-.23.38,0,.2,3.85,2.08,46.1-8.63,49.34a4,4,0,0,1-1.08.11c0,.79-.14,1.59-.2,2.37-.08,1.23-.24,2.46-.4,3.68a27.32,27.32,0,0,1-.76,3.57,12.8,12.8,0,0,1-1.25,3.41c-.1.17-.33.07-.35-.1a16.69,16.69,0,0,1,.3-3.52c.16-1.2.33-2.41.57-3.59s.46-2.34.7-3.51c.16-.78.27-1.58.42-2.38a5.73,5.73,0,0,1-4.28-3.36C160.76,329.37,160.65,326,160.73,322.86Z" style="fill:#263238"></path><path d="M89.2,312.06c4.4.31,8.75.88,13.17.36a23.05,23.05,0,0,0,11.48-4.5c7.26-5.64,10.45-14.86,12.42-23.51a.15.15,0,1,1,.3,0c-.82,7.51-2.43,15.26-7.28,21.3a23.22,23.22,0,0,1-7.73,6.37,22.55,22.55,0,0,1-10.21,2.1,49.1,49.1,0,0,1-12.23-1.65A.26.26,0,0,1,89.2,312.06Z" style="fill:#263238"></path><path d="M148.21,383.38c0,.19,0,.4,0,.59,0-.21,0-.4,0-.59h.38c.38-5.85,1.26-23.53,1.32-27.52v-.61c0-.15-.63.07-.66.23s0,.34-.06.58c-.4,3.82-1.38,17.5-1.62,22.07-.08,1.74-.17,3.5-.22,5.25Z" style="fill:#263238"></path><path d="M129.84,87c-16.41,14.07-11.84,34.59-18.7,45.72-4.19,6.81-17.84,14-20.55,21.84-4.46,12.88,6.46,17.51,4,24.51-3.46,9.92-16.75,9.15-19.14,25.38s15.47,33.5,57.85,38.18,65.68-10.84,67.2-24.62S187.94,199.7,187,189.41c-.62-6.57,8.09-11.14,8.53-23.24s-11.35-16-13-26.3,3.74-35.23-11.35-48S137.94,80.1,129.84,87Z" style="fill:#263238"></path><path d="M131.74,87.41A34.92,34.92,0,0,0,120.85,100a76.56,76.56,0,0,0-6.06,16.66,46.34,46.34,0,0,1-3.29,10,25.72,25.72,0,0,1-5.69,7c-4.59,4.15-10.06,7.3-14.18,12-3.9,4.41-6.93,10.32-5.38,16.33.85,3.27,3,5.94,4.35,9,1.27,2.89,1.78,6.48-.7,8.89-2.12,2.05-5.19,3-7.6,4.67a26.91,26.91,0,0,0-6.19,6,20.74,20.74,0,0,0-3.9,16.3C74.71,220,87.08,227.48,98.5,232.2q2.39,1,4.79,1.93c.25.1.46-.25.21-.37-11.47-5.13-24.77-11.15-29.17-24a19.32,19.32,0,0,1,2-17,24.49,24.49,0,0,1,6-6.38c2.31-1.7,5-2.74,7.31-4.36a7.81,7.81,0,0,0,3.61-7c-.15-3.09-1.66-5.79-3.16-8.42-1.58-2.78-2.93-5.6-2.7-8.88a17,17,0,0,1,3.39-8.47c3.56-5.05,8.85-8.37,13.58-12.19s8.58-8.29,10.32-14.27c.88-3,1.42-6.13,2.18-9.19a81.61,81.61,0,0,1,2.53-8.38,40,40,0,0,1,9-14.77,23,23,0,0,1,3.5-2.87C132,87.54,131.88,87.31,131.74,87.41Z" style="fill:#263238"></path><path d="M202.4,208a15.92,15.92,0,0,0-2.93-6.17c-1.48-1.86-3.26-3.44-4.89-5.16a12,12,0,0,1-3.47-5.73c-.54-2.71.6-5.31,1.87-7.63a57.86,57.86,0,0,0,3.79-7.39,26.72,26.72,0,0,0,1.62-7.9,27.25,27.25,0,0,0-4.27-15.77c-1.44-2.36-3.07-4.61-4.53-7a33.66,33.66,0,0,1-3.76-8.23c-1.91-6.38-2.32-13.12-3.88-19.58a100.88,100.88,0,0,0-6.89-19.23c-.07-.15-.29,0-.22.14a88.19,88.19,0,0,1,6,17.37c1.34,5.67,1.86,11.45,2.87,17.18a42.71,42.71,0,0,0,2.15,8.26,43.74,43.74,0,0,0,3.68,7.09c2.86,4.67,5.82,9.28,6.61,14.81a26,26,0,0,1-2.73,15.87c-2.23,4.21-5.35,8.86-3.41,13.79,1.65,4.18,5.64,6.68,8.28,10.14a16.73,16.73,0,0,1,2.87,13.4C198.9,228.11,187,234,175.87,234.58a.28.28,0,0,0,0,.55c9.68-.12,20.21-4.37,24.75-13.44A20.5,20.5,0,0,0,202.4,208Z" style="fill:#263238"></path><path d="M150.56,178.43c12.84,23.23,48.77,65,68,67.29,18.4,2.22,59-44.53,63.12-56.47,1.72-5-38-23.8-38-23.8-6.2,7.75-31.82,33.84-34.36,32.82-5-2-37.63-27-49.91-32.36C139.56,157.32,144.49,167.47,150.56,178.43Z" style="fill:#d3766a"></path><path d="M169.46,213.14l13-35.29s-15.66-10.58-25.15-15.22c-12.57-6.13-17.79-2.9-11.14,12.89C150.61,186.09,169.46,213.14,169.46,213.14Z" style="fill:#FFC727"></path><path d="M156.75,164.29a1,1,0,1,1-1-1A1,1,0,0,1,156.75,164.29Zm9.6,16.31a1,1,0,1,0,1,1A1,1,0,0,0,166.35,180.6Z" style="fill:#fff"></path><path d="M167.43,208.33c1.54-5.27,3.15-10.5,5-15.67q1.38-3.87,2.88-7.69c1-2.54,2.25-5,3.21-7.55.05-.14.28,0,.22.09-1.09,2.5-1.85,5.17-2.81,7.73S174,190.37,173.1,193c-1.85,5.14-3.72,10.28-5.45,15.47C167.6,208.56,167.39,208.47,167.43,208.33Z" style="fill:#263238"></path><path d="M146.17,175.53c4.44,10.57,23.29,37.62,23.29,37.62l9.82-26.64-34.47-25.89C142.46,162.48,142.7,167.3,146.17,175.53Z" style="opacity:0.1"></path><path d="M186.1,275.15l-5.7-38.7s11.68-14.55,5.08-28.83c-3.34-7.22-21.64-34.28-32.93-44.5-13.29-12-28-3.61-34.08,3.13-12.15,13.5-26.15,46.67-36,108.9Z" style="fill:#d3766a"></path><path d="M187.5,264.44l-7.1-28s11.68-14.55,5.08-28.83c-3.34-7.22-21.64-34.28-32.93-44.5-13.29-12-29.55-4.19-35.69,2.49C106,177.45,92.32,202.22,82.45,264.44Z" style="fill:#FFC727"></path><path d="M135.5,164.29a1,1,0,1,1-1-1A1,1,0,0,1,135.5,164.29ZM113.22,198.8a1,1,0,1,0,1,1A1,1,0,0,0,113.22,198.8Zm21.25,0a1,1,0,1,0,1,1A1,1,0,0,0,134.47,198.8Zm21.25,0a1,1,0,1,0,1,1A1,1,0,0,0,155.72,198.8Zm21.25,0a1,1,0,1,0,1,1A1,1,0,0,0,177,198.8Zm-53.12-18.2a1,1,0,1,0,1,1A1,1,0,0,0,123.85,180.6Zm21.25,0a1,1,0,1,0,1,1A1,1,0,0,0,145.1,180.6Zm21.25,0a1,1,0,1,0,1,1A1,1,0,0,0,166.35,180.6ZM92,234.33a1,1,0,1,0,1,1A1,1,0,0,0,92,234.33Zm21.25,0a1,1,0,1,0,1,1A1,1,0,0,0,113.22,234.33Zm21.25,0a1,1,0,1,0,1,1A1,1,0,0,0,134.47,234.33Zm21.25,0a1,1,0,1,0,1,1A1,1,0,0,0,155.72,234.33Zm21.25,0a1,1,0,1,0,1,1A1,1,0,0,0,177,234.33Zm-74.37-18.2a1,1,0,1,0,1,1A1,1,0,0,0,102.6,216.13Zm21.25,0a1,1,0,1,0,1,1A1,1,0,0,0,123.85,216.13Zm21.25,0a1,1,0,1,0,1,1A1,1,0,0,0,145.1,216.13Zm21.25,0a1,1,0,1,0,1,1A1,1,0,0,0,166.35,216.13Zm21.13,0a1,1,0,0,0-.91,1,1,1,0,0,0,.9,1ZM102.6,251.66a1,1,0,1,0,1,1A1,1,0,0,0,102.6,251.66Zm21.25,0a1,1,0,1,0,1,1A1,1,0,0,0,123.85,251.66Zm21.25,0a1,1,0,1,0,1,1A1,1,0,0,0,145.1,251.66Zm21.25,0a1,1,0,1,0,1,1A1,1,0,0,0,166.35,251.66Z" style="fill:#fff"></path><path d="M145.4,232.5A99.43,99.43,0,0,1,160,233.83c2.39.43,4.75,1,7.11,1.57,1.18.29,2.36.55,3.54.79a15.48,15.48,0,0,0,3.77.44.09.09,0,1,1,0,.17,26.76,26.76,0,0,1-3.58.19,25.09,25.09,0,0,1-3.46-.39c-2.44-.42-4.85-.95-7.28-1.39-4.9-.88-9.8-1.77-14.75-2.3A.21.21,0,0,1,145.4,232.5Z" style="fill:#263238"></path><path d="M133.69,237.68a108,108,0,0,1,12-1.45c2-.12,4-.13,6-.08,1,0,1.93.07,2.89.12s2.11.25,3.17.3c.11,0,.13.17,0,.17-1,0-2,.15-3,.2l-3,.13c-2,.1-4,.22-6,.3-4,.15-8,.35-12.06.64C133.49,238,133.48,237.72,133.69,237.68Z" style="fill:#263238"></path><path d="M131.7,163.05c.36,2,9.93,14.45,18.91,13,6.32-1,3-13.69,3-13.69l4.91-17.62-21.63-15.35S131.56,162.2,131.7,163.05Z" style="fill:#d3766a"></path><path d="M135,140.89a34.89,34.89,0,0,0,18.85,20.45l4.64-16.63-21.63-15.36Z" style="fill:#263238"></path><path d="M183.18,119.13c2.55,29.86-15,34.76-21.47,35.3-5.85.5-25.81,1.44-31.44-28s7.44-40,20.75-41.89S180.62,89.28,183.18,119.13Z" style="fill:#d3766a"></path><path d="M177.38,113.25a18.85,18.85,0,0,1-2-.67,3.3,3.3,0,0,1-1.87-1.06,1,1,0,0,1,.16-1.29,2.63,2.63,0,0,1,2.66-.3,3.84,3.84,0,0,1,2.25,1.65A1.14,1.14,0,0,1,177.38,113.25Z" style="fill:#263238"></path><path d="M157.3,113.07a20.37,20.37,0,0,0,2-.47,3.36,3.36,0,0,0,2-.87,1.05,1.05,0,0,0,0-1.3,2.64,2.64,0,0,0-2.62-.56,3.86,3.86,0,0,0-2.41,1.42A1.14,1.14,0,0,0,157.3,113.07Z" style="fill:#263238"></path><path d="M162.16,122.3c0-.08-.16.1-.15.19.15,2,0,4.39-1.83,5.15-.06,0-.05.12,0,.11C162.44,127.34,162.63,124.2,162.16,122.3Z" style="fill:#263238"></path><path d="M160.25,120.25c-3.29-.11-3.27,6.48-.22,6.58S163,120.34,160.25,120.25Z" style="fill:#263238"></path><path d="M159,120.6c-.58.38-1.14,1-1.83,1.11s-1.41-.61-1.94-1.27c-.06-.07-.11,0-.11.08,0,1.26.47,2.55,1.83,2.74s2.11-1,2.42-2.23C159.39,120.8,159.19,120.45,159,120.6Z" style="fill:#263238"></path><path d="M173.46,122c0-.08.16.1.16.18-.06,2,.21,4.39,2.06,5.06a.06.06,0,0,1,0,.12C173.41,127,173.08,123.88,173.46,122Z" style="fill:#263238"></path><path d="M175.28,119.82c3.28-.25,3.55,6.33.51,6.57S172.53,120,175.28,119.82Z" style="fill:#263238"></path><path d="M176.59,120.12c.59.35,1.18,1,1.87,1s1.39-.66,1.88-1.35c.06-.07.11,0,.12.07.07,1.26-.36,2.58-1.71,2.82s-2.15-.86-2.52-2.11C176.16,120.33,176.35,120,176.59,120.12Z" style="fill:#263238"></path><path d="M159.78,138.28c.33.6.6,1.37,1.29,1.65a5.49,5.49,0,0,0,2.25.14.07.07,0,0,1,.05.13,2.77,2.77,0,0,1-2.8.31,2.2,2.2,0,0,1-1-2.2C159.57,138.19,159.73,138.19,159.78,138.28Z" style="fill:#263238"></path><path d="M170.12,130.79s.47,3,.49,4.48c0,.14-.34.21-.83.24,0,0,0,0-.06,0a6.81,6.81,0,0,1-6.67-2.45c-.1-.13.07-.29.21-.2a10.26,10.26,0,0,0,6.26,1.69c.1-.4-1-5.18-.74-5.2a12.37,12.37,0,0,1,3.27.69c-.79-6.36-2.59-12.55-3.29-18.89a.2.2,0,0,1,.38-.1c2.35,6.35,3.42,13.65,4.4,20.2C173.68,132.06,170.7,131,170.12,130.79Z" style="fill:#263238"></path><path d="M131.77,123.38c3.2,0,11.93-8.35,13-23.7,0,0-1.89,13.71-3,15.68s4.88-4.68,5.9-17c0,0,6.6,5.3,12.37,7.24s9.35,2.07,9.79,1.67-8-3.56-10.22-6.36c0,0,15.19,8,22.33,9,.83.1,2.7-16.91-8-24.72s-28.69-.89-33.65,3.43c0,0-5.58.5-12,8.4S128.34,123.41,131.77,123.38Z" style="fill:#263238"></path><path d="M172.28,123.16c-.27-5,2.22-9.27,5.55-9.44s6.25,3.77,6.51,8.8-2.23,9.27-5.55,9.44S172.54,128.19,172.28,123.16Zm1.22-.07c.23,4.36,2.57,7.79,5.22,7.65s4.63-3.8,4.4-8.15-2.57-7.79-5.22-7.65S173.27,118.74,173.5,123.09Z" style="fill:#FFC727"></path><path d="M149.34,124.36c-.26-5,3.35-9.32,8-9.57s8.73,3.65,9,8.68-3.34,9.32-8,9.56S149.61,129.39,149.34,124.36Zm1.23-.07c.23,4.36,3.68,7.73,7.71,7.52s7.11-3.93,6.88-8.28-3.69-7.73-7.71-7.52S150.34,119.94,150.57,124.29Z" style="fill:#FFC727"></path><path d="M165.93,122.67c4.48-1.85,6.62-.46,6.64-.45l.7-1c-.1-.07-2.64-1.81-7.81.31Z" style="fill:#FFC727"></path><path d="M150,123.13l0-1.23c-.81,0-19.76.36-21.77.65s-6.44,4-6.93,4.46l.8.92c1.23-1.06,4.68-3.84,6.22-4.15l.09,0C129.94,123.54,143.21,123.25,150,123.13Z" style="fill:#FFC727"></path><path d="M135.35,126.27s-6.53-9.36-10.77-7,.65,15.89,5.63,17.75a5.06,5.06,0,0,0,6.79-2.72Z" style="fill:#d3766a"></path><path d="M126.08,123.09a.07.07,0,0,0,0,.13c3.49,1.42,5.33,4.66,6.61,8-1-1.29-2.45-2-4.18-.77a.11.11,0,0,0,.09.19,3.13,3.13,0,0,1,3.43,1.09,14.93,14.93,0,0,1,1.64,2.78c.16.31.73.15.61-.21l0-.09C134.31,129.78,130.86,123.54,126.08,123.09Z" style="fill:#263238"></path><path d="M216.38,162.77c-26.6,37.15-26.6,85,0,122.21l82.82-61.1Z" style="fill:#FFC727"></path><path d="M275.87,206.67l-.94-.69c1,8.17.58,17.82-5.24,24-3.19,3.42-8.22,2.89-11.87,1.84a41.43,41.43,0,0,1-10.46-5,40.5,40.5,0,0,0,.53-10.35c-.68-9.35-4.33-19-9.52-25.14-4.8-5.71-10.07-7.22-14.11-4.07-2.8,2.19-3.8,5.45-3,9.66,1.88,9.66,13.22,22.69,25.05,30.32a28.86,28.86,0,0,1-8.82,16,33.28,33.28,0,0,1-7.36,5.11,36.72,36.72,0,0,0-8.88-7.81c-8.17-5.1-16-5.5-19.51-1-1.77,2.29-1.15,5.21,1.66,7.82,4.91,4.54,15.7,7.27,26.62,2,5.58,7.1,6.71,15.15,5,21.79l1.17-.86a23.47,23.47,0,0,0-1.73-15.13,31.85,31.85,0,0,0-3.76-6.14,34.28,34.28,0,0,0,7.4-5.15,30,30,0,0,0,9.08-16.1,42.38,42.38,0,0,0,10.41,4.84c5.58,1.6,10,.88,12.75-2.08C276,224.57,276.86,215.41,275.87,206.67ZM204,246.8c-2.44-2.27-3-4.75-1.56-6.65,3.22-4.14,10.6-3.68,18.37,1.18a36,36,0,0,1,8.67,7.42C219,253.74,208.72,251.17,204,246.8Zm42.51-20.44C235,218.79,223.92,206,222.13,196.84c-.76-3.87.14-6.84,2.67-8.82,3.67-2.88,8.38-1.44,12.92,3.95C244.32,199.81,248.69,213.83,246.51,226.36Z" style="opacity:0.1"></path><polygon points="299.2 223.88 308.93 223.88 226.11 162.77 216.38 162.77 299.2 223.88" style="fill:#FFC727"></polygon><g style="opacity:0.1"><polygon points="299.2 223.88 308.93 223.88 226.11 162.77 216.38 162.77 299.2 223.88"></polygon></g><polygon points="216.38 284.98 226.11 284.98 308.93 223.88 299.2 223.88 216.38 284.98" style="fill:#FFC727"></polygon><g style="opacity:0.2"><polygon points="216.38 284.98 226.11 284.98 308.93 223.88 299.2 223.88 216.38 284.98"></polygon></g><path d="M115.07,181c-.87,38.72,6.71,81.27,15.1,87.52,9.23,6.89,26.79,13.76,54.35,20.23,6.07,1.43,14.56-43.66,8.08-45.23-14.94-3.64-37.13-8.74-40.75-12.46-4.17-4.27-8.13-23.73-18.89-48.61C124.72,163.4,115.51,161.35,115.07,181Z" style="fill:#d3766a"></path><path d="M185.61,247.06s15.06-8.1,24.3-9.9c12.36-2.42,24,.58,28.84,2.14,10.05,3.24,32.1,18,28.95,25.12-2.85,6.43-24.63-9.83-24.63-9.83s24.94,12.91,20.08,20-29.06-13.2-29.06-13.2,25.33,13.84,19.16,20.37c-4.66,4.93-27.62-12.23-27.62-12.23s21.69,12,17.11,17.33c-5.05,5.84-27.24-8.67-27.24-8.67-13.89,11.47-25.19,11.25-33.21,10.14C180.34,288.07,185.61,247.06,185.61,247.06Z" style="fill:#d3766a"></path><path d="M234.73,249.57c3,1.41,6,2.82,8.86,4.49s5.65,3.45,8.33,5.37a55.86,55.86,0,0,1,9.71,8.5c-5.56-5.29-15.67-11.43-18.52-13.1s-5.6-3.48-8.45-5.15C234.59,249.64,234.66,249.54,234.73,249.57Z" style="fill:#263238"></path><path d="M228.51,259.75c3.73,2,7.51,3.78,11.16,5.91s6.89,4.45,10.36,6.82c.27.18.08.27-.19.09-3.57-2.22-7-4-10.63-6.18s-7.1-4.51-10.75-6.55C228.4,259.81,228.45,259.72,228.51,259.75Z" style="fill:#263238"></path><path d="M221.6,267.53c5.86,2.71,11.21,6.5,16.37,10.34.26.19,0,.28-.27.1-5.37-3.55-9.57-6.36-16.19-10.24C221.4,267.67,221.48,267.47,221.6,267.53Z" style="fill:#263238"></path><path d="M126.58,263.6a25.8,25.8,0,0,0,2.84,3.67,17.1,17.1,0,0,0,3.67,2.69c2.64,1.61,5.35,3.16,7.93,5a44.93,44.93,0,0,1-8.45-4.12,14.17,14.17,0,0,1-3.69-3.06A15.73,15.73,0,0,1,126.58,263.6Z" style="fill:#263238"></path><path d="M113,221.39,143,198.78s-7.43-17.38-12.9-26.42c-7.23-12-13.37-12.08-16.34,4.8C111.8,188.45,113,221.39,113,221.39Z" style="fill:#FFC727"></path><path d="M114.25,199.82a1,1,0,0,1-1,1,1,1,0,0,1-.59-.2c0-.55,0-1.1,0-1.66a1,1,0,0,1,.58-.19A1,1,0,0,1,114.25,199.82Zm20.22-1a1,1,0,1,0,1,1A1,1,0,0,0,134.47,198.8Zm-10.62-18.2a1,1,0,1,0,1,1A1,1,0,0,0,123.85,180.6Z" style="fill:#fff"></path><path d="M139.37,201.55c.28-.31,3.29-2.73,3.56-2.84-.93-2-1.88-4-2.78-6.07-.45-1-.89-2-1.31-3.07s-1-2.4-1.45-3.4c-.06-.16.13-.26.21-.11.66,1.26,1.11,2.21,1.67,3.3s1,2,1.45,2.95c1,2.1,2.11,4.3,3,6.44a38.55,38.55,0,0,1-4.25,2.91C139.38,201.69,139.33,201.59,139.37,201.55Z" style="fill:#263238"></path><path d="M113.89,216.25c4.14-3.59,8.33-7.12,12.68-10.46q3.26-2.5,6.58-4.91c2.22-1.6,4.61-3,6.79-4.6.12-.09.26.11.14.19-2.27,1.51-4.36,3.34-6.55,5s-4.37,3.28-6.55,5c-4.34,3.31-8.7,6.63-13,10C113.9,216.54,113.78,216.35,113.89,216.25Z" style="fill:#263238"></path><path d="M116.64,218.64c-.57.51-1.15,1-1.73,1.5s-1.16,1-1.76,1.48l-.41.32,0-.54c-.14-2.09-.29-4.17-.36-6.26s-.13-4.19-.14-6.28,0-4.18.07-6.28.16-4.18.34-6.27c.16,2.09.26,4.18.35,6.27s.16,4.18.21,6.27l.1,6.26c0,2.09,0,4.18,0,6.27l-.44-.21c.62-.44,1.26-.86,1.9-1.28S116,219.05,116.64,218.64Z" style="fill:#263238"></path><path d="M110.86,201.14a12.88,12.88,0,0,1,1.26,3,12.46,12.46,0,0,1,.54,3.2,13.95,13.95,0,0,1-1.8-6.18Z" style="fill:#263238"></path><path d="M139.29,187a8.33,8.33,0,0,1,.78,2.14,8.43,8.43,0,0,1,.18,1.12,6.3,6.3,0,0,1,0,1.15,12.54,12.54,0,0,1-.68-2.16A10.59,10.59,0,0,1,139.29,187Z" style="fill:#263238"></path><path d="M232.3,167.12c8.1-.9,19.63-6.22,25.55-4.93a7,7,0,0,1,5.68,6.05s4.79-4.69,10-2.63c2.67,1,3.32,6.24,3.32,6.24s4-3.59,8.51-1.48C288.91,172.05,289,177,289,177s5.45-1.65,8.55,1.23c6.29,5.85-4.84,37.94-18.38,38.8-6.31.4-3.16-7.29-3.16-7.29s-7.2,10-13.87,7.85-2-11.87-2-11.87-7.05,9.59-13.75,6.69c-7-3-.62-12-.62-12s-7.31,5.46-11.93,2.06c-7.63-5.6,7.8-15.39,8.57-23l-10.28-7.93Z" style="fill:#d3766a"></path><path d="M244.64,164.19c-7.75.17-13.28-11.27-20.71-12.17-10.06-1.21-4.54,12.49,8.23,19.54L243,175.29Z" style="fill:#d3766a"></path><path d="M289.16,177.78a.09.09,0,1,1,.17,0c-1.08,11.44-5.79,23.69-13.43,32.37-.25.29-.82,0-.6-.36C281.46,199.36,286.1,189.59,289.16,177.78Z" style="fill:#263238"></path><path d="M276.94,171.72c0-.13.25-.08.24.06-1.19,11.79-6.86,25.44-16.85,34.41-.34.31-1,.25-.59-.14C265.93,199.58,274.24,182.36,276.94,171.72Z" style="fill:#263238"></path><path d="M244.87,200.87c9.24-9,14.68-20,18.63-32.14.05-.16.27-.07.27.07-.32,6.47-3.65,13.94-6.73,19.54a34,34,0,0,1-11.86,12.86C245,201.32,244.67,201.07,244.87,200.87Z" style="fill:#263238"></path><path d="M148.2,384c0-.21,0-.4,0-.59h0C148.21,383.57,148.2,383.78,148.2,384Z" style="fill:#FFC727"></path></g></svg>