<svg xmlns="http://www.w3.org/2000/svg" viewBox="0 0 500 500"><g id="freepik--Floor--inject-24"><path id="freepik--floor--inject-24" d="M85.78,264c-90.7,52.37-90.7,137.26,0,189.63s237.75,52.36,328.44,0,90.7-137.26,0-189.63S176.47,211.65,85.78,264Z" style="fill:#f5f5f5"></path></g><g id="freepik--Window--inject-24"><g id="freepik--window--inject-24"><g id="freepik--window--inject-24"><g id="freepik--Frame--inject-24"><polygon points="474.31 204.49 472.14 205.78 396.05 161.86 398.22 160.57 474.31 204.49" style="fill:#fafafa"></polygon><polygon points="398.22 160.57 472.14 203.23 472.14 65.29 398.22 22.64 398.22 160.57" style="fill:#fff"></polygon><path d="M392,164.23l84.29,48.65v-150L392,14.27Zm4.1-142.86,76.09,43.92V205.78l-76.09-43.92Z" style="fill:#f0f0f0"></path><polygon points="396.05 161.86 398.22 160.57 398.22 22.64 396.05 21.37 396.05 161.86" style="fill:#e0e0e0"></polygon><polygon points="472.14 155.38 472.14 157.93 396.05 114.01 398.22 112.72 472.14 155.38" style="fill:#fafafa"></polygon><polygon points="472.14 105.87 472.14 108.42 396.05 64.5 398.22 63.21 472.14 105.87" style="fill:#fafafa"></polygon><polygon points="391.95 14.27 394.15 13.01 478.45 61.66 476.24 62.92 391.95 14.27" style="fill:#fafafa"></polygon><polygon points="478.45 61.66 476.24 62.92 476.24 212.88 478.45 211.62 478.45 61.66" style="fill:#e0e0e0"></polygon><polygon points="438.33 45.78 436.12 44.51 436.12 185.01 438.33 183.75 438.33 45.78" style="fill:#e0e0e0"></polygon></g><polygon points="432.02 42.15 436.12 44.51 436.12 185.01 432.02 182.63 432.02 42.15" style="fill:#f0f0f0"></polygon><polygon points="391.95 62.14 391.95 66.86 476.24 115.52 476.24 110.79 391.95 62.14" style="fill:#f0f0f0"></polygon><polygon points="391.95 111.64 391.95 116.36 476.24 165.01 476.24 160.29 391.95 111.64" style="fill:#f0f0f0"></polygon><polygon points="436.12 87.64 438.33 86.36 472.14 105.87 472.14 108.42 436.12 87.64" style="fill:#fafafa"></polygon><polygon points="436.12 137.12 438.33 135.85 472.14 155.35 472.14 157.9 436.12 137.12" style="fill:#fafafa"></polygon></g></g></g><g id="freepik--Pictures--inject-24"><g id="freepik--pictures--inject-24"><g id="freepik--Picture--inject-24"><g id="freepik--frame--inject-24"><polygon points="371.33 126.44 369.61 127.47 334.33 107.1 336.05 106.07 371.33 126.44" style="fill:#fafafa"></polygon><polygon points="336.05 106.07 369.61 125.45 369.61 39.99 336.05 20.64 336.05 106.07" style="fill:#fff"></polygon><path d="M331.09,109l41.77,24.12v-95L331.09,14Zm3.24-89.34L369.61,40v87.47L334.33,107.1Z" style="fill:#f0f0f0"></path><polygon points="334.33 107.1 336.05 106.07 336.05 20.64 334.33 19.63 334.33 107.1" style="fill:#e0e0e0"></polygon><polygon points="331.09 14.01 332.83 13.01 374.6 37.12 372.86 38.12 331.09 14.01" style="fill:#fafafa"></polygon><polygon points="374.6 37.12 372.86 38.12 372.86 133.09 374.6 132.09 374.6 37.12" style="fill:#e0e0e0"></polygon></g><g id="freepik--Land--inject-24"><polygon points="338.57 104.06 367.1 120.53 367.1 43.03 338.57 26.56 338.57 104.06" style="fill:#f0f0f0"></polygon></g><g id="freepik--land--inject-24"><polygon points="338.57 104.06 367.1 120.53 367.1 43.03 338.57 26.56 338.57 104.06" style="fill:#f0f0f0"></polygon></g><path d="M367.1,92.87a26.46,26.46,0,0,1-4.08,0,51.44,51.44,0,0,1-13.9-3c-3.45-1.27-6.9-2.92-10.55-3v17.28l3.86,2.24a13.05,13.05,0,0,1,5.3-3c5.5-1.44,11.13,1.32,16.78,2a22.35,22.35,0,0,0,2.59.13Z" style="fill:#fafafa"></path><path d="M367.1,77.67c-6.39-1.89-12.94-3.46-17.49-8.14-3.67-3.78-5.4-9-6.61-14.13S341,45,338.64,40.26c0,0-.05-.1-.07-.14V72.81c.36.54.71,1.07,1.09,1.59,4.2,5.68,10.37,10.42,17.42,10.79,3.31.17,6.74-.61,10-.6Z" style="fill:#fafafa"></path><path d="M367.1,58.69A19.44,19.44,0,0,1,360.78,41c.08-.48.2-1,.32-1.42l-11-6.34c.05.72.08,1.44.1,2.16.12,4.19,0,8.44.9,12.53a24.58,24.58,0,0,0,12.5,16.15,23,23,0,0,0,3.48,1.45Z" style="fill:#fafafa"></path></g><g id="freepik--picture--inject-24"><g id="freepik--frame--inject-24"><polygon points="371.37 177.45 369.66 178.47 334.72 158.29 336.42 157.28 371.37 177.45" style="fill:#fafafa"></polygon><polygon points="336.42 157.28 369.66 176.46 369.66 141.66 336.42 122.48 336.42 157.28" style="fill:#fff"></polygon><path d="M331.51,160.15,372.87,184V139.8l-41.36-23.88Zm3.21-38.67,34.94,20.18v36.81l-34.94-20.18Z" style="fill:#f0f0f0"></path><polygon points="334.72 158.29 336.42 157.28 336.42 122.48 334.72 121.48 334.72 158.29" style="fill:#e0e0e0"></polygon><polygon points="331.51 115.92 333.24 114.93 374.6 138.81 372.88 139.8 331.51 115.92" style="fill:#fafafa"></polygon><polygon points="374.6 138.81 372.88 139.8 372.88 184.03 374.6 183.04 374.6 138.81" style="fill:#e0e0e0"></polygon></g><g id="freepik--land--inject-24"><polygon points="337.72 156.24 368.36 173.93 368.36 165.08 360.7 147.39 355.93 151.81 357.65 159.23 347.07 136.6 337.72 147.39 337.72 156.24" style="fill:#f0f0f0"></polygon><path d="M356.22,138.85a5,5,0,0,1,2.26,3.93c0,1.44-1,2-2.26,1.3a5,5,0,0,1-2.27-3.92C354,138.71,355,138.13,356.22,138.85Z" style="fill:#f0f0f0"></path></g></g></g><g id="freepik--pictures--inject-24"><g id="freepik--picture--inject-24"><g id="freepik--frame--inject-24"><polygon points="40.18 126.44 41.9 127.47 77.19 107.1 75.47 106.07 40.18 126.44" style="fill:#fafafa"></polygon><polygon points="75.47 106.07 41.9 125.45 41.9 39.99 75.47 20.64 75.47 106.07" style="fill:#fff"></polygon><path d="M80.43,14,38.66,38.12v95L80.43,109ZM77.18,107.1,41.9,127.47V40L77.19,19.63Z" style="fill:#f0f0f0"></path><polygon points="77.19 107.1 75.47 106.07 75.47 20.64 77.19 19.63 77.19 107.1" style="fill:#e0e0e0"></polygon><polygon points="80.43 14.01 78.68 13.01 36.91 37.12 38.66 38.12 80.43 14.01" style="fill:#fafafa"></polygon><polygon points="36.91 37.12 38.66 38.12 38.66 133.09 36.91 132.09 36.91 37.12" style="fill:#e0e0e0"></polygon></g><g id="freepik--land--inject-24"><polygon points="72.95 104.06 44.42 120.53 44.42 43.03 72.95 26.56 72.95 104.06" style="fill:#f0f0f0"></polygon></g><g id="freepik--land--inject-24"><polygon points="72.95 104.06 44.42 120.53 44.42 43.03 72.95 26.56 72.95 104.06" style="fill:#f0f0f0"></polygon></g><path d="M44.42,92.87a26.46,26.46,0,0,0,4.08,0,51.28,51.28,0,0,0,13.89-3c3.46-1.27,6.91-2.92,10.56-3v17.28l-3.86,2.24a13.12,13.12,0,0,0-5.3-3c-5.5-1.44-11.13,1.32-16.78,2a22.35,22.35,0,0,1-2.59.13Z" style="fill:#fafafa"></path><path d="M44.42,77.67c6.38-1.89,12.93-3.46,17.49-8.14,3.67-3.78,5.4-9,6.61-14.13s2-10.42,4.35-15.14l.08-.14V72.81c-.36.54-.72,1.07-1.1,1.59-4.19,5.68-10.36,10.42-17.41,10.79-3.31.17-6.74-.61-10-.6Z" style="fill:#fafafa"></path><path d="M44.42,58.69A19.44,19.44,0,0,0,50.74,41c-.09-.48-.2-1-.32-1.42l11-6.34q-.06,1.08-.09,2.16c-.12,4.19,0,8.44-.9,12.53A24.57,24.57,0,0,1,47.89,64.07a22.91,22.91,0,0,1-3.47,1.45Z" style="fill:#fafafa"></path></g><g id="freepik--picture--inject-24"><g id="freepik--frame--inject-24"><polygon points="40.15 177.45 41.85 178.47 76.8 158.29 75.09 157.28 40.15 177.45" style="fill:#fafafa"></polygon><polygon points="75.09 157.28 41.86 176.46 41.86 141.66 75.09 122.48 75.09 157.28" style="fill:#fff"></polygon><path d="M80,115.92,38.64,139.8V184L80,160.15ZM76.8,158.29,41.86,178.47V141.66L76.8,121.48Z" style="fill:#f0f0f0"></path><polygon points="76.8 158.29 75.09 157.28 75.09 122.48 76.8 121.48 76.8 158.29" style="fill:#e0e0e0"></polygon><polygon points="80.01 115.92 78.28 114.93 36.91 138.81 38.64 139.8 80.01 115.92" style="fill:#fafafa"></polygon><polygon points="36.91 138.81 38.64 139.8 38.64 184.03 36.91 183.04 36.91 138.81" style="fill:#e0e0e0"></polygon></g><g id="freepik--land--inject-24"><polygon points="73.8 156.24 43.15 173.93 43.15 165.08 50.81 147.39 55.59 151.81 53.87 159.23 64.45 136.6 73.8 147.39 73.8 156.24" style="fill:#f0f0f0"></polygon><path d="M55.3,138.85A5,5,0,0,0,53,142.78c0,1.44,1,2,2.27,1.3a5,5,0,0,0,2.27-3.92C57.57,138.71,56.55,138.13,55.3,138.85Z" style="fill:#f0f0f0"></path></g></g><g id="freepik--picture--inject-24"><g id="freepik--frame--inject-24"><polygon points="96.68 181.76 98.4 182.78 133.68 162.41 131.97 161.39 96.68 181.76" style="fill:#fafafa"></polygon><polygon points="131.97 161.39 98.4 180.76 98.4 95.31 131.97 75.95 131.97 161.39" style="fill:#fff"></polygon><path d="M136.93,69.32,95.16,93.43v95l41.77-24.12Zm-3.25,93.09L98.4,182.78V95.31l35.28-20.37Z" style="fill:#f0f0f0"></path><polygon points="133.68 162.41 131.97 161.39 131.97 75.95 133.68 74.94 133.68 162.41" style="fill:#e0e0e0"></polygon><polygon points="136.93 69.32 135.18 68.32 93.41 92.44 95.16 93.44 136.93 69.32" style="fill:#fafafa"></polygon><polygon points="93.41 92.44 95.16 93.44 95.16 188.4 93.41 187.4 93.41 92.44" style="fill:#e0e0e0"></polygon></g><g id="freepik--land--inject-24"><polygon points="129.45 159.38 100.92 175.85 100.92 98.34 129.45 81.87 129.45 159.38" style="fill:#f0f0f0"></polygon></g><g id="freepik--land--inject-24"><polygon points="129.45 159.38 100.92 175.85 100.92 98.34 129.45 81.87 129.45 159.38" style="fill:#f0f0f0"></polygon></g><path d="M100.92,148.18a26.47,26.47,0,0,0,4.08,0,51.65,51.65,0,0,0,13.89-3c3.45-1.28,6.9-2.93,10.56-3v17.28l-3.87,2.23a13,13,0,0,0-5.29-2.94c-5.5-1.45-11.14,1.32-16.78,2a22.46,22.46,0,0,1-2.59.13Z" style="fill:#fafafa"></path><path d="M100.92,133c6.38-1.89,12.93-3.46,17.49-8.14,3.67-3.77,5.4-9,6.61-14.13s2-10.42,4.35-15.14l.08-.14v32.69c-.36.54-.72,1.07-1.1,1.59-4.19,5.68-10.36,10.42-17.41,10.79-3.32.17-6.74-.61-10-.59Z" style="fill:#fafafa"></path><path d="M100.92,114a19.43,19.43,0,0,0,6.32-17.7c-.09-.48-.2-1-.32-1.42l11-6.34c0,.72-.07,1.45-.09,2.17-.12,4.19,0,8.43-.9,12.52a24.61,24.61,0,0,1-12.51,16.16,25.15,25.15,0,0,1-3.47,1.45Z" style="fill:#fafafa"></path></g><g id="freepik--picture--inject-24"><g id="freepik--frame--inject-24"><polygon points="96.65 79.1 98.36 80.12 133.29 59.94 131.59 58.93 96.65 79.1" style="fill:#fafafa"></polygon><polygon points="131.59 58.93 98.36 78.11 98.36 43.31 131.59 24.13 131.59 58.93" style="fill:#fff"></polygon><path d="M136.51,17.57,95.14,41.45V85.68L136.51,61.8Zm-3.22,42.37L98.35,80.12V43.31L133.3,23.13Z" style="fill:#f0f0f0"></path><polygon points="133.29 59.94 131.59 58.93 131.59 24.13 133.29 23.13 133.29 59.94" style="fill:#e0e0e0"></polygon><polygon points="136.51 17.57 134.78 16.58 93.41 40.46 95.14 41.45 136.51 17.57" style="fill:#fafafa"></polygon><polygon points="93.41 40.46 95.14 41.45 95.14 85.68 93.41 84.69 93.41 40.46" style="fill:#e0e0e0"></polygon></g><g id="freepik--land--inject-24"><polygon points="130.29 57.89 99.65 75.58 99.65 66.73 107.31 49.04 112.09 53.46 110.37 60.88 120.95 38.25 130.29 49.04 130.29 57.89" style="fill:#f0f0f0"></polygon><path d="M111.8,40.5a5,5,0,0,0-2.27,3.92c0,1.45,1,2,2.27,1.31a5,5,0,0,0,2.26-3.92C114.06,40.36,113.05,39.78,111.8,40.5Z" style="fill:#f0f0f0"></path></g></g></g></g><g id="freepik--Shadows--inject-24"><path id="freepik--Shadow--inject-24" d="M188.35,227.43c-9.37,5.41-9.37,14.18,0,19.59s24.56,5.41,33.93,0,9.37-14.18,0-19.59S197.72,222,188.35,227.43Z" style="fill:#e0e0e0"></path><path id="freepik--shadow--inject-24" d="M435.43,301.35c-8.57,5-8.57,13.12,0,18.13s22.47,5,31,0,8.58-13.12,0-18.13S444,296.35,435.43,301.35Z" style="fill:#e0e0e0"></path><path id="freepik--shadow--inject-24" d="M145.82,375.36,68.37,331.43c-1.55-.88-1.56-2.33,0-3.23l75.2-44.09a6.17,6.17,0,0,1,5.61,0L226.6,328c1.56.88,1.57,2.33,0,3.23l-75.2,44.09A6.15,6.15,0,0,1,145.82,375.36Z" style="fill:#e0e0e0"></path><path id="freepik--shadow--inject-24" d="M407.57,403.9,261.64,488.27a2.16,2.16,0,0,1-1.92,0L75.37,381.59a.59.59,0,0,1,0-1.11L221.3,296.12a2.1,2.1,0,0,1,1.92,0L407.57,402.79A.59.59,0,0,1,407.57,403.9Z" style="fill:#e0e0e0"></path><path id="freepik--shadow--inject-24" d="M356.58,375.74,434,331.81c1.56-.88,1.57-2.33,0-3.23l-75.21-44.09a6.15,6.15,0,0,0-5.6,0L275.8,328.38c-1.56.88-1.57,2.33,0,3.23L351,375.7A6.15,6.15,0,0,0,356.58,375.74Z" style="fill:#e0e0e0"></path><path id="freepik--shadow--inject-24" d="M61.85,301.35c8.57,5,8.57,13.12,0,18.13s-22.47,5-31,0-8.58-13.12,0-18.13S53.28,296.35,61.85,301.35Z" style="fill:#e0e0e0"></path></g><g id="freepik--Plants--inject-24"><g id="freepik--Plant--inject-24"><g id="freepik--Pot--inject-24"><path d="M33.16,313.38c-7-7.27-11.19-25.64-4.31-31.41h35c6.87,5.77,2.74,24.13-4.3,31.4l-.2.2-.24.24a7,7,0,0,1-.64.57l-.17.14c-.17.13-.34.27-.53.4a8.28,8.28,0,0,1-.91.59c-5.79,3.39-15.19,3.39-21,0h0a8.28,8.28,0,0,1-.91-.59c-.18-.12-.34-.25-.5-.38l-.21-.16c-.21-.19-.42-.37-.61-.56l-.28-.27Z" style="fill:#ebebeb"></path><path d="M60.77,279.65c8,4.66,8,12.21,0,16.87s-20.91,4.65-28.89,0-8-12.21,0-16.87S52.8,275,60.77,279.65Z" style="fill:#fafafa"></path><path d="M56.94,281.89c5.86,3.42,5.86,9,0,12.39s-15.36,3.42-21.22,0-5.86-9,0-12.39S51.08,278.47,56.94,281.89Z" style="fill:#ebebeb"></path><path d="M35.72,287.77c5.86-3.42,15.36-3.42,21.22,0A10,10,0,0,1,60.45,291a9.88,9.88,0,0,1-3.51,3.26c-5.86,3.42-15.36,3.42-21.22,0A9.71,9.71,0,0,1,32.21,291,9.78,9.78,0,0,1,35.72,287.77Z" style="fill:#fff"></path></g><path d="M41.54,244.34c-2.36,3-9.45,4.29-13-3-3.32-6.85-6.82-13.32-7.88-15.85a2.67,2.67,0,0,1,1.45-3.57s-.09-3.9,6.69-1.77,11.72,5.76,15.07,12S45.88,243.14,41.54,244.34Z" style="fill:#f0f0f0"></path><path d="M45.15,254.08a37,37,0,0,0-.87-3.89,56.42,56.42,0,0,0-2.76-7.41,56.18,56.18,0,0,0-8.69-13.48A48.15,48.15,0,0,0,26.32,223c-.07-.06-.11.1-.07.14a59.83,59.83,0,0,1,10.37,12.25,60.14,60.14,0,0,1,6.55,14.28c.43,1.41.85,2.82,1.22,4.24s.65,2.92,1,4.37c0,.15.27.22.26,0A27.91,27.91,0,0,0,45.15,254.08Z" style="fill:#e0e0e0"></path><path d="M45.15,254.08a37,37,0,0,0-.87-3.89,56.42,56.42,0,0,0-2.76-7.41,56.18,56.18,0,0,0-8.69-13.48A48.15,48.15,0,0,0,26.32,223c-.07-.06-.11.1-.07.14a59.83,59.83,0,0,1,10.37,12.25,60.14,60.14,0,0,1,6.55,14.28c.43,1.41.85,2.82,1.22,4.24s.65,2.92,1,4.37c0,.15.27.22.26,0A27.91,27.91,0,0,0,45.15,254.08Z" style="opacity:0.1"></path><path d="M49.23,239.1c-6.15,1.91-10.72-2.89-9.14-10.43S49.58,212.78,52.57,215c1.87-1.87,6-1.2,7.91,4.92S60.66,241.77,49.23,239.1Z" style="fill:#e0e0e0"></path><path d="M52.84,219.61a82.43,82.43,0,0,0-4.09,13.53,135.56,135.56,0,0,0-2.38,14.17,222,222,0,0,0-1.23,27.77q0,3.84.1,7.68c0,2.64,0,5.31.24,7.93.08,1,1.52.74,1.53-.18.09-4.61-.16-9.24-.2-13.86s0-9.12.08-13.68a193.61,193.61,0,0,1,2.49-27.73c.44-2.56.93-5.11,1.52-7.63s1.4-5.27,2.09-7.9C53,219.61,52.9,219.47,52.84,219.61Z" style="fill:#e0e0e0"></path><path d="M52.84,219.61a82.43,82.43,0,0,0-4.09,13.53,135.56,135.56,0,0,0-2.38,14.17,222,222,0,0,0-1.23,27.77q0,3.84.1,7.68c0,2.64,0,5.31.24,7.93.08,1,1.52.74,1.53-.18.09-4.61-.16-9.24-.2-13.86s0-9.12.08-13.68a193.61,193.61,0,0,1,2.49-27.73c.44-2.56.93-5.11,1.52-7.63s1.4-5.27,2.09-7.9C53,219.61,52.9,219.47,52.84,219.61Z" style="opacity:0.1"></path><path d="M37.79,259.72c-1.78,3.65-7.79,5-13.22.91s-13.29-23.13-7.34-23.44c.46-2.95,17.69-.95,23.24,11.34C44.51,257.46,37.79,259.72,37.79,259.72Z" style="fill:#e0e0e0"></path><path d="M45,267.73a29.3,29.3,0,0,0-1.76-3.38q-2-3.35-4.28-6.48a78.16,78.16,0,0,0-10.69-11.65,67.84,67.84,0,0,0-6.84-5.57c-.06-.05-.07.1,0,.14,1.94,1.63,3.9,3.23,5.73,5s3.68,3.77,5.38,5.77a97.5,97.5,0,0,1,8.91,12.28c.75,1.23,1.44,2.49,2.2,3.71S45.3,270,46,271.32c.1.19.38.19.28-.07C45.87,270.08,45.49,268.88,45,267.73Z" style="fill:#e0e0e0"></path><path d="M45,267.73a29.3,29.3,0,0,0-1.76-3.38q-2-3.35-4.28-6.48a78.16,78.16,0,0,0-10.69-11.65,67.84,67.84,0,0,0-6.84-5.57c-.06-.05-.07.1,0,.14,1.94,1.63,3.9,3.23,5.73,5s3.68,3.77,5.38,5.77a97.5,97.5,0,0,1,8.91,12.28c.75,1.23,1.44,2.49,2.2,3.71S45.3,270,46,271.32c.1.19.38.19.28-.07C45.87,270.08,45.49,268.88,45,267.73Z" style="opacity:0.1"></path><path d="M49.06,258.17c-3.52-.8-3.7-5,.7-10.21s15.47-7.44,16-5.25c2.46,0,2.46,7.71-3,14.79S49.38,262.93,49.06,258.17Z" style="fill:#e0e0e0"></path><path d="M56,250.64a27.65,27.65,0,0,0-10.18,13.13c-.12.3.4.75.53.42A32.3,32.3,0,0,1,56,250.71S56,250.6,56,250.64Z" style="fill:#e0e0e0"></path><path d="M56,250.64a27.65,27.65,0,0,0-10.18,13.13c-.12.3.4.75.53.42A32.3,32.3,0,0,1,56,250.71S56,250.6,56,250.64Z" style="opacity:0.1"></path><path d="M53.07,283.9c-4.87,2-2.78,7.77,2,12.18a21.77,21.77,0,0,0,14.83,5.34c3.27-.24,4.11-.69,4.11-.69a37.08,37.08,0,0,0,0-8.06,15.59,15.59,0,0,0-11.48-12.36C54.89,278.25,53.07,281,53.07,283.9Z" style="fill:#f0f0f0"></path><path d="M66.56,292.47a39.35,39.35,0,0,0-7.46-6.9c-2.78-1.83-6.47-3.39-9.8-2.25-1.29.44-3.29,1.73-3,3.32,0,.16.31.55.5.34a12.72,12.72,0,0,1,1.75-2.05,5.16,5.16,0,0,1,2.62-1,12.09,12.09,0,0,1,6.82,1.55c3.3,1.75,6,4.46,8.58,7.05C66.55,292.57,66.58,292.49,66.56,292.47Z" style="fill:#e0e0e0"></path><path d="M66.56,292.47a39.35,39.35,0,0,0-7.46-6.9c-2.78-1.83-6.47-3.39-9.8-2.25-1.29.44-3.29,1.73-3,3.32,0,.16.31.55.5.34a12.72,12.72,0,0,1,1.75-2.05,5.16,5.16,0,0,1,2.62-1,12.09,12.09,0,0,1,6.82,1.55c3.3,1.75,6,4.46,8.58,7.05C66.55,292.57,66.58,292.49,66.56,292.47Z" style="opacity:0.1"></path><path d="M34.56,264.86c0-2.07-3.7-6.31-12.83-5.58-4.16.33-8,1.45-11,4.4a6.29,6.29,0,0,0-2,3.67A2.78,2.78,0,0,0,8.88,269a3,3,0,0,0,.79.9c2.19,1.76,5,1.29,7.6,1.95,4,1,12.37,4.65,17.2,2.23S37.45,266.37,34.56,264.86Z" style="fill:#f0f0f0"></path><path d="M42.64,270.55c-5.21-7.12-15.39-7.72-23.34-6.22a31.51,31.51,0,0,0-7.58,2.44s0,.1,0,.08a42.08,42.08,0,0,1,13-2.5,27.26,27.26,0,0,1,12.69,2.4,16.5,16.5,0,0,1,5.11,4C42.63,270.9,42.75,270.69,42.64,270.55Z" style="fill:#e0e0e0"></path><path d="M42.64,270.55c-5.21-7.12-15.39-7.72-23.34-6.22a31.51,31.51,0,0,0-7.58,2.44s0,.1,0,.08a42.08,42.08,0,0,1,13-2.5,27.26,27.26,0,0,1,12.69,2.4,16.5,16.5,0,0,1,5.11,4C42.63,270.9,42.75,270.69,42.64,270.55Z" style="opacity:0.1"></path><path d="M57.79,247.3c-.13,3.5,4.79,5.52,9.55,2.51s9.74-6,14.15-7.1,6.49-4.74,5.1-6.48-3.6-6.13-15.19-4.7-15.7,6.66-17.28,10.35S56.05,248.31,57.79,247.3Z" style="fill:#f0f0f0"></path><path d="M76.65,236.22a12.54,12.54,0,0,0-5,.52,24.74,24.74,0,0,0-4.25,1.52,23.52,23.52,0,0,0-7.25,5.25,19.14,19.14,0,0,0-1.63,2,8.31,8.31,0,0,0-1.24,2c-.08.23.26.6.46.37.57-.67,1-1.47,1.54-2.17a23,23,0,0,1,6.33-5.65,28,28,0,0,1,5-2.41c1-.34,1.91-.62,2.88-.87a9.91,9.91,0,0,1,3.15-.43C76.68,236.35,76.71,236.23,76.65,236.22Z" style="fill:#e0e0e0"></path><path d="M76.65,236.22a12.54,12.54,0,0,0-5,.52,24.74,24.74,0,0,0-4.25,1.52,23.52,23.52,0,0,0-7.25,5.25,19.14,19.14,0,0,0-1.63,2,8.31,8.31,0,0,0-1.24,2c-.08.23.26.6.46.37.57-.67,1-1.47,1.54-2.17a23,23,0,0,1,6.33-5.65,28,28,0,0,1,5-2.41c1-.34,1.91-.62,2.88-.87a9.91,9.91,0,0,1,3.15-.43C76.68,236.35,76.71,236.23,76.65,236.22Z" style="opacity:0.1"></path><path d="M49.48,266.16c-1.63-1.63-6-1.25-8.12,3.55s2.29,10.05,2.78,11.52c2-1.16,3.58-.47,7.13-1.16a8.85,8.85,0,0,0,6.79-8.82C57.83,266.85,56,264,49.48,266.16Z" style="fill:#f0f0f0"></path><path d="M49.42,265.67a6.68,6.68,0,0,0-2.16,2.23,12.25,12.25,0,0,0-1.39,2.69,11.49,11.49,0,0,0-.61,6.11c0,.08.08,0,.07,0a12.63,12.63,0,0,1,1-6,12,12,0,0,1,1.46-2.43c.31-.39.63-.77,1-1.13a5.84,5.84,0,0,0,.93-.93C49.85,266,49.66,265.55,49.42,265.67Z" style="fill:#e0e0e0"></path><path d="M49.42,265.67a6.68,6.68,0,0,0-2.16,2.23,12.25,12.25,0,0,0-1.39,2.69,11.49,11.49,0,0,0-.61,6.11c0,.08.08,0,.07,0a12.63,12.63,0,0,1,1-6,12,12,0,0,1,1.46-2.43c.31-.39.63-.77,1-1.13a5.84,5.84,0,0,0,.93-.93C49.85,266,49.66,265.55,49.42,265.67Z" style="opacity:0.1"></path><path d="M42.78,279.05c-.91-3.46-5.29-5.4-11-5.83a15,15,0,0,0-14.25,7.32c-3,5.12-4.24,9.2-2.42,9.87s9.52,1.74,14.49,2.18,11.17-.45,15.23-4.23S47.52,279.84,42.78,279.05Z" style="fill:#e0e0e0"></path><path d="M43,278.59a15.35,15.35,0,0,0-6.19-.29A28,28,0,0,0,31,279.65a38,38,0,0,0-5.78,2.6c-1,.53-1.93,1.1-2.86,1.69a21.57,21.57,0,0,0-2.56,1.77s0,.15,0,.12c.94-.42,1.82-1,2.72-1.52s1.95-1.08,2.94-1.58a41.2,41.2,0,0,1,5.73-2.43,26.91,26.91,0,0,1,6.08-1.3,37.47,37.47,0,0,1,5.8.14C43.46,279.17,43.23,278.67,43,278.59Z" style="fill:#e0e0e0"></path><path d="M43,278.59a15.35,15.35,0,0,0-6.19-.29A28,28,0,0,0,31,279.65a38,38,0,0,0-5.78,2.6c-1,.53-1.93,1.1-2.86,1.69a21.57,21.57,0,0,0-2.56,1.77s0,.15,0,.12c.94-.42,1.82-1,2.72-1.52s1.95-1.08,2.94-1.58a41.2,41.2,0,0,1,5.73-2.43,26.91,26.91,0,0,1,6.08-1.3,37.47,37.47,0,0,1,5.8.14C43.46,279.17,43.23,278.67,43,278.59Z" style="opacity:0.1"></path><path d="M53.2,270.56c-3.94-3.13-2.62-10.63,11.15-11s23.62,3.19,23.19,7.62c2.21,2.22,1.09,8.43-10.06,10.37S50.36,278.5,53.2,270.56Z" style="fill:#e0e0e0"></path><path d="M81.05,267.2a58.86,58.86,0,0,0-12.3-.71,47.23,47.23,0,0,0-11.37,1.3,17.07,17.07,0,0,0-2.77,1c-.41.2-.82.41-1.21.65s-.66.35-.77.72a.38.38,0,0,0,.41.44,14.63,14.63,0,0,0,2.41-1.2,19.85,19.85,0,0,1,2.38-.86,28.8,28.8,0,0,1,4.79-.95A85.29,85.29,0,0,1,74.25,267c2.26,0,4.52.2,6.78.38C81.1,267.37,81.12,267.22,81.05,267.2Z" style="fill:#e0e0e0"></path><path d="M81.05,267.2a58.86,58.86,0,0,0-12.3-.71,47.23,47.23,0,0,0-11.37,1.3,17.07,17.07,0,0,0-2.77,1c-.41.2-.82.41-1.21.65s-.66.35-.77.72a.38.38,0,0,0,.41.44,14.63,14.63,0,0,0,2.41-1.2,19.85,19.85,0,0,1,2.38-.86,28.8,28.8,0,0,1,4.79-.95A85.29,85.29,0,0,1,74.25,267c2.26,0,4.52.2,6.78.38C81.1,267.37,81.12,267.22,81.05,267.2Z" style="opacity:0.1"></path></g><g id="freepik--plant--inject-24"><g id="freepik--pot--inject-24"><path d="M464.12,313.38c7.05-7.27,11.19-25.64,4.31-31.41h-35c-6.87,5.77-2.74,24.13,4.3,31.4l.2.2.24.24a7,7,0,0,0,.64.57l.16.14c.18.13.35.27.54.4a8.28,8.28,0,0,0,.91.59c5.79,3.39,15.19,3.39,21,0h0a8.39,8.39,0,0,0,.92-.59c.18-.12.33-.25.5-.38l.2-.16c.22-.19.43-.37.62-.56l.28-.27Z" style="fill:#ebebeb"></path><path d="M436.5,279.65c-8,4.66-8,12.21,0,16.87s20.92,4.65,28.9,0,8-12.21,0-16.87S444.48,275,436.5,279.65Z" style="fill:#fafafa"></path><path d="M440.34,281.89c-5.86,3.42-5.86,9,0,12.39s15.36,3.42,21.22,0,5.86-9,0-12.39S446.2,278.47,440.34,281.89Z" style="fill:#ebebeb"></path><path d="M461.56,287.77c-5.86-3.42-15.36-3.42-21.22,0a9.86,9.86,0,0,0-3.51,3.25,9.79,9.79,0,0,0,3.51,3.26c5.86,3.42,15.36,3.42,21.22,0a9.79,9.79,0,0,0,3.51-3.26A9.86,9.86,0,0,0,461.56,287.77Z" style="fill:#fff"></path></g><path d="M455.74,244.34c2.36,3,9.45,4.29,13-3,3.31-6.85,6.82-13.32,7.87-15.85a2.66,2.66,0,0,0-1.44-3.57s.09-3.9-6.69-1.77-11.72,5.76-15.08,12S451.4,243.14,455.74,244.34Z" style="fill:#f0f0f0"></path><path d="M452.13,254.08a34.66,34.66,0,0,1,.87-3.89,55,55,0,0,1,2.76-7.41,55.88,55.88,0,0,1,8.69-13.48A48.15,48.15,0,0,1,471,223c.07-.06.11.1.06.14a58.56,58.56,0,0,0-16.91,26.53c-.43,1.41-.85,2.82-1.22,4.24s-.65,2.92-1,4.37c0,.15-.27.22-.27,0A29.29,29.29,0,0,1,452.13,254.08Z" style="fill:#e0e0e0"></path><path d="M452.13,254.08a34.66,34.66,0,0,1,.87-3.89,55,55,0,0,1,2.76-7.41,55.88,55.88,0,0,1,8.69-13.48A48.15,48.15,0,0,1,471,223c.07-.06.11.1.06.14a58.56,58.56,0,0,0-16.91,26.53c-.43,1.41-.85,2.82-1.22,4.24s-.65,2.92-1,4.37c0,.15-.27.22-.27,0A29.29,29.29,0,0,1,452.13,254.08Z" style="opacity:0.1"></path><path d="M448.05,239.1c6.15,1.91,10.72-2.89,9.14-10.43S447.7,212.78,444.71,215c-1.87-1.87-6-1.2-7.91,4.92S436.62,241.77,448.05,239.1Z" style="fill:#e0e0e0"></path><path d="M444.44,219.61a82.43,82.43,0,0,1,4.09,13.53,133,133,0,0,1,2.37,14.17,220.08,220.08,0,0,1,1.24,27.77c0,2.56-.06,5.12-.1,7.68s0,5.31-.24,7.93c-.09,1-1.52.74-1.54-.18-.09-4.61.17-9.24.21-13.86s0-9.12-.08-13.68a193.61,193.61,0,0,0-2.49-27.73c-.44-2.56-.93-5.11-1.52-7.63s-1.4-5.27-2.09-7.9C444.26,219.61,444.38,219.47,444.44,219.61Z" style="fill:#e0e0e0"></path><path d="M444.44,219.61a82.43,82.43,0,0,1,4.09,13.53,133,133,0,0,1,2.37,14.17,220.08,220.08,0,0,1,1.24,27.77c0,2.56-.06,5.12-.1,7.68s0,5.31-.24,7.93c-.09,1-1.52.74-1.54-.18-.09-4.61.17-9.24.21-13.86s0-9.12-.08-13.68a193.61,193.61,0,0,0-2.49-27.73c-.44-2.56-.93-5.11-1.52-7.63s-1.4-5.27-2.09-7.9C444.26,219.61,444.38,219.47,444.44,219.61Z" style="opacity:0.1"></path><path d="M459.49,259.72c1.78,3.65,7.79,5,13.22.91s13.29-23.13,7.34-23.44c-.46-2.95-17.69-.95-23.24,11.34C452.77,257.46,459.49,259.72,459.49,259.72Z" style="fill:#e0e0e0"></path><path d="M452.28,267.73a29.3,29.3,0,0,1,1.76-3.38q2-3.35,4.28-6.48A78.16,78.16,0,0,1,469,246.22a68.85,68.85,0,0,1,6.83-5.57c.07-.05.08.1,0,.14-1.94,1.63-3.9,3.23-5.73,5s-3.68,3.77-5.38,5.77a97.5,97.5,0,0,0-8.91,12.28c-.75,1.23-1.44,2.49-2.2,3.71s-1.69,2.48-2.42,3.78c-.11.19-.39.19-.29-.07C451.41,270.08,451.79,268.88,452.28,267.73Z" style="fill:#e0e0e0"></path><path d="M452.28,267.73a29.3,29.3,0,0,1,1.76-3.38q2-3.35,4.28-6.48A78.16,78.16,0,0,1,469,246.22a68.85,68.85,0,0,1,6.83-5.57c.07-.05.08.1,0,.14-1.94,1.63-3.9,3.23-5.73,5s-3.68,3.77-5.38,5.77a97.5,97.5,0,0,0-8.91,12.28c-.75,1.23-1.44,2.49-2.2,3.71s-1.69,2.48-2.42,3.78c-.11.19-.39.19-.29-.07C451.41,270.08,451.79,268.88,452.28,267.73Z" style="opacity:0.1"></path><path d="M448.22,258.17c3.52-.8,3.7-5-.7-10.21s-15.47-7.44-16-5.25c-2.46,0-2.46,7.71,3,14.79S447.89,262.93,448.22,258.17Z" style="fill:#e0e0e0"></path><path d="M441.33,250.64a27.65,27.65,0,0,1,10.18,13.13c.12.3-.4.75-.53.42a32.24,32.24,0,0,0-9.67-13.48S441.29,250.6,441.33,250.64Z" style="fill:#e0e0e0"></path><path d="M441.33,250.64a27.65,27.65,0,0,1,10.18,13.13c.12.3-.4.75-.53.42a32.24,32.24,0,0,0-9.67-13.48S441.29,250.6,441.33,250.64Z" style="opacity:0.1"></path><path d="M444.21,283.9c4.87,2,2.78,7.77-2,12.18a21.74,21.74,0,0,1-14.82,5.34c-3.27-.24-4.11-.69-4.11-.69a37.08,37.08,0,0,1,0-8.06,15.58,15.58,0,0,1,11.48-12.36C442.38,278.25,444.21,281,444.21,283.9Z" style="fill:#f0f0f0"></path><path d="M430.72,292.47a39.35,39.35,0,0,1,7.46-6.9c2.77-1.83,6.47-3.39,9.8-2.25,1.29.44,3.29,1.73,3,3.32,0,.16-.31.55-.5.34a12.72,12.72,0,0,0-1.75-2.05,5.16,5.16,0,0,0-2.62-1,12.12,12.12,0,0,0-6.83,1.55c-3.29,1.75-5.95,4.46-8.57,7.05C430.73,292.57,430.7,292.49,430.72,292.47Z" style="fill:#e0e0e0"></path><path d="M430.72,292.47a39.35,39.35,0,0,1,7.46-6.9c2.77-1.83,6.47-3.39,9.8-2.25,1.29.44,3.29,1.73,3,3.32,0,.16-.31.55-.5.34a12.72,12.72,0,0,0-1.75-2.05,5.16,5.16,0,0,0-2.62-1,12.12,12.12,0,0,0-6.83,1.55c-3.29,1.75-5.95,4.46-8.57,7.05C430.73,292.57,430.7,292.49,430.72,292.47Z" style="opacity:0.1"></path><path d="M462.72,264.86c-.05-2.07,3.7-6.31,12.83-5.58,4.16.33,8,1.45,11.05,4.4a6.35,6.35,0,0,1,2,3.67,2.78,2.78,0,0,1-.22,1.61,3,3,0,0,1-.79.9c-2.19,1.76-5,1.29-7.6,1.95-4,1-12.37,4.65-17.2,2.23S459.82,266.37,462.72,264.86Z" style="fill:#f0f0f0"></path><path d="M454.64,270.55c5.21-7.12,15.39-7.72,23.34-6.22a31.51,31.51,0,0,1,7.58,2.44s0,.1,0,.08a42.08,42.08,0,0,0-13-2.5,27.26,27.26,0,0,0-12.69,2.4,16.5,16.5,0,0,0-5.11,4C454.65,270.9,454.53,270.69,454.64,270.55Z" style="fill:#e0e0e0"></path><path d="M454.64,270.55c5.21-7.12,15.39-7.72,23.34-6.22a31.51,31.51,0,0,1,7.58,2.44s0,.1,0,.08a42.08,42.08,0,0,0-13-2.5,27.26,27.26,0,0,0-12.69,2.4,16.5,16.5,0,0,0-5.11,4C454.65,270.9,454.53,270.69,454.64,270.55Z" style="opacity:0.1"></path><path d="M439.49,247.3c.12,3.5-4.79,5.52-9.55,2.51s-9.74-6-14.15-7.1-6.5-4.74-5.1-6.48,3.6-6.13,15.19-4.7,15.69,6.66,17.28,10.35S441.23,248.31,439.49,247.3Z" style="fill:#f0f0f0"></path><path d="M420.63,236.22a12.54,12.54,0,0,1,5,.52,24.74,24.74,0,0,1,4.25,1.52,23.52,23.52,0,0,1,7.25,5.25,20.53,20.53,0,0,1,1.63,2,8.31,8.31,0,0,1,1.24,2c.08.23-.26.6-.46.37-.57-.67-1-1.47-1.54-2.17a23,23,0,0,0-6.33-5.65,28,28,0,0,0-4.95-2.41c-.95-.34-1.91-.62-2.88-.87a10,10,0,0,0-3.16-.43S420.57,236.23,420.63,236.22Z" style="fill:#e0e0e0"></path><path d="M420.63,236.22a12.54,12.54,0,0,1,5,.52,24.74,24.74,0,0,1,4.25,1.52,23.52,23.52,0,0,1,7.25,5.25,20.53,20.53,0,0,1,1.63,2,8.31,8.31,0,0,1,1.24,2c.08.23-.26.6-.46.37-.57-.67-1-1.47-1.54-2.17a23,23,0,0,0-6.33-5.65,28,28,0,0,0-4.95-2.41c-.95-.34-1.91-.62-2.88-.87a10,10,0,0,0-3.16-.43S420.57,236.23,420.63,236.22Z" style="opacity:0.1"></path><path d="M447.8,266.16c1.63-1.63,6-1.25,8.12,3.55s-2.29,10.05-2.78,11.52c-2-1.16-3.58-.47-7.13-1.16a8.85,8.85,0,0,1-6.79-8.82C439.45,266.85,441.31,264,447.8,266.16Z" style="fill:#f0f0f0"></path><path d="M447.86,265.67A6.56,6.56,0,0,1,450,267.9a11.86,11.86,0,0,1,1.4,2.69,11.49,11.49,0,0,1,.61,6.11c0,.08-.08,0-.07,0a12.63,12.63,0,0,0-1-6,12,12,0,0,0-1.46-2.43c-.31-.39-.63-.77-1-1.13a6.36,6.36,0,0,1-.94-.93C447.43,266,447.61,265.55,447.86,265.67Z" style="fill:#e0e0e0"></path><path d="M447.86,265.67A6.56,6.56,0,0,1,450,267.9a11.86,11.86,0,0,1,1.4,2.69,11.49,11.49,0,0,1,.61,6.11c0,.08-.08,0-.07,0a12.63,12.63,0,0,0-1-6,12,12,0,0,0-1.46-2.43c-.31-.39-.63-.77-1-1.13a6.36,6.36,0,0,1-.94-.93C447.43,266,447.61,265.55,447.86,265.67Z" style="opacity:0.1"></path><path d="M454.5,279.05c.91-3.46,5.29-5.4,11-5.83a15,15,0,0,1,14.25,7.32c3,5.12,4.24,9.2,2.42,9.87s-9.52,1.74-14.49,2.18-11.17-.45-15.23-4.23S449.76,279.84,454.5,279.05Z" style="fill:#e0e0e0"></path><path d="M454.29,278.59a15.31,15.31,0,0,1,6.18-.29,28.06,28.06,0,0,1,5.85,1.35,38,38,0,0,1,5.78,2.6c1,.53,1.92,1.1,2.86,1.69a21.57,21.57,0,0,1,2.56,1.77s0,.15,0,.12c-.94-.42-1.82-1-2.72-1.52s-1.95-1.08-2.94-1.58a41.2,41.2,0,0,0-5.73-2.43A26.91,26.91,0,0,0,460,279a37.44,37.44,0,0,0-5.8.14C453.82,279.17,454.05,278.67,454.29,278.59Z" style="fill:#e0e0e0"></path><path d="M454.29,278.59a15.31,15.31,0,0,1,6.18-.29,28.06,28.06,0,0,1,5.85,1.35,38,38,0,0,1,5.78,2.6c1,.53,1.92,1.1,2.86,1.69a21.57,21.57,0,0,1,2.56,1.77s0,.15,0,.12c-.94-.42-1.82-1-2.72-1.52s-1.95-1.08-2.94-1.58a41.2,41.2,0,0,0-5.73-2.43A26.91,26.91,0,0,0,460,279a37.44,37.44,0,0,0-5.8.14C453.82,279.17,454.05,278.67,454.29,278.59Z" style="opacity:0.1"></path><path d="M444.08,270.56c3.94-3.13,2.62-10.63-11.16-11s-23.61,3.19-23.18,7.62c-2.21,2.22-1.09,8.43,10.06,10.37S446.92,278.5,444.08,270.56Z" style="fill:#e0e0e0"></path><path d="M416.22,267.2a59,59,0,0,1,12.31-.71,47.29,47.29,0,0,1,11.37,1.3,17.07,17.07,0,0,1,2.77,1c.41.2.82.41,1.21.65s.66.35.77.72a.38.38,0,0,1-.41.44,14.63,14.63,0,0,1-2.41-1.2,19.85,19.85,0,0,0-2.38-.86,29.21,29.21,0,0,0-4.79-.95A85.29,85.29,0,0,0,423,267c-2.27,0-4.52.2-6.78.38C416.18,267.37,416.16,267.22,416.22,267.2Z" style="fill:#e0e0e0"></path><path d="M416.22,267.2a59,59,0,0,1,12.31-.71,47.29,47.29,0,0,1,11.37,1.3,17.07,17.07,0,0,1,2.77,1c.41.2.82.41,1.21.65s.66.35.77.72a.38.38,0,0,1-.41.44,14.63,14.63,0,0,1-2.41-1.2,19.85,19.85,0,0,0-2.38-.86,29.21,29.21,0,0,0-4.79-.95A85.29,85.29,0,0,0,423,267c-2.27,0-4.52.2-6.78.38C416.18,267.37,416.16,267.22,416.22,267.2Z" style="opacity:0.1"></path></g></g><g id="freepik--Lamp--inject-24"><g id="freepik--lamp--inject-24"><path d="M224.44,232.62h0c0-2.82-1.85-5.65-5.58-7.8-7.47-4.31-19.58-4.31-27,0-3.74,2.15-5.59,5-5.59,7.8h0v2.64h0c.05,2.79,1.92,5.57,5.61,7.7,7.46,4.31,19.57,4.31,27,0,3.68-2.13,5.55-4.91,5.6-7.7h0Z" style="fill:#ebebeb"></path><path d="M191.8,224.82c-7.47,4.31-7.47,11.3,0,15.61s19.57,4.31,27,0,7.46-11.3,0-15.61S199.26,220.51,191.8,224.82Z" style="fill:#f5f5f5"></path><path d="M207.37,81.82h-4.11V231.39h0a1,1,0,0,0,.59.94,3.18,3.18,0,0,0,2.91,0,1,1,0,0,0,.59-.94h0Z" style="fill:#e0e0e0"></path><path d="M230,71.14h0L220.78,37H189.73l-9.06,34.15h0c-1.65,4.52.62,9.4,6.84,12.91,9.83,5.53,25.76,5.53,35.59,0C229.33,80.54,231.6,75.66,230,71.14Z" style="fill:#ebebeb"></path><path d="M194.3,44.29c6.08,3.43,15.95,3.43,22,0s6.09-9,0-12.42-16-3.43-22,0S188.21,40.86,194.3,44.29Z" style="fill:#f5f5f5"></path><path d="M205.32,44.7a19.82,19.82,0,0,1-9.55-2.2c-2.23-1.26-3.46-2.83-3.46-4.42s1.23-3.16,3.46-4.42a21.81,21.81,0,0,1,19.09,0c2.23,1.26,3.46,2.82,3.46,4.42s-1.23,3.16-3.46,4.42A19.81,19.81,0,0,1,205.32,44.7Z" style="fill:#e0e0e0"></path></g></g><g id="freepik--character-2--inject-24"><g id="freepik--Character--inject-24"><g id="freepik--Chair--inject-24"><path d="M290.65,337l11.66-67.3,7.38-.37L294.36,337h0a1,1,0,0,1-.49.66,2.9,2.9,0,0,1-2.63.13.88.88,0,0,1-.58-.78Z" style="fill:#263238"></path><path d="M400.39,258.69h7.39l17.37,69.9h0a.89.89,0,0,1-.54.81,2.9,2.9,0,0,1-2.63,0,1,1,0,0,1-.53-.63h0Z" style="fill:#37474f"></path><path d="M349.28,369.1l.32-75.36,7.38-.37-4,75.72h0a1,1,0,0,1-.49.67,2.94,2.94,0,0,1-2.63.13.89.89,0,0,1-.57-.79Z" style="fill:#37474f"></path><path d="M360.06,235.24h7.39l11.83,74.27h0a.89.89,0,0,1-.54.81,2.9,2.9,0,0,1-2.63,0,1,1,0,0,1-.53-.64h0Z" style="fill:#263238"></path><g id="freepik--chair--inject-24"><path d="M421.66,177.07a41.7,41.7,0,0,1,2.95,13c.85,9.94-2.52,42.15-4.54,56.55h0c-2.93,24.07-6.51,24.11-11.73,28.14-9,6.93-34.76,20.51-43.28,23.86-15.44,6.08-28.06-3.29-37.47-7.94a219.38,219.38,0,0,1-24.92-14.76c-2.35-1.72-3.57-3.45-3.55-5.27,0-.72,0-3.67,0-4.44,0-2.32,2.05-4.81,6.37-7.61,8-5.17,36.8-22,48-28.17a.12.12,0,0,1,.1-.09c8.59-5.21,13.76-40.67,19.71-59.54.13-.4.25-.79.38-1.17s.21-.59.31-.87c.38-1,.76-2,1.17-2.83" style="fill:#EFBC68"></path><path d="M299.12,266.17c0-2.32,2.05-4.81,6.37-7.61,8-5.17,36.8-22,48-28.17a.12.12,0,0,1,.1-.09c8.59-5.21,13.76-40.67,19.71-59.54a36.23,36.23,0,0,1,1.25-3.47c0-.08.07-.16.1-.25l.34-.77c.06-.12.12-.26.17-.38h0a18.07,18.07,0,0,1,4-5.73,8.4,8.4,0,0,1,1.95-1.37l3.5-2c5.84-3.5,13.49.7,23,5.92,5.93,3.25,11,7.12,14.07,14.33h0a41.7,41.7,0,0,1,2.95,13c.85,9.94-2.52,42.15-4.54,56.55h0c-2.93,24.07-6.51,24.11-11.73,28.14-9,6.93-34.76,20.51-43.28,23.86-15.44,6.08-28.06-3.29-37.47-7.94a219.38,219.38,0,0,1-24.92-14.76c-2.35-1.72-3.57-3.45-3.55-5.27C299.14,269.89,299.12,266.94,299.12,266.17Z" style="fill:#EFBC68"></path><path d="M299.12,266.17c0-2.32,2.05-4.81,6.37-7.61,8-5.17,36.8-22,48-28.17a.12.12,0,0,1,.1-.09c8.59-5.21,13.76-40.67,19.71-59.54a36.23,36.23,0,0,1,1.25-3.47c0-.08.07-.16.1-.25l.34-.77c.06-.12.12-.26.17-.38h0a18.07,18.07,0,0,1,4-5.73,8.4,8.4,0,0,1,1.95-1.37l3.5-2c5.84-3.5,13.49.7,23,5.92,5.93,3.25,11,7.12,14.07,14.33h0a41.7,41.7,0,0,1,2.95,13c.85,9.94-2.52,42.15-4.54,56.55h0c-2.93,24.07-6.51,24.11-11.73,28.14-9,6.93-34.76,20.51-43.28,23.86-15.44,6.08-28.06-3.29-37.47-7.94a219.38,219.38,0,0,1-24.92-14.76c-2.35-1.72-3.57-3.45-3.55-5.27C299.14,269.89,299.12,266.94,299.12,266.17Z" style="fill:#fff;opacity:0.25"></path><path d="M327.6,286.17a220.67,220.67,0,0,1-24.92-14.77c-5.35-3.89-4.86-7.86,2.81-12.84,10.66-6.91,54.09-31.56,54.09-31.56s54.91,32.41,52.55,38.39-36.35,24.5-47.06,28.71C349.63,300.18,337,290.81,327.6,286.17Z" style="fill:#EFBC68"></path><path d="M327.6,286.17a220.67,220.67,0,0,1-24.92-14.77c-5.35-3.89-4.86-7.86,2.81-12.84,10.66-6.91,54.09-31.56,54.09-31.56s54.91,32.41,52.55,38.39-36.35,24.5-47.06,28.71C349.63,300.18,337,290.81,327.6,286.17Z" style="fill:#fff;opacity:0.6000000000000001"></path><path d="M381.05,158.79c5.78-3,13.29,1.09,22.58,6.18,6,3.26,11,7.13,14.11,14.36l3.92-2.26c-3.08-7.21-8.14-11.08-14.07-14.33-9.55-5.22-17.2-9.42-23-5.92Z" style="fill:#EFBC68"></path><path d="M381.05,158.79c5.78-3,13.29,1.09,22.58,6.18,6,3.26,11,7.13,14.11,14.36l3.92-2.26c-3.08-7.21-8.14-11.08-14.07-14.33-9.55-5.22-17.2-9.42-23-5.92Z" style="fill:#fff;opacity:0.5"></path><path d="M353.55,230.3s5.6,1.84,25.57,11.65c8.2,4,13.59,8.08,21.27,12.92,11.3,7.11,10.44,12.39,10.44,12.39,5.62-4.65,11.22-58.65,9.84-75a41.11,41.11,0,0,0-3.22-13.6c-.15-.32-.3-.63-.46-.95l-.33-.65c-.05-.1-.11-.2-.17-.3a25.63,25.63,0,0,0-1.42-2.27c-.13-.18-.25-.36-.38-.53l-.39-.52-.4-.5-.35-.4a23.75,23.75,0,0,0-2-2.1c-.17-.18-.35-.34-.53-.5a32.66,32.66,0,0,0-3.58-2.71c-.19-.14-.38-.26-.58-.38s-.51-.33-.78-.49l-.66-.4c-.58-.34-1.16-.67-1.76-1-7.1-3.89-13.16-7.22-18.21-7.22a9.4,9.4,0,0,0-6.32,2.41c-3.73,3.28-5.71,10.2-5.84,10.6C367.31,189.63,362.14,225.09,353.55,230.3Z" style="fill:#EFBC68"></path><path d="M353.55,230.3s5.6,1.84,25.57,11.65c8.2,4,13.59,8.08,21.27,12.92,11.3,7.11,10.44,12.39,10.44,12.39,5.62-4.65,11.22-58.65,9.84-75a41.11,41.11,0,0,0-3.22-13.6c-.15-.32-.3-.63-.46-.95l-.33-.65c-.05-.1-.11-.2-.17-.3a25.63,25.63,0,0,0-1.42-2.27c-.13-.18-.25-.36-.38-.53l-.39-.52-.4-.5-.35-.4a23.75,23.75,0,0,0-2-2.1c-.17-.18-.35-.34-.53-.5a32.66,32.66,0,0,0-3.58-2.71c-.19-.14-.38-.26-.58-.38s-.51-.33-.78-.49l-.66-.4c-.58-.34-1.16-.67-1.76-1-7.1-3.89-13.16-7.22-18.21-7.22a9.4,9.4,0,0,0-6.32,2.41c-3.73,3.28-5.71,10.2-5.84,10.6C367.31,189.63,362.14,225.09,353.55,230.3Z" style="fill:#fff;opacity:0.4"></path></g></g><g id="freepik--character--inject-24"><g id="freepik--Bottom--inject-24"><path d="M313.58,314.52s8.65,15.41,10,21.74c1.45,6.6,3.45,8.55,3.49,16,0,1.62-.32,4.91-.33,6.22a1.94,1.94,0,0,0,2.14,2.09c3,.15,7-6,8.42-12.29a173,173,0,0,0,2.43-21.7,9.09,9.09,0,0,0-1.69-4.52,15.1,15.1,0,0,0-1.75-2.2c-1.45-2.74-2.82-8.18-4.27-11.86Z" style="fill:#c8856a"></path><path d="M346.52,331.71a6.91,6.91,0,0,1,1.15,2.06c.29,1.32-2.06,6.16-3,7.94a10.55,10.55,0,0,0-1,7.9c.87,4.22-.38,8.61-2.61,12.54a29.79,29.79,0,0,1-13.27,11.78c-6.8,3.26-9.9.13-9.9.13s-2.78-3-1.67-4.63S346.52,331.71,346.52,331.71Z" style="fill:#263238"></path><path d="M336.32,319.82c.22,0,.59-.16,1.26.42.25.21,2.07,3.16,3.43,4.65s4.71,4.19,5.51,6.82c-.8,5.45-5.19,9.84-5.14,14.86s.91,10.72-5.81,17.91-14.54,9-17.64,7.87-3.34-4.17-.3-10.47c3.22-6.68,3.92-20.19,3.92-20.19a42.91,42.91,0,0,0-.16-5.67c-.15-1.82-1-3.65-1.44-5.42a4.05,4.05,0,0,1,0-2.55,4.28,4.28,0,0,1,1.88-1.76,19.16,19.16,0,0,1,3.74-1.92,6.59,6.59,0,0,1,4.16-.15,27.41,27.41,0,0,0,2.8,1.2,3.73,3.73,0,0,0,3.68-1.24,3.05,3.05,0,0,0,.46-3.56A8.32,8.32,0,0,0,336.32,319.82Z" style="fill:#37474f"></path><path d="M339.28,359s-3.95-5.48-12.13-4.19-10.33,5.8-11.18,8.39c-1,3.08-1.71,8.48,1.9,9.45,3.91,1,8.05-.11,14.16-4.39S339.28,359,339.28,359Z" style="fill:#fafafa"></path><path d="M333.85,335.09a.87.87,0,0,1-.75.12c-1.37-.44-8.27-.78-11.59,3.35-.56-.32-.58-1.05-.1-2.17,4.09-3.54,10.62-3.24,12.27-2.72a.78.78,0,0,1,.49,1A.8.8,0,0,1,333.85,335.09Z" style="fill:#fafafa"></path><path d="M321.44,343.36a2.45,2.45,0,0,1,.11-2.28c4.1-3.07,10.17-2.78,11.75-2.28a.77.77,0,0,1,.5,1,.87.87,0,0,1-.33.4.83.83,0,0,1-.75.11C331.4,339.91,324.85,339.59,321.44,343.36Z" style="fill:#fafafa"></path><path d="M319.87,354.68a4.51,4.51,0,0,1,.57-3.05c4.1-3.38,10.48-3.09,12.11-2.57a.76.76,0,0,1,.49,1,.87.87,0,0,1-.32.41.9.9,0,0,1-.75.11C330.53,350.13,322.92,349.78,319.87,354.68Z" style="fill:#fafafa"></path><path d="M333.09,345.35a.88.88,0,0,1-.74.11c-1.35-.43-8.12-.76-11.47,3.23a2.79,2.79,0,0,1,.29-2.48c4.11-3.08,10.18-2.79,11.76-2.28a.77.77,0,0,1,.49,1A.84.84,0,0,1,333.09,345.35Z" style="fill:#fafafa"></path><path d="M308.36,338.06s-.77,15.28-1.45,27.09c-.5,8.58-7,12.45-12.35,18.1-1.16,1.24-3.81,3.5-4.76,4.5a2,2,0,0,0,.11,3.09c2.24,2.25,12,3.17,17.58-.63s10.86-12.16,14.22-15.26c1.27-1.17,2.46-2.37,3.6-3.64s.85-2.45,1-3.87c.06-.69,0-2.57,0-2.57.86-3.34,3.41-13.55,4.59-16.78Z" style="fill:#c8856a"></path><path d="M327.77,380.05a7.06,7.06,0,0,1-.33,2.43c-.58,1.28-5.62,3.91-7.53,4.83a11.22,11.22,0,0,0-5.81,6c-1.92,4.07-5.74,7-10.1,8.93a32.08,32.08,0,0,1-18.65,1.78c-7.81-1.43-8.46-5.94-8.46-5.94s-.43-4.25,1.51-4.91S327.77,380.05,327.77,380.05Z" style="fill:#263238"></path><path d="M326.64,363.83c.2.1.6.23.8,1.12.08.34-.24,3.93,0,6s1.34,6.39.36,9.09c-4.12,4.08-10.59,5.08-13.7,9.33s-6,9.55-16.21,11.48-18-1.31-19.88-4.17-.19-5.55,6.34-9c6.94-3.64,16-14.55,16.05-14.56a45.75,45.75,0,0,0,3.43-4.86c1-1.61,1.46-3.67,2.21-5.42a4.22,4.22,0,0,1,1.56-2.17,4.65,4.65,0,0,1,2.7-.33,20.19,20.19,0,0,1,4.38.68,6.72,6.72,0,0,1,3.6,2.41c.61.87.93,1.92,1.62,2.73a4,4,0,0,0,3.89,1.2,3.24,3.24,0,0,0,2.64-2.71S326.64,363.83,326.64,363.83Z" style="fill:#37474f"></path><path d="M304.47,398.51s.1-7-7.62-10.93-12.39-1.45-14.74.2c-2.8,2-6.8,6.08-4.35,9.1,2.65,3.26,6.87,4.83,14.74,5S304.47,398.51,304.47,398.51Z" style="fill:#fafafa"></path><path d="M314.92,375.14a.89.89,0,0,1-.7-.36c-.88-1.2-6.51-5.71-11.92-4.26-.28-.62.18-1.25,1.29-1.9,5.68-.46,11,3.78,12.09,5.23a.8.8,0,0,1-.23,1.15A.92.92,0,0,1,314.92,375.14Z" style="fill:#fafafa"></path><path d="M299.22,374.49a2.6,2.6,0,0,1,1.52-1.84c5.41-.07,10.36,3.88,11.38,5.27a.79.79,0,0,1-.22,1.15.93.93,0,0,1-.53.15.9.9,0,0,1-.7-.37C309.81,377.69,304.47,373.42,299.22,374.49Z" style="fill:#fafafa"></path><path d="M290.75,383a4.86,4.86,0,0,1,2.41-2.21c5.6-.33,10.82,3.81,11.86,5.24a.79.79,0,0,1-.22,1.15.85.85,0,0,1-.53.14.89.89,0,0,1-.7-.36C302.64,385.73,296.42,380.79,290.75,383Z" style="fill:#fafafa"></path><path d="M307.82,383.29a.92.92,0,0,1-.7-.36c-.87-1.19-6.39-5.6-11.74-4.3a3,3,0,0,1,1.81-1.9c5.41-.08,10.37,3.88,11.38,5.27a.79.79,0,0,1-.22,1.15A.92.92,0,0,1,307.82,383.29Z" style="fill:#fafafa"></path><path d="M344.22,222.36S312.89,239,298,254.39c-5.33,5.51-8.65,10.33-3.1,24.61,4.28,11,11.68,23.13,18.51,37.36L379.22,239Z" style="fill:#455a64"></path><path d="M312.48,314.45c10.22-9.24,42.43-62.17,42.43-62.17l-1.46-.23c-7.93-3.48-11.16-14.24-11.16-14.24-1,4.29.78,10.41,3.43,13.7-4.48,3.27-14.61,10.7-30.17,22.33-2.71,2-8.18,5.85-7.85,13.41.43,9.88.74,19.58.74,19.58Z" style="fill:#37474f"></path><path d="M344.4,222.51h0l63.75,7.38c0,7.78-1.19,23.13-7.07,31.89-4.27,6.36-9,10.22-25.55,18.9-15.44,8.09-29.25,14.83-32.78,16.73-2.66,1.43-2.17,7.39-3,14.4-.85,7.36-1.63,11.46-5.69,27.18-2,7.63-4,14.22-4,14.22s-12.86,1.41-22.42-3.72c0,0,1.59-38.66,2.1-48.14.44-8.11-.09-15.65,6.11-21.68,5.32-5.18,37.83-27.48,37.83-27.48S338.84,237,344.4,222.51Z" style="fill:#455a64"></path><path d="M401.36,231l-.9-.13c-.37,10.67-1.84,18.76-9.54,26.6-4.89-3.3-3.88-6.37-2.05-11.84.56-1.65,1.18-3.52,1.71-5.64a55.69,55.69,0,0,0,1.7-10.36l-.91-.14a54.15,54.15,0,0,1-1.66,10.29c-.52,2.07-1.14,3.93-1.69,5.56-1.83,5.46-3,9.12,2.25,12.78a52.2,52.2,0,0,1-6.24,5.14c-11.47,8.15-27.67,17.72-37.35,23.44-3.38,2-6.05,3.58-7.43,4.45-5.61,3.56-5.77,5.67-5.58,15.08.16,8.24-5.51,35.74-8.41,47h.92c2.94-11.48,8.55-38.77,8.39-47-.19-9.52.12-11.1,5.16-14.3,1.37-.87,4-2.44,7.41-4.44,9.69-5.72,25.91-15.3,37.42-23.48C398.65,254,400.89,244.54,401.36,231Z" style="fill:#37474f"></path></g><g id="freepik--Top--inject-24"><path d="M344.59,196.05l-20.26,11.13a15.77,15.77,0,0,1-.72-10.54c2.46-9.2,12.67-33.55,16.82-41.07s12.42-14.64,25-12.82l-5.33,19.73Z" style="fill:#455a64"></path><path d="M345.62,169.24c1.93-18.77,10.23-25.94,19.82-26.49,0,0,13.63.92,21.16,2.45,9.17,1.85,13.75,3.49,21.1,5.81,3.6,1.93,4.18,14.19,4.1,27.49-.06,9.46-.91,26.24-1.54,38.17s-1.52,20.43-3.22,32.76c-13.29,4.25-55.89-3.57-65.71-26.05,1.38-3.23,2.4-14.37,2.65-20.7S345,175.13,345.62,169.24Z" style="fill:#f0f0f0"></path><g id="freepik--Head--inject-24"><path d="M389.16,138.4c.91-5.26,6.15-10.73,8.52-15.31,2.28-4.42,3.64-7.85,3.39-12-.14-2.47-1.69-5.81-3.51-6.51,2.13-9.14-4.73-13.41-8.37-14.28a39.65,39.65,0,0,1-5-1.42c-2-.83-2.43-2.43-4-3.79-2.75-2.34-7.38-2.4-9.16,1.13-1.82-2.37-4.31-2.32-7.18-1.6A4.91,4.91,0,0,0,360,90.15c-3.83-2.15-7.35.55-7.71,2.81-.26,1.66.09,3.06-1,4.55-1.23,1.68-3.55,1.65-4.25.29-.4,2.36.52,4.17,3.09,4a5.33,5.33,0,0,0-.68,4.51,4.89,4.89,0,0,0,4.42,3.39,8.49,8.49,0,0,0,1.13,3.61,8.6,8.6,0,0,0,3,2.73c3.87,1.85,8.17,2.47,12.35,3.34l5,1c.28.06,1.78.15,2,.41Z" style="fill:#263238"></path><path d="M395.55,131.61c-3.7,2.2-6.2-.2-6.2-.2l.23,17.35c-2.9,7.41-15.59,8.63-20.19,6.53s-4-4.85-1-9l-.31-2.84a50.77,50.77,0,0,1-6.26-.29c-4.12-.57-7.59-4.57-8.76-9a39.5,39.5,0,0,1-.09-17.05,12.58,12.58,0,0,0,.23-4.33c-.39-3.83.31-6.06,1.31-9.28,4.54-3.65,15-4.87,24.81,1.1-1.14,5.82,1.11,10.44,5.34,12.67-.2,1.57-.4,5.54,2.18,5.47,1.86,0,2-2.38,3.91-4.43s6.37-2.6,8.09.44C401.23,123,399.6,129.2,395.55,131.61Z" style="fill:#c8856a"></path><path d="M379.15,114.16l12.38,3.42a5,5,0,0,0-1.8,2l-10.8-2.53Z" style="fill:#263238"></path><path d="M349.29,112.07a3.31,3.31,0,0,0,.51,1.84,1.47,1.47,0,0,1,.21.66,32.81,32.81,0,0,0,.37,4.94,5,5,0,0,0,4.63,4,7.12,7.12,0,0,0,1.78,0h.13a5.14,5.14,0,0,0,1.51-.44l.09,0,.13-.07.17-.09.16-.1.17-.11.16-.12.32-.26a7.39,7.39,0,0,0,1.38-1.75c1-1.63,1.07-4,2.31-4.16h.3c1.64.19,1.14,2.74,1.84,4.69a6.13,6.13,0,0,0,5.64,4.38l.47,0,.38,0a8.14,8.14,0,0,0,.88,0l.28,0,.27,0,.17,0a5,5,0,0,0,1-.38l.35-.19a4.64,4.64,0,0,0,.61-.46,5.84,5.84,0,0,0,1.26-1.63c.69-1.24,1.05-3.56,1.44-4.73a2,2,0,0,1,.34-.67,3.25,3.25,0,0,0,1-1.63,1.51,1.51,0,0,0-.85-1.6l-.85-.2c-2.75-.62-6.36-1.14-8.6-.76-2.81.48-3.87,1.27-5.39,1.09s-2.22-1.18-4.69-2.3c-2-.88-5.34-1.2-8-1.22h-.81C349.93,110.68,349.36,111.31,349.29,112.07ZM367,115.61a2.41,2.41,0,0,1,.86-.56L368,115l.09,0,.4-.15.38-.11a10.15,10.15,0,0,1,1.2-.25l.48-.07c.4,0,.81-.07,1.22-.07h.28c2.65,0,4.23.84,4.77,1.45s0,3.09-.33,4.34l0,.09,0,.1c0,.15-.1.32-.16.51l-.12.31h0a4.61,4.61,0,0,1-.23.52h0l-.09.18-.06.1a.75.75,0,0,1-.07.12,1.09,1.09,0,0,1-.08.15l-.11.16-.13.17-.13.17a4.18,4.18,0,0,1-3.93,1.44,5,5,0,0,1-3.78-1.95h0a5.85,5.85,0,0,1-1-2.72C366.41,118,366.42,116.33,367,115.61Zm-15.3-2.86a2.4,2.4,0,0,1,.7-.35l.06,0,.3-.08.18,0,.15,0,.1,0h.19a4,4,0,0,1,.61,0h.69l.42,0,.15,0,.14,0c.38,0,.77.13,1.2.23,1.83.46,3.67,1.54,4.08,2.37s.08,2.47-.36,3.86a6.17,6.17,0,0,1-.36.92l0,.08,0,.09,0,.06a.41.41,0,0,1-.07.11l-.13.23a2.14,2.14,0,0,1-.13.19l0,.07-.1.12-.09.11a0,0,0,0,1,0,0,5,5,0,0,1-6.15.77c-1.75-1.18-1.91-3.4-2-4.42C351.07,115.75,351.08,113.23,351.72,112.75Z" style="fill:#37474f"></path><path d="M365.06,119.24l-2,9-6.2-3.24.8-1.15c.14-.2.28-.4.41-.61.26-.37.51-.75.78-1.13.72-1,1.43-2,2.11-2.89.37-.47.78-1,1.15-1.36a11.55,11.55,0,0,1,.92-1,6.92,6.92,0,0,1,.61-.52C364.76,116.52,364.87,117.81,365.06,119.24Z" style="fill:#af6152"></path><path d="M368.87,129.72a.53.53,0,0,0-.33,0,3,3,0,0,0-.86.51,10.25,10.25,0,0,1-3.28,1.49,6.75,6.75,0,0,1-.76.14l-.87.13a.43.43,0,0,0-.27.1c-.51.45,1.08.48,1.23.47a7.94,7.94,0,0,0,1.82-.21,7.17,7.17,0,0,0,3.22-1.67,1,1,0,0,0,.33-.45.43.43,0,0,0-.16-.51Z" style="fill:#af6152"></path><path d="M368.06,143.45c6.54-.75,11.51-1.45,14.93-6.19a40.67,40.67,0,0,0,3.95-7.74s-.68,5.79-2.82,9.71c-1.65,3-5.55,5.68-15.81,6.55Z" style="fill:#af6152"></path><path d="M368.83,118.36a1.84,1.84,0,1,0,1.93-1.82A1.88,1.88,0,0,0,368.83,118.36Z" style="fill:#263238"></path><path d="M371.44,110.7l4.24,1.51a2.37,2.37,0,0,0-1.41-2.95A2.21,2.21,0,0,0,371.44,110.7Z" style="fill:#263238"></path><path d="M354.81,110.54l4.5-.5a2.17,2.17,0,0,0-2.41-2A2.38,2.38,0,0,0,354.81,110.54Z" style="fill:#263238"></path><path d="M354.81,116.61a1.84,1.84,0,1,0,1.77-2A1.87,1.87,0,0,0,354.81,116.61Z" style="fill:#263238"></path></g><path d="M407.7,151c9.72,3,14,13.21,11.92,23.25-2.78,13.74-9.6,31.26-13.87,39.91-3.76,7.61-5.66,8.67-9.54,9.25l-5.79-30.52,8-22.64S403.27,153,407.7,151Z" style="fill:#455a64"></path><g id="freepik--Hand--inject-24"><path d="M386.6,165.46c-1.29-7.31-.83-10.67-3.11-14.26a71.92,71.92,0,0,0-6.93-8.16c-1.37-1.33-4.14-3.16-6.33-5s-2.84-2.33-5.5-2.28c-3.65,0-6.54,0-7.85.69s-1.1,1.58.33,2.58,4,.84,4.87.93,2.7.53,2.7.53l4.17,4.23s-5.38,2.05-6.36,2.85-1.39,3.79-.62,5.26c0,0-1.79,1.76-.62,3.62,0,0-1,1.86.15,3a22,22,0,0,0,4,3.07c.79.46,3.49.11,3.49.11a29.6,29.6,0,0,0,1.53,5c1.44,3.07,3,3.3,3.65,6Z" style="fill:#c8856a"></path><path d="M386.6,165.46c-.44-2.41-.74-4.85-1.05-7.28a16.12,16.12,0,0,0-2.12-6.93,58.54,58.54,0,0,0-4.63-5.68c-.83-.9-1.65-1.82-2.53-2.65s-1.89-1.54-2.87-2.27-2-1.46-2.93-2.24a14.56,14.56,0,0,0-2.94-2.11,8.52,8.52,0,0,0-3.57-.39c-1.22,0-2.45,0-3.67.09a8.67,8.67,0,0,0-3.5.68,1.36,1.36,0,0,0-.57.57.75.75,0,0,0,.11.73,3.69,3.69,0,0,0,1.31,1.13,9,9,0,0,0,3.52.66c.31,0,.61,0,.93,0l.91.17,1.81.36h0l0,0,4.17,4.24.14.15-.19.07c-1.94.76-3.9,1.52-5.75,2.46a2.9,2.9,0,0,0-1.48,2.47,5.31,5.31,0,0,0,.29,3l0,.07-.06.06a3.78,3.78,0,0,0-.92,1.66,2.39,2.39,0,0,0,.32,1.82l0,0,0,.06a2.81,2.81,0,0,0,0,2.71,13,13,0,0,0,2.18,1.94c.39.29.79.58,1.2.85a3.16,3.16,0,0,0,1.28.64,12.9,12.9,0,0,0,2.91-.05h.07l0,.07a21.94,21.94,0,0,0,1.9,5.82,14.78,14.78,0,0,0,1.82,2.48,6.16,6.16,0,0,1,1.38,2.73,6.06,6.06,0,0,0-1.41-2.7,14.87,14.87,0,0,1-1.85-2.47,22.33,22.33,0,0,1-2-5.83l.08.05a11.28,11.28,0,0,1-3,.07,3.39,3.39,0,0,1-1.35-.65l-1.21-.85a13.81,13.81,0,0,1-2.23-2,3,3,0,0,1,0-2.93v.1a2.64,2.64,0,0,1-.35-2,3.93,3.93,0,0,1,1-1.77l0,.13a6.26,6.26,0,0,1,.11-4.68,2.32,2.32,0,0,1,1.15-1.12c1.88-1,3.82-1.72,5.77-2.49l0,.22-4.18-4.22.07,0L363,140.3l-.9-.17c-.29,0-.6,0-.9,0a8.88,8.88,0,0,1-3.65-.69,3.93,3.93,0,0,1-1.44-1.25,1.06,1.06,0,0,1-.12-1,1.6,1.6,0,0,1,.7-.71,8.72,8.72,0,0,1,3.64-.71c1.23-.05,2.45-.06,3.68-.07a8.82,8.82,0,0,1,3.67.42,14.82,14.82,0,0,1,3,2.17c.94.77,1.92,1.5,2.9,2.24s2,1.46,2.89,2.29,1.7,1.77,2.52,2.68a57.85,57.85,0,0,1,4.63,5.72,15.88,15.88,0,0,1,2.06,7C385.92,160.61,386.19,163,386.6,165.46Z" style="fill:#af6152"></path><path d="M366.54,145.69c-1.42-.33-1.88-1.17-3-.46s-.42,2-.42,2Z" style="fill:#af6152"></path><path d="M362,153a12.87,12.87,0,0,1,2.38-2.24c.83-.62,2.61-1.64,2.61-1.64a13.82,13.82,0,0,0-3.7,1.63,11.62,11.62,0,0,0-1.65,1.25,3.33,3.33,0,0,0,.3.89Z" style="fill:#af6152"></path><path d="M362.19,154.86a10.78,10.78,0,0,0-1.15.88,3.55,3.55,0,0,0,.37.86c.54-1.17,3.1-2.83,3.1-2.83A11.4,11.4,0,0,0,362.19,154.86Z" style="fill:#af6152"></path><path d="M369,162.67a9.6,9.6,0,0,0-2.89-3.24c-1-.77-2.51-.35-2.76.25s1.54.19,2.11.32A11.65,11.65,0,0,1,369,162.67Z" style="fill:#af6152"></path><path d="M370.45,144.3s-1.29-1.25-3.53-3.2-2.08-1.64-3.91-1.66-5.3,0-6.41-.9a4.67,4.67,0,0,0,.61.5c1.39,1,4,.84,4.87.93s2.7.53,2.7.53l4.29,4.35Z" style="fill:#af6152"></path><path d="M386.6,165.46c1.12,6.46,16.47,31.22,17.73,37.25s-3,17.35-6.05,19.69-10-.53-13.43-7.27-8.75-32.21-10.68-41.44Z" style="fill:#c8856a"></path></g><g id="freepik--Arm--inject-24"><path d="M406.18,215.72c-.56,1-1.8,1.9-2,2.94-.38,2.61-5.88,4-8,5.88-5.86,3.81-20.54,3.77-31.71,2-18.19-2.91-33.65-11.38-38.44-16.58-2.87-3.13-2.27-5.51-1.32-7a13.61,13.61,0,0,1,5-4.67c5-3.21,12.4-3,14.41-2.4,5.81,3.58,13.71,10.09,20.17,12.79,2.87,1.2,6.49,2.2,8.22,2.12,2-.08,3.11-.1,4.24-1.28a22.48,22.48,0,0,1,6.27-4.59,27.69,27.69,0,0,0,5.26-3.71c.47-.4,1.31-.11,1.76.33a2,2,0,0,1,.45,1.8c-.42,3.2-3,5.42-4.75,8a3.39,3.39,0,0,0-.78,2.38,2.52,2.52,0,0,0,1.69,1.79c2.35.87,14.34.91,19.9-3.26A6.75,6.75,0,0,1,406.18,215.72Z" style="fill:#c8856a"></path><path d="M376.88,209.47a22.52,22.52,0,0,1,5.18-4.19c1-.56,2-1,2.86-1.68s1.76-1.33,2.61-2l.63-.54a1.2,1.2,0,0,1,1-.31,2,2,0,0,1,1.57,1,2.73,2.73,0,0,1,.18,1.81,7.3,7.3,0,0,1-.46,1.66c-.87,2.16-2.48,3.8-3.76,5.56-.64.87-1.36,1.8-1.27,2.75a2.34,2.34,0,0,0,2.07,1.82,30,30,0,0,0,6.57.26,36.22,36.22,0,0,0,6.55-.9,17.83,17.83,0,0,0,6.11-2.49,17.76,17.76,0,0,1-6,2.79,36.83,36.83,0,0,1-6.6,1.1,28,28,0,0,1-6.72-.18,3,3,0,0,1-2.57-2.33,5,5,0,0,1,1.37-3.2c1.34-1.8,2.91-3.4,3.74-5.4a7.43,7.43,0,0,0,.44-1.53,2.27,2.27,0,0,0-.11-1.45,1.6,1.6,0,0,0-1.13-.74.66.66,0,0,0-.57.18l-.66.52c-.87.69-1.75,1.38-2.69,2s-2,1.1-2.93,1.62A22.24,22.24,0,0,0,376.88,209.47Z" style="fill:#af6152"></path></g></g></g></g></g><g id="freepik--character-1--inject-24"><g id="freepik--character--inject-24"><g id="freepik--character--inject-24"><g id="freepik--chair--inject-24"><path d="M213.83,337l-11.67-67.3-7.38-.37L210.11,337h0a1,1,0,0,0,.49.66,2.9,2.9,0,0,0,2.63.13.88.88,0,0,0,.58-.78Z" style="fill:#263238"></path><path d="M104.08,258.69H96.69l-17.37,69.9h0a.89.89,0,0,0,.54.81,2.9,2.9,0,0,0,2.63,0,1,1,0,0,0,.53-.63h0Z" style="fill:#37474f"></path><path d="M155.19,369.1l-.32-75.36-7.38-.37,4,75.72h0a1,1,0,0,0,.49.67,2.94,2.94,0,0,0,2.63.13.88.88,0,0,0,.58-.79Z" style="fill:#37474f"></path><path d="M144.42,235.24H137L125.2,309.51h0a.89.89,0,0,0,.54.81,2.92,2.92,0,0,0,2.64,0,1,1,0,0,0,.52-.64h0Z" style="fill:#263238"></path><g id="freepik--chair--inject-24"><path d="M82.81,177.07a41.7,41.7,0,0,0-3,13C79,200,82.38,232.19,84.4,246.59h0c2.93,24.07,6.52,24.11,11.73,28.14,9,6.93,34.76,20.51,43.28,23.86,15.44,6.08,28.06-3.29,37.47-7.94a219.38,219.38,0,0,0,24.92-14.76c2.35-1.72,3.57-3.45,3.55-5.27,0-.72,0-3.67,0-4.44,0-2.32-2-4.81-6.37-7.61-8-5.17-36.8-22-48-28.17a.12.12,0,0,0-.09-.09c-8.6-5.21-13.77-40.67-19.72-59.54-.12-.4-.25-.79-.38-1.17s-.21-.59-.31-.87c-.38-1-.76-2-1.17-2.83" style="fill:#EFBC68"></path><path d="M205.35,266.17c0-2.32-2-4.81-6.37-7.61-8-5.17-36.8-22-48-28.17a.12.12,0,0,0-.09-.09c-8.6-5.21-13.77-40.67-19.72-59.54a34.66,34.66,0,0,0-1.24-3.47,1.89,1.89,0,0,1-.11-.25l-.34-.77c-.06-.12-.11-.26-.17-.38h0a18.07,18.07,0,0,0-4-5.73,8.16,8.16,0,0,0-2-1.37l-3.5-2c-5.84-3.5-13.49.7-23,5.92-5.94,3.25-11,7.12-14.08,14.33h0a41.7,41.7,0,0,0-3,13C79,200,82.38,232.19,84.4,246.59h0c2.93,24.07,6.52,24.11,11.73,28.14,9,6.93,34.76,20.51,43.28,23.86,15.44,6.08,28.06-3.29,37.47-7.94a219.38,219.38,0,0,0,24.92-14.76c2.35-1.72,3.57-3.45,3.55-5.27C205.33,269.89,205.35,266.94,205.35,266.17Z" style="fill:#EFBC68"></path><path d="M205.35,266.17c0-2.32-2-4.81-6.37-7.61-8-5.17-36.8-22-48-28.17a.12.12,0,0,0-.09-.09c-8.6-5.21-13.77-40.67-19.72-59.54a34.66,34.66,0,0,0-1.24-3.47,1.89,1.89,0,0,1-.11-.25l-.34-.77c-.06-.12-.11-.26-.17-.38h0a18.07,18.07,0,0,0-4-5.73,8.16,8.16,0,0,0-2-1.37l-3.5-2c-5.84-3.5-13.49.7-23,5.92-5.94,3.25-11,7.12-14.08,14.33h0a41.7,41.7,0,0,0-3,13C79,200,82.38,232.19,84.4,246.59h0c2.93,24.07,6.52,24.11,11.73,28.14,9,6.93,34.76,20.51,43.28,23.86,15.44,6.08,28.06-3.29,37.47-7.94a219.38,219.38,0,0,0,24.92-14.76c2.35-1.72,3.57-3.45,3.55-5.27C205.33,269.89,205.35,266.94,205.35,266.17Z" style="fill:#fff;opacity:0.25"></path><path d="M176.87,286.17a220.67,220.67,0,0,0,24.92-14.77c5.35-3.89,4.86-7.86-2.81-12.84C188.33,251.65,144.89,227,144.89,227S90,259.41,92.34,265.39s36.35,24.5,47.06,28.71C154.84,300.18,167.46,290.81,176.87,286.17Z" style="fill:#EFBC68"></path><path d="M176.87,286.17a220.67,220.67,0,0,0,24.92-14.77c5.35-3.89,4.86-7.86-2.81-12.84C188.33,251.65,144.89,227,144.89,227S90,259.41,92.34,265.39s36.35,24.5,47.06,28.71C154.84,300.18,167.46,290.81,176.87,286.17Z" style="fill:#fff;opacity:0.6000000000000001"></path><path d="M123.42,158.79c-5.78-3-13.29,1.09-22.58,6.18-6,3.26-11,7.13-14.11,14.36l-3.92-2.26C85.89,169.86,91,166,96.89,162.74c9.54-5.22,17.19-9.42,23-5.92Z" style="fill:#EFBC68"></path><path d="M123.42,158.79c-5.78-3-13.29,1.09-22.58,6.18-6,3.26-11,7.13-14.11,14.36l-3.92-2.26C85.89,169.86,91,166,96.89,162.74c9.54-5.22,17.19-9.42,23-5.92Z" style="fill:#fff;opacity:0.5"></path><path d="M131.21,170.76c-.12-.4-2.11-7.32-5.84-10.6a9.4,9.4,0,0,0-6.32-2.41c-5,0-11.11,3.33-18.21,7.22-.6.33-1.18.66-1.76,1l-.66.4-.78.49c-.2.12-.39.24-.58.38A33.64,33.64,0,0,0,93.48,170c-.18.16-.36.32-.53.5a23.75,23.75,0,0,0-2,2.1l-.35.4-.4.5-.39.52c-.13.17-.25.35-.38.53-.5.72-1,1.47-1.42,2.27-.06.1-.11.2-.16.3s-.23.43-.34.65-.31.63-.46.95a41.11,41.11,0,0,0-3.22,13.6c-1.38,16.34,4.22,70.34,9.84,75,0,0-.86-5.28,10.44-12.39,7.68-4.84,13.07-8.9,21.27-12.92,20-9.81,25.58-11.65,25.58-11.65C142.33,225.09,137.16,189.63,131.21,170.76Z" style="fill:#EFBC68"></path><path d="M131.21,170.76c-.12-.4-2.11-7.32-5.84-10.6a9.4,9.4,0,0,0-6.32-2.41c-5,0-11.11,3.33-18.21,7.22-.6.33-1.18.66-1.76,1l-.66.4-.78.49c-.2.12-.39.24-.58.38A33.64,33.64,0,0,0,93.48,170c-.18.16-.36.32-.53.5a23.75,23.75,0,0,0-2,2.1l-.35.4-.4.5-.39.52c-.13.17-.25.35-.38.53-.5.72-1,1.47-1.42,2.27-.06.1-.11.2-.16.3s-.23.43-.34.65-.31.63-.46.95a41.11,41.11,0,0,0-3.22,13.6c-1.38,16.34,4.22,70.34,9.84,75,0,0-.86-5.28,10.44-12.39,7.68-4.84,13.07-8.9,21.27-12.92,20-9.81,25.58-11.65,25.58-11.65C142.33,225.09,137.16,189.63,131.21,170.76Z" style="fill:#fff;opacity:0.4"></path></g></g><g id="freepik--character--inject-24"><g id="freepik--bottom--inject-24"><path d="M172.5,305.1c-5.34-.53-9.75,3.89-10.13,5.26-.53,1.86-.19,5.58,2.14,10.1a32,32,0,0,1,2.85,14.38c-.24,4.21-1.87,14.77,2.56,19.89s14,9.39,17.1,2c1-2.4-1.48-10.5-2.67-16.44C182,328.51,180,316.75,180,316.75Z" style="fill:#263238"></path><path d="M171.17,314.65a116.75,116.75,0,0,1,2,17.4c.12,6.39,1.62,10.54,3.92,13.31,2.54,3.05,8.68,4.6,7.73-1.95-.66-4.56-4.75-26.66-4.75-26.66Z" style="fill:#ffbda7"></path><path d="M164.06,308.2c-.11,3.94,2.38,14.3,8,22.85,5.51,8.39,13.51,18.2,15.18,24.27,0-2.82-1.32-7.92-2.36-12.47,0-.1,0-.2-.07-.3-.06-.27-.11-.53-.17-.79s-.05-.24-.08-.36l-.21-1v-.06c-.74-3.7-1.44-7.39-2-10.71-.49-2.66-.92-5.09-1.28-7.11-.17-1-.33-1.91-.46-2.68-.07-.39-.13-.75-.18-1.07-.22-1.29-.34-2-.34-2L172.5,305.1a9,9,0,0,0-1,0A11.68,11.68,0,0,0,164.06,308.2Z" style="opacity:0.15"></path><path d="M188.2,234.74c-16.69-10.86-35.45-22.35-35.45-22.35L97.58,223.44,155,255.55l23.62,14.7s4.39-.51,2,6.46c-.78,2.22-1.9,6.63-3.08,11.62l11.82,29.05s5.37-10.47,13-29.41c7.1-17.6,7-28.29,6.1-32.09C207.21,250.91,202.65,244.14,188.2,234.74Z" style="fill:#455a64"></path><path d="M150.75,245c11.83,8.8,32.46,23.31,34.72,29.62,1.4,3.9.64,27.9,3.81,42.75l3-6.24s-.44-19.37-1.25-29.05c-1-11.45-3.66-12.8-8.26-17.65-4.44-4.66-24.36-18.56-26-19.43,5.22-7.49,5.95-13.21,5.31-17.92C162.11,227.09,161.49,235.61,150.75,245Z" style="fill:#37474f"></path><path d="M176.88,350.15c-1.3,0-1.3,2.18-2,5a14.39,14.39,0,0,0-.09,8.43c1.19,3.51,6.83,4,9.76,8.63s7.2,12.92,17.23,15.38,17.82-.64,19.79-3.59.38-5.84-6-9.73c-6.73-4.13-8.64-5.34-8.64-5.34Z" style="fill:#263238"></path><path d="M192.06,334.83s1.88,10.95,4.64,17.23,6,10.49,11,16.12c1.1,1.22,3.58,3.49,4.48,4.49a1.94,1.94,0,0,1-.16,3c-2.17,2.14-11.47,2.78-16.74-1.05s-10.16-12.09-13.32-15.19a48,48,0,0,1-3.37-3.62,6.47,6.47,0,0,1-1.66-4.14,47.22,47.22,0,0,0-.19-6.75c-.22-2.37-.63-4.78-1.27-8.36Z" style="fill:#ffbda7"></path><path d="M97.58,223.44c-1.2,17.56-.25,23.66,3,30.28,4.22,8.6,9.06,13.41,23.35,21.46,11.82,6.65,26.91,12.91,30.44,14.4s3.75,4.76,4.2,12.39c.4,6.69,2.4,9,8.69,23.73,6.39,15,8.62,18.86,8.62,18.86S187,349.08,194.11,342c0,0-5.53-58.64-8.64-67.33S145.11,243,145.11,243s4.29-14.54.28-24.58Z" style="fill:#455a64"></path></g><g id="freepik--top--inject-24"><path d="M148.32,146.87c4.73.82,10.92,1,12.77,10.52s4.71,39.66,4.71,39.66,1.18,1.9,4.81,6.88c3.4,4.66,4.64,6.2,6.12,7.56a20.75,20.75,0,0,0,3.66,2.51s-12.74,9.21-16.26,4.06-9.7-10-12.66-13.61-2.84-5.91-3.62-12.21c-.9-7.24-2.08-18.43-2.08-18.43Z" style="fill:#ffbda7"></path><g id="freepik--Chest--inject-24"><path d="M99.12,185c-.74-19.82,5-25.7,7.69-32.21l6.25-2.06s20.52-3.88,29.3-4.19l6,.35c4,4.67,13.87,15.17,16.75,24.08a17.64,17.64,0,0,1-7.17,19.67,68.1,68.1,0,0,0,.58,13.48s3.52,7.53,4,14c-2,10-15.71,15.92-34.17,19-19.81,3.26-31-3.54-31-3.54C96.75,217,99.85,204.41,99.12,185Z" style="fill:#f0f0f0"></path><path d="M142.35,195.1s-5.52,6-15.67,4.28c-10.47-1.82-12-10.68-12-10.68s-1.13,11.42,11.37,13.59A15.22,15.22,0,0,0,142.35,195.1Z" style="fill:#e0e0e0"></path></g><g id="freepik--head--inject-24"><path id="freepik--Hair--inject-24" d="M113.26,98.16c-.52-9,16.56-19.38,33.32-9.06s11.21,21,10.19,24.25a34.77,34.77,0,0,0-1.75,8.36,11.87,11.87,0,0,0,1.81,7.42,5.2,5.2,0,0,0,6.29,1.84c-.64,4-3.15,7-9.35,9.25a16.23,16.23,0,0,1-7.94.38c.88.66,2.15,1.72,6.12,1.76-2.66,3-13.56,3.94-20.38-.25a2.4,2.4,0,0,0-1.35-.26,4.66,4.66,0,0,0-1.59.53c-4,1.7-9,1.05-13,0a18.06,18.06,0,0,1-6.38-2.79,9.53,9.53,0,0,1-3.83-5.67,8.88,8.88,0,0,0,.52,6.11,11.43,11.43,0,0,1-4.08-2.26c-2.07-2-2.66-5.13-2.25-8a31,31,0,0,1,2.87-8.08c1.33-2.93,2.42-5.81,2.35-9.06a31.06,31.06,0,0,1,.36-6.46C106,101.86,108.55,98.44,113.26,98.16Z" style="fill:#263238"></path><path d="M117.79,144.62V131.91c-.09.79-4.21,2.94-7.63-1.15s-3.66-8.43-1.59-11.19c2.29-3,7.82-3.22,10,1.68,1.41,1.8,4.57-.28,3.4-5.15.31-3.41,5.23-7.11,2.61-12.89,9.74-6.42,19.7-5.51,25.61-.4.79,2.34,1.72,4.59,1.24,12-.11,1.71,1,5.1.92,7-.42,11.24-3,15.74-6.57,17.63-2.41,1.26-4.74,1.72-9,1.36V143c.08,1.77-.07,2.3,1.65,2.88a23.34,23.34,0,0,0,3.89.6s5.21,8.35-7,10.37c-15.94,2.64-22.27-6.18-22.27-6.18s.82-.37,2.53-1.08S117.79,147.88,117.79,144.62Z" style="fill:#ffbda7"></path><path d="M136.82,140.77c-4.68-.48-6.92-.7-10.16-2.18a12.87,12.87,0,0,1-5-4.53s1.38,4.24,4.44,6.05c4.29,2.53,10.74,3,10.74,3Z" style="fill:#f0997a"></path><path d="M140,129.69c.09,0,.37,0,.4-.15s-.1-.14-.17-.15a10.5,10.5,0,0,1-2.86-.65,7.52,7.52,0,0,1-1.35-.69,5.23,5.23,0,0,0-1.07-.64c-.26-.1-.52,0-.47.31.07.48.6.78,1,1a6.69,6.69,0,0,0,2.11.83A7.15,7.15,0,0,0,140,129.69Z" style="fill:#b16668"></path><path d="M149.7,111l-4.63-1.16a2.3,2.3,0,0,1,2.81-1.77A2.51,2.51,0,0,1,149.7,111Z" style="fill:#263238"></path><path d="M129.31,112.55l4.46-1.84a2.31,2.31,0,0,0-3.07-1.36A2.54,2.54,0,0,0,129.31,112.55Z" style="fill:#263238"></path><path d="M145.43,115.65a2.05,2.05,0,0,0,1.83,2.17,1.92,1.92,0,0,0,2.13-1.75,2,2,0,0,0-1.82-2.17A1.91,1.91,0,0,0,145.43,115.65Z" style="fill:#263238"></path><path d="M131.36,116.73a2,2,0,0,0,1.82,2.17,1.92,1.92,0,0,0,2.14-1.75,2,2,0,0,0-1.83-2.17A1.91,1.91,0,0,0,131.36,116.73Z" style="fill:#263238"></path><path d="M148,122.51l-6.72,3.5-2.55-12.39C141,114.33,144.58,118,148,122.51Z" style="fill:#f0997a"></path></g></g></g></g><g id="freepik--Desk--inject-24"><polygon points="261.86 381.81 257.93 379.54 257.93 479.69 261.86 481.96 261.86 381.81" style="fill:#455a64"></polygon><polygon points="261.86 381.81 265.79 379.54 265.79 479.69 261.86 481.96 261.86 381.81" style="fill:#37474f"></polygon><polygon points="388.96 308.46 385.02 306.19 385.02 406.34 388.96 408.61 388.96 308.46" style="fill:#455a64"></polygon><polygon points="388.96 308.46 392.89 306.19 392.89 406.34 388.96 408.61 388.96 308.46" style="fill:#37474f"></polygon><polygon points="93.7 284.58 89.77 282.31 89.77 382.46 93.7 384.73 93.7 284.58" style="fill:#455a64"></polygon><polygon points="93.7 284.58 97.63 282.31 97.63 382.46 93.7 384.73 93.7 284.58" style="fill:#37474f"></polygon><g id="freepik--desk--inject-24"><path d="M78.89,282.77v-5.38a2.13,2.13,0,0,1,1-1.66l146.94-84.86a2.16,2.16,0,0,1,1.92,0l181,104.77a2.11,2.11,0,0,1,1,1.66v5.38a2.13,2.13,0,0,1-1,1.67L262.82,389.21a2.16,2.16,0,0,1-1.92,0l-181-104.77A2.13,2.13,0,0,1,78.89,282.77Z" style="fill:#EFBC68"></path><g style="opacity:0.7000000000000001"><path d="M78.89,282.77v-5.38a2.13,2.13,0,0,1,1-1.66l146.94-84.86a2.16,2.16,0,0,1,1.92,0l181,104.77a2.11,2.11,0,0,1,1,1.66v5.38a2.13,2.13,0,0,1-1,1.67L262.82,389.21a2.16,2.16,0,0,1-1.92,0l-181-104.77A2.13,2.13,0,0,1,78.89,282.77Z" style="fill:#fff"></path></g><path d="M261.86,381.84v7.6a2,2,0,0,1-1-.23l-181-104.77a2.13,2.13,0,0,1-1-1.66V277.4a2.09,2.09,0,0,1,.79-1.54c-.35.29-.29.71.17,1l181,104.77A2,2,0,0,0,261.86,381.84Z" style="fill:#EFBC68"></path><g style="opacity:0.6000000000000001"><path d="M261.86,381.84v7.6a2,2,0,0,1-1-.23l-181-104.77a2.13,2.13,0,0,1-1-1.66V277.4a2.09,2.09,0,0,1,.79-1.54c-.35.29-.29.71.17,1l181,104.77A2,2,0,0,0,261.86,381.84Z" style="fill:#fff"></path></g><path d="M79.85,276.84l181,104.77a2.16,2.16,0,0,0,1.92,0l146.94-84.86a.59.59,0,0,0,0-1.11l-181-104.77a2.16,2.16,0,0,0-1.92,0L79.85,275.73A.59.59,0,0,0,79.85,276.84Z" style="fill:#EFBC68"></path><g style="opacity:0.8"><path d="M79.85,276.84l181,104.77a2.16,2.16,0,0,0,1.92,0l146.94-84.86a.59.59,0,0,0,0-1.11l-181-104.77a2.16,2.16,0,0,0-1.92,0L79.85,275.73A.59.59,0,0,0,79.85,276.84Z" style="fill:#fff"></path></g></g></g><g id="freepik--arm--inject-24"><path d="M165.45,220.07c.63,1,1.26,1.89,1.88,2.84a27,27,0,0,0,2.8,3.74c1,1.08,2.83,1.68,3.65,2.8.37.51,1.59,2.44,1.43,3.09s-1,1-1.32,1.43a7.46,7.46,0,0,0-.93,2.19,5.33,5.33,0,0,0-.24,3.51c.13.33.33.64.44,1a12.48,12.48,0,0,1,.2,1.84,3,3,0,0,0,2.16,2.34,5.19,5.19,0,0,0,2.35-.08,31.6,31.6,0,0,0,3.57-.9c2.32-.73,4.77-1.91,5.67-4.16.49-1.21.48-2.63,1.24-3.7.3-.43.72-.78,1-1.24.6-1.06.24-2.43.73-3.55.18-.41.46-.77.68-1.16.8-1.41.41-3.11.13-4.63a23.14,23.14,0,0,0-1.37-4.69,6.13,6.13,0,0,0-1-1.76,6.27,6.27,0,0,0-1.31-1c-1.78-1.14-3.6-2.09-5.39-3.15a11.09,11.09,0,0,0-5.35-1.86c-2.12,0-4.19,1.1-6,2-2.1,1-4.22,2.05-6.27,3.15Z" style="fill:#ffbda7"></path><path d="M180.75,216.57a32.66,32.66,0,0,0,2.61,2.52c.9.82,1.82,1.61,2.76,2.36.48.38.94.74,1.43,1.08a8.88,8.88,0,0,1,1.48,1.19,1.36,1.36,0,0,1,.39,1.11,1.7,1.7,0,0,1-.61.95,4,4,0,0,1-1.78.85,8.39,8.39,0,0,1-3.77-.2,13.21,13.21,0,0,1-3.44-1.39,31.75,31.75,0,0,1-3-2c-1-.73-1.9-1.52-2.93-2.17,2.18,1.1,4.1,2.63,6.26,3.69a14.8,14.8,0,0,0,3.32,1.25,7.91,7.91,0,0,0,3.45.14,3.34,3.34,0,0,0,1.48-.67c.44-.38.53-.66.17-1.08-.74-.78-1.91-1.41-2.78-2.27A35.39,35.39,0,0,1,180.75,216.57Z" style="fill:#f0997a"></path><path d="M179.6,230.9l-.16,0c-1.14-.27-2.28-.56-3.41-.89-.06-.19.21-.32.41-.36,2.68-.51,5.5-.8,7.92-2.15a5,5,0,0,0,2.57-3.73c.16-1.5-2.36-.62-3.23-.51a31,31,0,0,1-3.48.32,97.74,97.74,0,0,0-12.55.73c-4,.43-8.09-.89-20-4.91s-24.26-8.75-24.26-8.75-6.06-28.44-7.37-33.68-3.88-18.69-9.24-24.17c-12.15,3.85-17.41,8.58-13.58,28,4.11,20.88,8,36.21,8.93,39.69,1.55,5.77,3,9.15,8.64,10.86,4.32,1.29,8.91,2.08,23.39,4.47,6.49,1.08,9.09,1.39,15,2.52,5.69,1.08,8.44,1.78,11,2.88a87.87,87.87,0,0,0,9.4,3.55,52.77,52.77,0,0,0,8.21,1.63,11,11,0,0,0,5.4-1.13,15.44,15.44,0,0,0,4.24-2.44,12.64,12.64,0,0,0,2-1.65,8.36,8.36,0,0,0,.84-2,32.44,32.44,0,0,0,1.78-3.06,7.46,7.46,0,0,0-.06-2.87,5.33,5.33,0,0,0,1.36-3,13.24,13.24,0,0,0,0-2.27,9.67,9.67,0,0,0-.28-2.28,2,2,0,0,0-1.88.5,3.91,3.91,0,0,0-1,1.73,3.36,3.36,0,0,1-.55,1.18,2.89,2.89,0,0,1-1.18.64c-1.74.59-3.7,1.91-5.57,1.85A17.2,17.2,0,0,1,179.6,230.9Z" style="fill:#ffbda7"></path><path d="M190.9,226.43a8,8,0,0,0-1.08,2.21c-.35.76-1.26.84-2,1.17l-2.26,1a7.48,7.48,0,0,1-2.32.59,8.92,8.92,0,0,1-2.38-.36l-4.42-1.15.48-.09,1-.18c.68-.12,1.37-.24,2.06-.38a15.78,15.78,0,0,0,4-1.29,5.52,5.52,0,0,0,2.89-3.11,4.33,4.33,0,0,0,.23-1.08,1,1,0,0,0-.14-.64,1,1,0,0,0-.55-.37,5,5,0,0,0-2.17.18,17,17,0,0,1-2,.26l-2.07.21-4.18.12c-2.8.09-5.57.45-8.33.79,2.77-.26,5.55-.48,8.34-.51l4.18,0,2.09-.17a15,15,0,0,0,2.1-.24,5,5,0,0,1,2-.18.47.47,0,0,1,.37.56,4,4,0,0,1-.22,1,5,5,0,0,1-2.68,2.82,16.27,16.27,0,0,1-3.91,1.27c-.67.14-1.36.26-2,.38l-1,.19c-.19,0-.33.05-.54.1a1,1,0,0,0-.31.16.43.43,0,0,0-.16.47l0,.12.11,0,4.79,1.2a8.89,8.89,0,0,0,2.48.33,7.63,7.63,0,0,0,2.42-.67l2.25-1c.37-.17.76-.28,1.15-.46a1.74,1.74,0,0,0,.92-.87,7.74,7.74,0,0,1,1-2.23,2.06,2.06,0,0,1,2.14-.84A2.11,2.11,0,0,0,190.9,226.43Z" style="fill:#f0997a"></path><path d="M192.29,232.82a7,7,0,0,1-1.94,2.22,24.23,24.23,0,0,1-2.41,1.68c-.21.13-.38.26-.65.4a4.93,4.93,0,0,1-.73.27,12.07,12.07,0,0,1-1.45.31,19.23,19.23,0,0,1-2.93.27l2.84-.7c.46-.14.93-.25,1.38-.41a4.47,4.47,0,0,0,.64-.25c.16-.08.38-.25.58-.38.84-.52,1.66-1,2.46-1.55A10.35,10.35,0,0,0,192.29,232.82Z" style="fill:#f0997a"></path><path d="M191,238a8,8,0,0,1-1.62,2,11.77,11.77,0,0,1-2.08,1.56,10.34,10.34,0,0,1-2.48.83,18.18,18.18,0,0,1-2.54.42c.8-.31,1.61-.57,2.41-.85a18.06,18.06,0,0,0,2.32-.9A20.25,20.25,0,0,0,191,238Z" style="fill:#f0997a"></path></g></g></g><g id="freepik--Drinks--inject-24"><g id="freepik--Coffee--inject-24"><ellipse id="freepik--shadow--inject-24" cx="133.16" cy="277.47" rx="22.45" ry="12.96" style="fill:#EFBC68;opacity:0.2"></ellipse><g id="freepik--Mug--inject-24"><g id="freepik--Plate--inject-24"><path d="M148.41,266.58c-8.42-4.86-22.08-4.86-30.5,0-4.21,2.43-6.32,5.62-6.32,8.81v.9c0,3.19,2.11,6.38,6.32,8.81,8.42,4.86,22.08,4.86,30.5,0,4.22-2.43,6.32-5.62,6.32-8.81v-.89C154.74,272.21,152.63,269,148.41,266.58Z" style="fill:#f0f0f0"></path><path d="M126,287.14v-23.5a27.12,27.12,0,0,0-8.09,2.94c-4.21,2.43-6.32,5.62-6.32,8.81v.9c0,3.19,2.11,6.38,6.32,8.81a28.25,28.25,0,0,0,9.89,3.25C126.1,288.06,126,287.14,126,287.14Z" style="opacity:0.1"></path><path d="M148.41,266.58c-8.42-4.86-22.08-4.86-30.5,0s-8.42,12.75,0,17.61,22.08,4.87,30.5,0S156.84,271.45,148.41,266.58Z" style="fill:#fff"></path><path d="M144.33,269.39c-6.17-3.56-16.17-3.56-22.34,0s-6.17,9.34,0,12.9,16.17,3.56,22.34,0S150.5,273,144.33,269.39Z" style="fill:#f0f0f0"></path><path d="M143,270.8c-5.41-3.12-14.17-3.12-19.57,0s-5.41,8.18,0,11.3,14.17,3.13,19.57,0S148.36,273.92,143,270.8Z" style="fill:#fff"></path><path d="M117.79,283.48a25.46,25.46,0,0,0,5.66,2.14,34.28,34.28,0,0,0,6,1,38.06,38.06,0,0,0,6,0,35.16,35.16,0,0,0,6-1,26.06,26.06,0,0,0,5.63-2.08,15.09,15.09,0,0,0,4.73-3.6,8.75,8.75,0,0,0,1.52-2.54,6.86,6.86,0,0,0,.44-2.91,7.48,7.48,0,0,0-.8-2.87,10.11,10.11,0,0,0-.8-1.28,11.94,11.94,0,0,0-1-1.17,12.21,12.21,0,0,1,1,1.12,9,9,0,0,1,.86,1.26,7.44,7.44,0,0,1,.95,2.92,7.07,7.07,0,0,1-.36,3.06,9.37,9.37,0,0,1-1.53,2.7,13.22,13.22,0,0,1-2.22,2.14,18.21,18.21,0,0,1-2.61,1.65,26.31,26.31,0,0,1-5.74,2.15,36.34,36.34,0,0,1-12.16.87,32.33,32.33,0,0,1-6-1.13,27.29,27.29,0,0,1-2.87-1A20.24,20.24,0,0,1,117.79,283.48Z" style="fill:#fff"></path><path d="M140.93,271.05a17.14,17.14,0,0,0-15.53,0c-4.29,2.48-4.29,6.49,0,9a17.14,17.14,0,0,0,15.53,0C145.22,277.54,145.22,273.53,140.93,271.05Z" style="fill:#f0f0f0"></path><path d="M140.9,278.47l-14.13-7.83-15.18,4.78c0,3.18,2.12,6.35,6.32,8.77a26.86,26.86,0,0,0,8.09,2.95Z" style="opacity:0.1"></path></g><g id="freepik--coffee--inject-24"><path d="M146.51,274.31a7.47,7.47,0,0,0,3-.42c1.34-.49,2.5-1.93,3.55-4.39.9-2.07,2.32-6.63,1.32-9-1.28-3-4.89-3.09-7.29-3.16l-.83,0-.13,2.85c.29,0,.74.1,1.05.11,1.34,0,4.31.5,4.64,1.27,1.12,1.85-1.73,8.95-3,9.72a11.08,11.08,0,0,1-4.63,0l-.94,2.39A10.88,10.88,0,0,0,146.51,274.31Z" style="fill:#e0e0e0"></path><path d="M121.35,253.93c.28-1.22,1.47-2.41,3.6-3.36,4.92-2.2,12.92-2.28,17.88-.19,2.15.91,3.37,2.07,3.67,3.28h.07c.93,8-.4,17.25-3.19,22.4l0,.1a.59.59,0,0,0,0,.08h0a6.06,6.06,0,0,1-2.31,2.23,15,15,0,0,1-13.56.14,6.13,6.13,0,0,1-2.36-2.17h0l0-.07-.06-.12c-2.9-5.09-4.42-14.33-3.67-22.32Z" style="fill:#ebebeb"></path><path d="M127.8,277.06c-3.5-2.87-3.84-12.41-3.74-18l1.52-8.71c-.21.08-.43.16-.63.25-2.13,1-3.32,2.14-3.6,3.36h-.07c-.75,8,.77,17.23,3.67,22.32l.06.12,0,.07h0a6.13,6.13,0,0,0,2.36,2.17,15.18,15.18,0,0,0,12.8.27A13.05,13.05,0,0,1,127.8,277.06Z" style="fill:#e0e0e0"></path><path d="M124.94,249.25c-4.91,2.93-4.86,7.59.11,10.41s13,2.74,17.88-.19,4.86-7.59-.11-10.41S129.84,246.32,124.94,249.25Z" style="fill:#fafafa"></path><path d="M126,250.36c-4.33,2.3-4.29,6,.08,8.17a19.18,19.18,0,0,0,15.75-.17c4.33-2.3,4.29-6-.09-8.17A19.16,19.16,0,0,0,126,250.36Z" style="fill:#e0e0e0"></path><path d="M126.07,255.3a7.88,7.88,0,0,0-2.17,1.63,7.77,7.77,0,0,0,2.2,1.6,19.18,19.18,0,0,0,15.75-.17,7.71,7.71,0,0,0,2.17-1.64,7.76,7.76,0,0,0-2.2-1.59A19.14,19.14,0,0,0,126.07,255.3Z" style="fill:#EFBC68"></path><path d="M126.07,255.3a7.88,7.88,0,0,0-2.17,1.63,7.77,7.77,0,0,0,2.2,1.6,19.18,19.18,0,0,0,15.75-.17,7.71,7.71,0,0,0,2.17-1.64,7.76,7.76,0,0,0-2.2-1.59A19.14,19.14,0,0,0,126.07,255.3Z" style="opacity:0.5"></path></g></g><g id="freepik--tea-spoon--inject-24"><path id="freepik--shadow--inject-24" d="M135.32,289.12a.06.06,0,0,0,0,0h0a.05.05,0,0,0,0,0v0l0,0h0a.1.1,0,0,0-.05,0h0l-19.85-11a2.76,2.76,0,0,0,.51-1.43.57.57,0,0,0,0-.13h0c0-.64-.49-1.34-1.54-2.06-2.17-1.5-7.18-2.81-9.31-1.58a1.51,1.51,0,0,0-.8,1.76h0a5.91,5.91,0,0,0,1.65,2.78h0l.21.21,0,0,.25.23a7.63,7.63,0,0,0,1.92,1.34c.2.1.41.19.62.27a7.89,7.89,0,0,0,1,.28,9.05,9.05,0,0,0,1.62.14,4.92,4.92,0,0,0,2.6-.73l18.9,11.4c.6.35,2.28-.53,2.28-1v-.3Z" style="opacity:0.1"></path><g id="freepik--tea-spoon--inject-24"><path d="M111.54,279.05c2.37,0,4.31-1.64,4.31-3.41l-11.65-1.88a6.45,6.45,0,0,0,2.14,3.26A7,7,0,0,0,111.54,279.05Z" style="fill:#ebebeb"></path><path d="M111.54,279.05c2.37,0,4.31-1.64,4.31-3.41l-11.65-1.88a6.45,6.45,0,0,0,2.14,3.26A7,7,0,0,0,111.54,279.05Z" style="opacity:0.15"></path><path d="M115.26,275.9c0,1.28-1.49,2.85-3.86,2.84a8.29,8.29,0,0,1-6-2.65,9.5,9.5,0,0,0,.89.93,7,7,0,0,0,5.2,2c2.37,0,4.31-1.64,4.31-3.41l-.6-.1C115.25,275.67,115.26,275.79,115.26,275.9Z" style="opacity:0.15"></path><path d="M114.31,273.58c-2.17-1.49-7.18-2.81-9.31-1.58s.14,4.12,2.74,5.38a7.06,7.06,0,0,0,6.72.08C116.21,276.45,116.47,275.07,114.31,273.58Z" style="fill:#e6e6e6"></path><path d="M107.31,271.64a14,14,0,0,1,6.93,2.05c1,.69,1.51,1.38,1.49,2s-.49,1.15-1.33,1.64a6.18,6.18,0,0,1-3.05.78,8.18,8.18,0,0,1-3.56-.87c-1.92-.93-3.47-2.63-3.51-3.87a1.37,1.37,0,0,1,.78-1.29,4.57,4.57,0,0,1,2.25-.47m0-.13A4.71,4.71,0,0,0,105,272c-2.14,1.23.14,4.12,2.74,5.38a8.33,8.33,0,0,0,3.61.89,6.13,6.13,0,0,0,3.11-.81c1.75-1,2-2.39-.15-3.88a14.24,14.24,0,0,0-7-2.07Z" style="fill:#e0e0e0"></path><path d="M113.08,273.9c-2.12-1.42-6.56-2.76-8.08-1.71s1,3.7,3.39,4.91,4.37,1.14,5.62.29S115.18,275.29,113.08,273.9Z" style="fill:#f0f0f0"></path><path d="M110.7,273.38c-1.5-1-4.65-1.95-5.73-1.21s.69,2.63,2.41,3.49,3.09.8,4,.2S112.19,274.37,110.7,273.38Z" style="fill:#fafafa"></path><path d="M135.18,288.19l-20.13-11.13a6.32,6.32,0,0,1-1.28.74v.3L133,289.72c.6.35,2.28-.53,2.28-1v-.3A.22.22,0,0,0,135.18,288.19Z" style="fill:#e0e0e0"></path><path d="M135.18,288.19l-20.13-11.13a5.81,5.81,0,0,1-1.28.74v.3L133,289.72c.6.35,2.28-.53,2.28-1v-.3A.22.22,0,0,0,135.18,288.19Z" style="opacity:0.25"></path><path d="M133,289.43c.69.39,2.83-.84,2.14-1.24l-20.13-11.13a6,6,0,0,1-1.28.74Z" style="fill:#f0f0f0"></path><path d="M115.17,277.37l18.06,9.93c1.38.76,2.21,1.1,1.34,1.6s-1.27.33-1.27.33a2.24,2.24,0,0,0,1-.33c.51-.33.06-.77-.94-1.25S115.17,277.37,115.17,277.37Z" style="fill:#fafafa"></path></g></g><path d="M138.49,234.54c-1.42-4.7-6.75-7.7-6.75-7.7s3.27,4.26,3.13,7.93-3.07,6.24-4.22,10a11.23,11.23,0,0,0,3.33,12s-2.23-5.81.19-10.14C135.58,244.17,139.91,239.25,138.49,234.54Zm2.18,1.27a8.77,8.77,0,0,1-.77,5.48,34.79,34.79,0,0,1-4.2,6.22c-1.86,2.4-1.62,6.75.22,9.32a15,15,0,0,1,2.35-7.37c1.09-1.63,4.15-4.57,4.67-7.86A5.64,5.64,0,0,0,140.67,235.81Zm-8.33,2.61a13.5,13.5,0,0,0-4.59,3.82c-1.69,2.42-1,5.23,1.13,8.28C127.76,246,129.57,241.86,132.34,238.42Z" style="fill:#fff;opacity:0.5"></path></g><g id="freepik--coffee--inject-24"><path id="freepik--shadow--inject-24" d="M368,286.46c-8.77-5.06-23-5.06-31.75,0s-8.76,13.27,0,18.33,23,5.06,31.75,0S376.71,291.52,368,286.46Z" style="fill:#EFBC68;opacity:0.2"></path><g id="freepik--mug--inject-24"><g id="freepik--plate--inject-24"><path d="M367.33,284.74c-8.43-4.87-22.08-4.87-30.51,0-4.21,2.43-6.31,5.61-6.31,8.8v.9c0,3.19,2.1,6.38,6.31,8.81,8.43,4.86,22.08,4.86,30.51,0,4.21-2.43,6.31-5.62,6.31-8.81v-.89C373.65,290.36,371.54,287.17,367.33,284.74Z" style="fill:#f0f0f0"></path><path d="M344.91,305.29v-23.5a27,27,0,0,0-8.09,2.95c-4.21,2.43-6.31,5.61-6.31,8.8v.9c0,3.19,2.1,6.38,6.31,8.81a28.25,28.25,0,0,0,9.9,3.26C345,306.21,344.91,305.29,344.91,305.29Z" style="opacity:0.1"></path><path d="M367.33,284.74c-8.43-4.87-22.08-4.87-30.51,0s-8.42,12.74,0,17.61,22.08,4.86,30.51,0S375.75,289.6,367.33,284.74Z" style="fill:#fff"></path><path d="M363.25,287.54c-6.17-3.56-16.18-3.56-22.35,0s-6.17,9.34,0,12.9,16.18,3.56,22.35,0S369.41,291.11,363.25,287.54Z" style="fill:#f0f0f0"></path><path d="M361.86,289c-5.4-3.12-14.17-3.12-19.57,0s-5.41,8.18,0,11.3,14.17,3.12,19.57,0S367.27,292.08,361.86,289Z" style="fill:#fff"></path><path d="M336.7,301.63a25.46,25.46,0,0,0,5.66,2.14,34.43,34.43,0,0,0,6,1,39.28,39.28,0,0,0,6,0,37.28,37.28,0,0,0,5.95-1,26.14,26.14,0,0,0,5.64-2.08,15.16,15.16,0,0,0,4.72-3.6,8.89,8.89,0,0,0,1.52-2.54,6.78,6.78,0,0,0,.44-2.92,7.38,7.38,0,0,0-.8-2.86,10.6,10.6,0,0,0-.79-1.29,12.16,12.16,0,0,0-1-1.16,11,11,0,0,1,1,1.11,10,10,0,0,1,.85,1.27,7.47,7.47,0,0,1,1,2.91,7.3,7.3,0,0,1-.37,3.07,9.1,9.1,0,0,1-1.53,2.69,12.83,12.83,0,0,1-2.22,2.14,18.75,18.75,0,0,1-2.6,1.66,27.09,27.09,0,0,1-5.75,2.14,36.35,36.35,0,0,1-12.16.88,32.93,32.93,0,0,1-6-1.14,28.93,28.93,0,0,1-2.88-1A22.25,22.25,0,0,1,336.7,301.63Z" style="fill:#fff"></path><path d="M359.84,289.2a17.2,17.2,0,0,0-15.53,0c-4.29,2.48-4.29,6.5,0,9a17.14,17.14,0,0,0,15.53,0C364.13,295.7,364.13,291.68,359.84,289.2Z" style="fill:#f0f0f0"></path><path d="M359.82,296.63l-14.14-7.84-15.17,4.78c0,3.18,2.11,6.35,6.31,8.78a27.22,27.22,0,0,0,8.09,2.94Z" style="opacity:0.1"></path></g><g id="freepik--coffee--inject-24"><path d="M365.42,292.47a7.64,7.64,0,0,0,3-.43c1.34-.49,2.5-1.92,3.56-4.38.89-2.08,2.31-6.63,1.31-9-1.28-3-4.89-3.09-7.29-3.16-.28,0-.56,0-.83,0l-.13,2.85c.29,0,.74.1,1.05.11,1.34,0,4.32.5,4.64,1.27,1.12,1.85-1.73,8.95-3,9.72a11.1,11.1,0,0,1-4.63,0l-.94,2.38A10.75,10.75,0,0,0,365.42,292.47Z" style="fill:#e0e0e0"></path><path d="M340.27,272.08c.27-1.21,1.47-2.4,3.59-3.36,4.92-2.19,12.92-2.28,17.89-.19,2.14.91,3.36,2.08,3.66,3.28h.07c.93,8-.4,17.25-3.19,22.4a.54.54,0,0,1-.05.11l0,.08h0a6.08,6.08,0,0,1-2.3,2.22,15,15,0,0,1-13.57.15,6.22,6.22,0,0,1-2.36-2.18h0l0-.07-.06-.12c-2.9-5.09-4.42-14.33-3.66-22.32Z" style="fill:#ebebeb"></path><path d="M346.72,295.21c-3.51-2.87-3.85-12.41-3.75-18l1.52-8.71c-.21.08-.43.16-.63.25-2.12,1-3.32,2.15-3.59,3.36h-.07c-.76,8,.76,17.23,3.66,22.32l.06.12,0,.07h0a6.22,6.22,0,0,0,2.36,2.18,15.18,15.18,0,0,0,12.8.26A13,13,0,0,1,346.72,295.21Z" style="fill:#e0e0e0"></path><path d="M343.85,267.4c-4.91,2.93-4.86,7.59.11,10.42s13,2.73,17.88-.19,4.86-7.6-.11-10.42S348.76,264.47,343.85,267.4Z" style="fill:#fafafa"></path><path d="M344.93,268.51c-4.33,2.3-4.29,6,.08,8.17a19.18,19.18,0,0,0,15.75-.16c4.33-2.31,4.29-6-.08-8.18A19.18,19.18,0,0,0,344.93,268.51Z" style="fill:#e0e0e0"></path><path d="M345,273.45a7.71,7.71,0,0,0-2.17,1.64,7.76,7.76,0,0,0,2.2,1.59,19.14,19.14,0,0,0,15.75-.17,7.71,7.71,0,0,0,2.17-1.64,7.81,7.81,0,0,0-2.2-1.59A19.18,19.18,0,0,0,345,273.45Z" style="fill:#EFBC68"></path><path d="M345,273.45a7.71,7.71,0,0,0-2.17,1.64,7.76,7.76,0,0,0,2.2,1.59,19.14,19.14,0,0,0,15.75-.17,7.71,7.71,0,0,0,2.17-1.64,7.81,7.81,0,0,0-2.2-1.59A19.18,19.18,0,0,0,345,273.45Z" style="opacity:0.5"></path></g></g><g id="freepik--tea-spoon--inject-24"><path id="freepik--shadow--inject-24" d="M354.23,307.27a.08.08,0,0,0,0,0h0a.08.08,0,0,0,0,0h0l0,0h0l0,0h0l-19.86-11a2.83,2.83,0,0,0,.52-1.43v-.14h0c0-.64-.49-1.34-1.54-2.06-2.17-1.49-7.18-2.81-9.31-1.58a1.52,1.52,0,0,0-.8,1.76h0a6,6,0,0,0,1.65,2.78h0l.21.21,0,0,.25.24a7.9,7.9,0,0,0,1.92,1.34l.62.26a6.72,6.72,0,0,0,1,.28,9,9,0,0,0,1.62.14,4.91,4.91,0,0,0,2.59-.73l18.9,11.4c.6.35,2.28-.53,2.28-1v-.3Z" style="opacity:0.1"></path><g id="freepik--tea-spoon--inject-24"><path d="M330.46,297.2c2.36,0,4.3-1.63,4.3-3.41l-11.65-1.88a6.51,6.51,0,0,0,2.14,3.27A7,7,0,0,0,330.46,297.2Z" style="fill:#ebebeb"></path><path d="M330.46,297.2c2.36,0,4.3-1.63,4.3-3.41l-11.65-1.88a6.51,6.51,0,0,0,2.14,3.27A7,7,0,0,0,330.46,297.2Z" style="opacity:0.15"></path><path d="M334.17,294.06c0,1.27-1.49,2.85-3.86,2.84a8.3,8.3,0,0,1-5.95-2.66,9.55,9.55,0,0,0,.89.94,7,7,0,0,0,5.21,2c2.36,0,4.3-1.63,4.3-3.41l-.6-.09C334.17,293.83,334.17,294,334.17,294.06Z" style="opacity:0.15"></path><path d="M333.22,291.74c-2.17-1.5-7.18-2.82-9.31-1.59s.14,4.13,2.74,5.38a7.06,7.06,0,0,0,6.72.09C335.12,294.61,335.38,293.22,333.22,291.74Z" style="fill:#e6e6e6"></path><path d="M326.23,289.79a14,14,0,0,1,6.92,2c1,.69,1.51,1.38,1.49,2s-.49,1.15-1.33,1.64a6.07,6.07,0,0,1-3,.79,8.2,8.2,0,0,1-3.57-.88c-1.92-.93-3.47-2.63-3.51-3.87a1.38,1.38,0,0,1,.78-1.29,4.58,4.58,0,0,1,2.26-.47m0-.12a4.73,4.73,0,0,0-2.32.48c-2.14,1.24.14,4.13,2.74,5.38a8.19,8.19,0,0,0,3.62.89,6.19,6.19,0,0,0,3.1-.8c1.75-1,2-2.4-.15-3.88a14.13,14.13,0,0,0-7-2.07Z" style="fill:#e0e0e0"></path><path d="M332,292.05c-2.13-1.41-6.57-2.75-8.09-1.71s1,3.71,3.39,4.92,4.37,1.13,5.62.28S334.1,293.45,332,292.05Z" style="fill:#f0f0f0"></path><path d="M329.62,291.53c-1.51-1-4.66-1.95-5.74-1.21s.69,2.63,2.41,3.49,3.09.81,4,.2S331.1,292.53,329.62,291.53Z" style="fill:#fafafa"></path><path d="M354.1,306.34,334,295.21a6.08,6.08,0,0,1-1.28.75v.29L352,307.88c.6.34,2.28-.54,2.28-1v-.3A.22.22,0,0,0,354.1,306.34Z" style="fill:#e0e0e0"></path><path d="M354.1,306.34,334,295.21a5.83,5.83,0,0,1-1.28.75v.29L352,307.88c.6.34,2.28-.54,2.28-1v-.3A.22.22,0,0,0,354.1,306.34Z" style="opacity:0.25"></path><path d="M352,307.58c.69.4,2.84-.84,2.15-1.24L334,295.21a5.76,5.76,0,0,1-1.28.75Z" style="fill:#f0f0f0"></path><path d="M334.08,295.53l18.06,9.93c1.38.75,2.22,1.09,1.34,1.6s-1.27.33-1.27.33a2.41,2.41,0,0,0,1-.33c.51-.33.07-.77-.94-1.26S334.08,295.53,334.08,295.53Z" style="fill:#fafafa"></path></g></g><path d="M357.4,252.7c-1.42-4.71-6.75-7.7-6.75-7.7s3.27,4.25,3.13,7.92-3.07,6.24-4.22,10a11.23,11.23,0,0,0,3.33,12s-2.22-5.81.19-10.13C354.49,262.32,358.83,257.4,357.4,252.7Zm2.18,1.27a8.74,8.74,0,0,1-.77,5.47,34.26,34.26,0,0,1-4.2,6.22c-1.86,2.4-1.61,6.76.22,9.32a15,15,0,0,1,2.35-7.36c1.09-1.63,4.15-4.58,4.68-7.87A5.65,5.65,0,0,0,359.58,254Zm-8.32,2.6a13.49,13.49,0,0,0-4.6,3.82c-1.69,2.42-1,5.24,1.13,8.28C346.67,264.11,348.49,260,351.26,256.57Z" style="fill:#fff;opacity:0.5"></path></g></g><g id="freepik--Books--inject-24"><g id="freepik--books--inject-24"><path id="freepik--shadow--inject-24" d="M185,322l-32.58-18.81a.91.91,0,0,1,0-1.71L196.63,276a3.26,3.26,0,0,1,3,0l32.57,18.82a.9.9,0,0,1,0,1.71L188,322A3.26,3.26,0,0,1,185,322Z" style="fill:#EFBC68;opacity:0.2"></path><g id="freepik--Book--inject-24"><polygon points="157.07 301.46 187.42 318.79 228.14 295.42 197.79 278.09 157.07 301.46" style="fill:#EFBC68"></polygon><polygon points="157.07 301.46 187.42 318.79 228.14 295.42 197.79 278.09 157.07 301.46" style="opacity:0.5"></polygon><path d="M187.7,317.72l-29.48-16.93c.62-1.76.58-.36-.13-2.71l29.33,16.79S187.87,312.9,187.7,317.72Z" style="fill:#fff"></path><path d="M186.21,312.94a5,5,0,0,1,2.28,3.93V318c0,1.45-1,2-2.28,1.31l-29.14-16.73v-1.13l28.82,16.46c.76.44,1.37.08,1.37-.78l0-.81a3,3,0,0,0-1.37-2.36l-28.8-16.47v-1.29Z" style="fill:#EFBC68"></path><path d="M186.21,312.94a5,5,0,0,1,2.28,3.93V318c0,1.45-1,2-2.28,1.31l-29.14-16.73v-1.13l28.82,16.46c.76.44,1.37.08,1.37-.78l0-.81a3,3,0,0,0-1.37-2.36l-28.8-16.47v-1.29Z" style="opacity:0.30000000000000004"></path><path d="M157.07,296.21l40.72-23.36,29.13,16.72a5,5,0,0,1,2.29,3.94v1.14a1.61,1.61,0,0,1-.67,1.47l-40.72,23.36a1.58,1.58,0,0,0,.67-1.47v-1.14a5,5,0,0,0-2.29-3.93Z" style="fill:#EFBC68"></path><path d="M157.07,296.21l40.72-23.36,29.13,16.72a5,5,0,0,1,2.29,3.94v1.14a1.61,1.61,0,0,1-.67,1.47l-40.72,23.36a1.58,1.58,0,0,0,.67-1.47v-1.14a5,5,0,0,0-2.29-3.93Z" style="opacity:0.1"></path><path d="M187.83,314.63a4.67,4.67,0,0,1,.67,2.24V318a1.58,1.58,0,0,1-.67,1.47l40.72-23.36a1.61,1.61,0,0,0,.67-1.47v-1.14a4.64,4.64,0,0,0-.67-2.24Z" style="opacity:0.1"></path></g><g id="freepik--book--inject-24"><polygon points="157.07 293.38 187.42 310.71 228.14 287.35 197.79 270.01 157.07 293.38" style="fill:#EFBC68"></polygon><path d="M187.7,309.64l-29.48-16.92c.63-1.77.58-.79-.12-3.14l29.32,16.79S187.88,304.82,187.7,309.64Z" style="fill:#fff"></path><path d="M186.21,304.44a5,5,0,0,1,2.28,3.93v1.57c0,1.44-1,2-2.28,1.31l-29.14-16.73v-1.14l28.83,16.46c.75.44,1.36.09,1.36-.78l0-1.23a3,3,0,0,0-1.37-2.36L157.07,289v-1.29Z" style="fill:#EFBC68"></path><path d="M186.21,304.44a5,5,0,0,1,2.28,3.93v1.57c0,1.44-1,2-2.28,1.31l-29.14-16.73v-1.14l28.83,16.46c.75.44,1.36.09,1.36-.78l0-1.23a3,3,0,0,0-1.37-2.36L157.07,289v-1.29Z" style="fill:#fff;opacity:0.15"></path><path d="M157.07,287.71l40.72-23.36,29.14,16.72a5,5,0,0,1,2.28,3.94v1.56a1.59,1.59,0,0,1-.67,1.47l-40.72,23.37a1.59,1.59,0,0,0,.67-1.47v-1.57a5,5,0,0,0-2.29-3.93Z" style="fill:#EFBC68"></path><path d="M157.07,287.71l40.72-23.36,29.14,16.72a5,5,0,0,1,2.28,3.94v1.56a1.59,1.59,0,0,1-.67,1.47l-40.72,23.37a1.59,1.59,0,0,0,.67-1.47v-1.57a5,5,0,0,0-2.29-3.93Z" style="fill:#fff;opacity:0.35000000000000003"></path><path d="M187.83,306.13a4.71,4.71,0,0,1,.67,2.24v1.57a1.59,1.59,0,0,1-.67,1.47L228.54,288a1.59,1.59,0,0,0,.67-1.47V285a4.64,4.64,0,0,0-.67-2.24Z" style="fill:#EFBC68"></path><path d="M187.83,306.13a4.71,4.71,0,0,1,.67,2.24v1.57a1.59,1.59,0,0,1-.67,1.47L228.54,288a1.59,1.59,0,0,0,.67-1.47V285a4.64,4.64,0,0,0-.67-2.24Z" style="fill:#fff;opacity:0.25"></path></g></g></g></svg>
